<svg width="13" height="15" viewBox="0 0 13 15" fill="none" xmlns="http://www.w3.org/2000/svg">
<g clip-path="url(#clip0_54_8744)">
<path d="M3.86905 2.36287V2.67932C3.86905 3.62869 4.2449 4.55696 4.57653 5.37974C4.86395 6.09704 5.10714 6.68776 5.10714 7.25738C5.10714 8.60759 3.95748 9.70464 2.54252 9.70464C1.14966 9.70464 0 8.60759 0 7.25738C0 6.05485 1.5034 3.18565 3.11735 2.27848L3.86905 1.85654V2.36287Z" fill="url(#paint0_radial_54_8744)"/>
<path d="M3.55957 2.67932C3.55957 3.69198 3.95753 4.64134 4.28916 5.48522C4.55447 6.16033 4.79767 6.75105 4.79767 7.25738C4.79767 8.43881 3.78066 9.40928 2.54256 9.40928C1.30447 9.40928 0.30957 8.43881 0.30957 7.25738C0.30957 6.13923 1.76875 3.37552 3.27216 2.53164L3.55957 2.36286V2.67932Z" fill="white"/>
<path d="M4.20081 6.68776C4.20081 6.28692 4.09027 5.82278 3.93551 5.29536C4.22292 5.99156 4.48823 6.62447 4.48823 7.1308C4.48823 8.22785 3.55966 9.09282 2.43211 9.09282C2.38789 9.09282 2.32156 9.09282 2.27734 9.09282C3.33857 9.00844 4.20081 7.97468 4.20081 6.68776Z" fill="#D1DCEE"/>
<path d="M2.21082 4.49367C2.18871 4.45147 2.21082 4.34599 2.25504 4.2827C2.29926 4.19831 2.36558 4.17721 2.4098 4.21941C2.43191 4.2616 2.43191 4.36709 2.36558 4.43038C2.32137 4.49367 2.25504 4.53586 2.21082 4.49367Z" fill="#F1E6DD"/>
<path d="M1.54762 5.56962C1.5034 5.50633 1.54762 5.33755 1.63606 5.21097C1.72449 5.08439 1.83504 5.0422 1.90136 5.10549C1.94558 5.16878 1.92347 5.33755 1.81293 5.46414C1.72449 5.61181 1.61395 5.65401 1.54762 5.56962Z" fill="#F1E6DD"/>
<path d="M7.34012 0.295359V0.485232C7.34012 1.05485 7.56121 1.62447 7.76019 2.1097C7.93706 2.53165 8.09182 2.91139 8.09182 3.24895C8.09182 4.05063 7.40645 4.72574 6.5442 4.72574C5.70407 4.72574 4.99658 4.07173 4.99658 3.24895C4.99658 2.51055 5.90305 0.801688 6.87583 0.253165L7.31801 0V0.295359H7.34012Z" fill="url(#paint1_radial_54_8744)"/>
<path d="M7.16335 0.506333C7.16335 1.11815 7.40655 1.68777 7.60553 2.1941C7.76029 2.59494 7.91505 2.95359 7.91505 3.27005C7.91505 3.98735 7.29601 4.55697 6.56641 4.55697C5.81471 4.55697 5.21777 3.96625 5.21777 3.27005C5.21777 2.59494 6.10213 0.928274 7.00859 0.421945L7.18546 0.31646V0.506333H7.16335Z" fill="#FAFBFC"/>
<path d="M7.53896 2.91139C7.53896 2.65823 7.47263 2.38397 7.36209 2.06751C7.53896 2.48945 7.69372 2.8692 7.69372 3.16456C7.69372 3.81857 7.141 4.34599 6.45562 4.34599C6.43351 4.34599 6.3893 4.34599 6.36719 4.34599C7.03045 4.3038 7.53896 3.67089 7.53896 2.91139Z" fill="#D1DCEE"/>
<path d="M6.3451 1.58228C6.32299 1.56118 6.3451 1.49789 6.3672 1.4557C6.38931 1.4135 6.43353 1.39241 6.45564 1.4135C6.47775 1.4346 6.45564 1.49789 6.43353 1.54009C6.41142 1.58228 6.3672 1.60338 6.3451 1.58228Z" fill="#F1E6DD"/>
<path d="M5.94715 2.23629C5.92504 2.1941 5.94715 2.10971 5.99137 2.02532C6.05769 1.94093 6.12402 1.91984 6.14613 1.96203C6.16824 2.00422 6.14613 2.10971 6.10191 2.173C6.05769 2.25739 5.96926 2.27849 5.94715 2.23629Z" fill="#F1E6DD"/>
<path d="M7.73781 5.27426V5.42194C7.73781 5.84388 7.91468 6.26582 8.04733 6.64557C8.17999 6.96202 8.29053 7.23629 8.29053 7.48945C8.29053 8.10126 7.78203 8.5865 7.14087 8.5865C6.49971 8.5865 5.99121 8.10126 5.99121 7.48945C5.99121 6.94093 6.67658 5.65401 7.40618 5.25316L7.73781 5.06329V5.27426Z" fill="url(#paint2_radial_54_8744)"/>
<path d="M7.60532 5.42194C7.60532 5.86498 7.78219 6.30801 7.93695 6.68776C8.0696 6.98312 8.15804 7.25738 8.15804 7.48945C8.15804 8.01688 7.69375 8.45991 7.14103 8.45991C6.58831 8.45991 6.12402 8.01688 6.12402 7.48945C6.12402 6.98312 6.78729 5.73839 7.47266 5.35865L7.60532 5.29536V5.42194Z" fill="white"/>
<path d="M7.89265 7.23629C7.89265 7.04641 7.84844 6.83544 7.76 6.60337C7.89265 6.91983 8.0032 7.19409 8.0032 7.42616C8.0032 7.91139 7.58313 8.31224 7.07463 8.31224C7.05252 8.31224 7.03041 8.31224 7.0083 8.31224C7.49469 8.27004 7.89265 7.80591 7.89265 7.23629Z" fill="#D1DCEE"/>
<path d="M7.00818 6.24473C6.98607 6.22363 7.00818 6.18144 7.03029 6.13924C7.0524 6.09705 7.07451 6.09705 7.09662 6.11814C7.11872 6.13924 7.09662 6.18143 7.07451 6.22363C7.0524 6.24473 7.00818 6.24473 7.00818 6.24473Z" fill="#F1E6DD"/>
<path d="M6.69861 6.72996C6.67651 6.70886 6.69861 6.62447 6.74283 6.56118C6.78705 6.49789 6.83127 6.47679 6.85338 6.51899C6.87549 6.54008 6.85338 6.62447 6.80916 6.68776C6.76494 6.72996 6.72072 6.75106 6.69861 6.72996Z" fill="#F1E6DD"/>
<path d="M10.6568 8.6287V8.77637C10.6568 9.19831 10.8336 9.62026 10.9663 10C11.0989 10.3165 11.2095 10.5907 11.2095 10.8439C11.2095 11.4557 10.701 11.9409 10.0598 11.9409C9.41866 11.9409 8.91016 11.4557 8.91016 10.8439C8.91016 10.2954 9.59553 9.00844 10.3251 8.6076L10.6568 8.41772V8.6287Z" fill="url(#paint3_radial_54_8744)"/>
<path d="M10.5243 8.77638C10.5243 9.21942 10.7011 9.66245 10.8559 10.0422C10.9885 10.3376 11.077 10.6118 11.077 10.8439C11.077 11.3713 10.6127 11.8144 10.06 11.8144C9.50725 11.8144 9.04297 11.3713 9.04297 10.8439C9.04297 10.3376 9.70623 9.09283 10.3916 8.71309L10.5243 8.6498V8.77638Z" fill="#F0F6FA"/>
<path d="M10.8116 10.5907C10.8116 10.4008 10.7674 10.1899 10.6789 9.95781C10.8116 10.2743 10.9221 10.5485 10.9221 10.7806C10.9221 11.2658 10.5021 11.6667 9.99357 11.6667C9.97146 11.6667 9.94935 11.6667 9.92725 11.6667C10.4136 11.6245 10.8116 11.1603 10.8116 10.5907Z" fill="#D1DCEE"/>
<path d="M9.90515 9.59916C9.88304 9.57806 9.90515 9.53587 9.92726 9.49367C9.94937 9.45148 9.97148 9.45148 9.99359 9.47258C10.0157 9.49367 9.99359 9.53587 9.97148 9.57806C9.94937 9.59916 9.92726 9.62025 9.90515 9.59916Z" fill="#F1E6DD"/>
<path d="M9.61756 10.0844C9.59545 10.0633 9.61756 9.9789 9.66178 9.91561C9.706 9.85232 9.75021 9.83122 9.77232 9.87342C9.79443 9.89452 9.77232 9.9789 9.7281 10.0422C9.68389 10.1055 9.63967 10.1055 9.61756 10.0844Z" fill="#F1E6DD"/>
<path d="M6.61056 9.64135V9.87342C6.61056 10.5696 6.87586 11.2447 7.11906 11.8565C7.31804 12.3629 7.51702 12.827 7.51702 13.2278C7.51702 14.2194 6.67688 15 5.65988 15C4.62076 15 3.80273 14.1983 3.80273 13.2278C3.80273 12.3418 4.90818 10.2532 6.07995 9.57806L6.63267 9.2616V9.64135H6.61056Z" fill="url(#paint4_radial_54_8744)"/>
<path d="M6.38957 9.87342C6.38957 10.6118 6.67699 11.308 6.92018 11.9198C7.11916 12.4051 7.29603 12.8481 7.29603 13.2068C7.29603 14.0717 6.56644 14.7679 5.65998 14.7679C4.75352 14.7679 4.02393 14.0717 4.02393 13.2068C4.02393 12.384 5.10726 10.3587 6.19059 9.74684L6.41168 9.62025V9.87342H6.38957Z" fill="#FCFEFF"/>
<path d="M6.85393 12.8059C6.85393 12.5106 6.7655 12.173 6.65495 11.7933C6.85393 12.2996 7.05291 12.7637 7.05291 13.1224C7.05291 13.9241 6.38965 14.557 5.54951 14.557C5.50529 14.557 5.48318 14.557 5.43896 14.557C6.21277 14.4937 6.85393 13.7342 6.85393 12.8059Z" fill="#D1DCEE"/>
<path d="M5.39441 11.1814C5.3723 11.1603 5.39441 11.0759 5.41652 11.0338C5.46074 10.9705 5.50496 10.9494 5.52706 10.9916C5.54917 11.0127 5.52706 11.097 5.50496 11.1392C5.48285 11.2025 5.41652 11.2236 5.39441 11.1814Z" fill="#F1E6DD"/>
<path d="M4.90794 11.9831C4.86372 11.9409 4.90794 11.8143 4.97426 11.73C5.04059 11.6456 5.12902 11.6034 5.15113 11.6456C5.19535 11.6878 5.17324 11.8143 5.08481 11.8987C5.04059 12.0042 4.95215 12.0253 4.90794 11.9831Z" fill="#F1E6DD"/>
<path d="M12.0935 1.64557V1.87764C12.0935 2.57384 12.3588 3.24895 12.602 3.86076C12.801 4.36709 12.9999 4.83122 12.9999 5.23207C12.9999 6.22363 12.1598 7.00422 11.1428 7.00422C10.1037 7.00422 9.28564 6.20253 9.28564 5.23207C9.28564 4.34599 10.3911 2.25738 11.5629 1.58228L12.1156 1.26582V1.64557H12.0935Z" fill="url(#paint5_radial_54_8744)"/>
<path d="M11.8726 1.87764C11.8726 2.61603 12.16 3.31224 12.4032 3.92405C12.6022 4.40928 12.7791 4.85232 12.7791 5.21097C12.7791 6.07595 12.0495 6.79325 11.1209 6.79325C10.2145 6.79325 9.48486 6.09705 9.48486 5.21097C9.48486 4.38819 10.5682 2.36287 11.6515 1.75106L11.8726 1.62447V1.87764Z" fill="#FAFAFA"/>
<path d="M12.3368 4.81013C12.3368 4.51477 12.2484 4.17722 12.1379 3.79747C12.3368 4.3038 12.5358 4.76793 12.5358 5.12658C12.5358 5.92827 11.8726 6.56118 11.0324 6.56118C10.9882 6.56118 10.9661 6.56118 10.9219 6.56118C11.6957 6.51899 12.3368 5.75949 12.3368 4.81013Z" fill="#D1DCEE"/>
<path d="M10.8773 3.20675C10.8552 3.18566 10.8773 3.10127 10.8994 3.05907C10.9436 2.99578 10.9879 2.97468 11.01 3.01688C11.0321 3.03798 11.01 3.12236 10.9879 3.16456C10.9436 3.20675 10.8994 3.22785 10.8773 3.20675Z" fill="#F1E6DD"/>
<path d="M10.3908 4.00844C10.3466 3.96625 10.3908 3.83966 10.4572 3.75528C10.5235 3.67089 10.6119 3.62869 10.634 3.67089C10.6783 3.71308 10.6562 3.83966 10.5677 3.92405C10.5235 4.00844 10.4351 4.05063 10.3908 4.00844Z" fill="#F1E6DD"/>
</g>
<defs>
<radialGradient id="paint0_radial_54_8744" cx="0" cy="0" r="1" gradientUnits="userSpaceOnUse" gradientTransform="translate(0.216709 4.2189) scale(8.32155 7.94072)">
<stop offset="0.005618" stop-color="#D3DFF2"/>
<stop offset="0.5393" stop-color="#1998D5"/>
<stop offset="1" stop-color="#0073BB"/>
</radialGradient>
<radialGradient id="paint1_radial_54_8744" cx="0" cy="0" r="1" gradientUnits="userSpaceOnUse" gradientTransform="translate(5.03763 1.32454) scale(5.00824 4.77904)">
<stop offset="0.005618" stop-color="#D3DFF2"/>
<stop offset="0.5393" stop-color="#1998D5"/>
<stop offset="1" stop-color="#0073BB"/>
</radialGradient>
<radialGradient id="paint2_radial_54_8744" cx="0" cy="0" r="1" gradientUnits="userSpaceOnUse" gradientTransform="translate(6.10193 6.11946) scale(3.74059 3.5694)">
<stop offset="0.005618" stop-color="#D3DFF2"/>
<stop offset="0.5393" stop-color="#1998D5"/>
<stop offset="1" stop-color="#0073BB"/>
</radialGradient>
<radialGradient id="paint3_radial_54_8744" cx="0" cy="0" r="1" gradientUnits="userSpaceOnUse" gradientTransform="translate(9.01867 9.47896) scale(3.74073 3.56954)">
<stop offset="0.005618" stop-color="#D3DFF2"/>
<stop offset="0.5393" stop-color="#1998D5"/>
<stop offset="1" stop-color="#0073BB"/>
</radialGradient>
<radialGradient id="paint4_radial_54_8744" cx="0" cy="0" r="1" gradientUnits="userSpaceOnUse" gradientTransform="translate(3.85708 10.9213) scale(6.07825 5.80009)">
<stop offset="0.005618" stop-color="#D3DFF2"/>
<stop offset="0.5393" stop-color="#1998D5"/>
<stop offset="1" stop-color="#0073BB"/>
</radialGradient>
<radialGradient id="paint5_radial_54_8744" cx="0" cy="0" r="1" gradientUnits="userSpaceOnUse" gradientTransform="translate(9.33519 2.9367) scale(6.0783 5.80013)">
<stop offset="0.005618" stop-color="#D3DFF2"/>
<stop offset="0.5393" stop-color="#1998D5"/>
<stop offset="1" stop-color="#0073BB"/>
</radialGradient>
<clipPath id="clip0_54_8744">
<rect width="13" height="15" fill="white"/>
</clipPath>
</defs>
</svg>
