<svg width="15" height="18" viewBox="0 0 15 18" fill="none" xmlns="http://www.w3.org/2000/svg">
<path d="M12.22 3.7194C12.22 3.64182 12.2352 3.57975 12.2352 3.50216C12.2352 1.93489 10.9521 0.677979 9.36354 0.677979C8.06517 0.677979 6.98065 1.51592 6.61405 2.66422C6.20163 2.35387 5.66701 2.16766 5.08656 2.16766C3.77291 2.16766 2.68839 3.12974 2.68839 4.30907C2.68839 4.41769 2.70367 4.5108 2.71894 4.61942C1.1609 4.88322 0 5.75219 0 6.80738C0 8.04878 1.63442 9.05742 3.66599 9.05742C4.38391 9.05742 5.04073 8.93328 5.60591 8.71603C6.2169 8.99535 6.9501 9.16604 7.75967 9.16604C8.5387 9.16604 9.24134 9.01086 9.83707 8.76258C10.3717 9.05742 10.998 9.22811 11.6701 9.22811C13.5031 9.22811 15 7.98671 15 6.466C15 5.06943 13.8086 3.93665 12.22 3.7194Z" fill="url(#paint0_radial_5_2641)"/>
<path d="M6.85816 2.86589L6.76651 3.1452L6.53738 2.97451C6.17078 2.6952 5.69726 2.54002 5.22374 2.54002C4.09339 2.54002 3.17689 3.36245 3.17689 4.35557C3.17689 4.43315 3.17689 4.52626 3.19217 4.61936L3.22272 4.82109L3.02414 4.85213C1.61885 5.08489 0.625977 5.84524 0.625977 6.6987C0.625977 7.75389 2.09237 8.60736 3.87954 8.60736C4.50581 8.60736 5.11681 8.49873 5.63616 8.29701L5.71254 8.26597L5.78891 8.29701C6.35408 8.5608 7.02618 8.70046 7.7441 8.70046C8.4162 8.70046 9.07302 8.57632 9.62292 8.32804L9.71457 8.28149L9.80622 8.32804C10.295 8.59184 10.8602 8.7315 11.4406 8.7315C13.0598 8.7315 14.3887 7.66079 14.3887 6.32629C14.3887 5.14696 13.3653 4.15384 11.9447 3.95211L11.7614 3.92108L11.7767 3.53314C11.7614 2.22967 10.6311 1.12793 9.25632 1.12793C8.14125 1.12793 7.17893 1.82622 6.85816 2.86589Z" fill="url(#paint1_radial_5_2641)"/>
<path d="M13.9918 6.26426C13.9918 5.3177 13.1211 4.49527 11.9144 4.32458L11.334 4.24699C11.334 4.24699 11.3645 3.50215 11.3645 3.47112C11.3645 2.36937 10.4327 1.46936 9.28712 1.46936C8.6914 1.46936 8.15678 1.70212 7.7749 2.10558C8.09568 1.90385 8.49282 1.77971 8.90525 1.77971C10.0661 1.79523 10.9979 2.69524 10.9979 3.79698C10.9979 3.82802 10.9674 4.57286 10.9674 4.57286L11.5478 4.65044C12.7545 4.82114 13.6252 5.62805 13.6252 6.59013C13.6252 7.04014 13.4266 7.45911 13.1059 7.78498C13.6405 7.41256 13.9918 6.88496 13.9918 6.26426Z" fill="url(#paint2_radial_5_2641)"/>
<path d="M7.9277 3.37802C7.9277 3.33147 7.9277 3.28492 7.9277 3.23837C7.9277 2.22973 7.08758 1.4073 6.06415 1.4073C5.22403 1.4073 4.52138 1.95041 4.27699 2.69525C4.00204 2.49353 3.66599 2.36939 3.28411 2.36939C2.42872 2.36939 1.74134 2.99009 1.74134 3.76596C1.74134 3.82803 1.74134 3.90562 1.75662 3.96769C0.748472 4.13838 0 4.71253 0 5.37978C0 6.18669 1.06925 6.83842 2.36762 6.83842C2.82587 6.83842 3.25356 6.76083 3.62016 6.62118C4.01731 6.80739 4.49083 6.91601 5.02546 6.91601C5.52953 6.91601 5.98778 6.8229 6.36965 6.65221C6.7057 6.83842 7.11813 6.94704 7.5611 6.94704C8.75255 6.94704 9.71487 6.14014 9.71487 5.16253C9.73014 4.26252 8.95112 3.51768 7.9277 3.37802Z" fill="url(#paint3_radial_5_2641)"/>
<path d="M4.44497 2.83489L4.38387 3.00558L4.23112 2.89696C3.98672 2.72627 3.68122 2.61764 3.37573 2.61764C2.64253 2.61764 2.04681 3.14524 2.04681 3.79697C2.04681 3.85904 2.04681 3.90559 2.06208 3.96766L2.07736 4.10732L1.93988 4.12284C1.02338 4.27801 0.381836 4.75906 0.381836 5.31769C0.381836 6.00045 1.32888 6.55908 2.48978 6.55908C2.88693 6.55908 3.28408 6.49701 3.6354 6.35736L3.68122 6.34184L3.72705 6.35736C4.09365 6.52805 4.53662 6.62115 4.99487 6.62115C5.43784 6.62115 5.85027 6.54357 6.21687 6.38839L6.27797 6.35736L6.33907 6.38839C6.65984 6.55908 7.02644 6.65219 7.40831 6.65219C8.46228 6.65219 9.31768 5.9539 9.31768 5.10044C9.31768 4.34008 8.64558 3.68835 7.72909 3.56421L7.60689 3.54869L7.62216 3.30041C7.62216 2.43143 6.88896 1.71763 6.00302 1.71763C5.28509 1.70211 4.65882 2.15212 4.44497 2.83489Z" fill="url(#paint4_radial_5_2641)"/>
<path d="M9.07347 5.03833C9.07347 4.41763 8.50829 3.89003 7.72927 3.78141L7.36267 3.73486C7.36267 3.73486 7.37795 3.25382 7.37795 3.2383C7.37795 2.52449 6.76695 1.93483 6.03375 1.93483C5.65188 1.93483 5.30055 2.09 5.05615 2.33828C5.27 2.19863 5.5144 2.12104 5.78935 2.12104C6.53782 2.12104 7.13355 2.7107 7.13355 3.42451C7.13355 3.44003 7.11827 3.92107 7.11827 3.92107L7.48487 3.96762C8.26389 4.07624 8.82907 4.60384 8.82907 5.22454C8.82907 5.51937 8.70687 5.78317 8.49302 6.00041C8.84434 5.78317 9.07347 5.42626 9.07347 5.03833Z" fill="url(#paint5_radial_5_2641)"/>
<path d="M4.65896 8.46762V8.70038C4.65896 9.39867 4.91863 10.0814 5.14775 10.6866C5.34633 11.2142 5.51435 11.6487 5.51435 12.0677C5.51435 13.0608 4.72006 13.8677 3.74246 13.8677C2.76486 13.8677 1.98584 13.0608 1.98584 12.0832C1.98584 11.1987 3.02454 9.08832 4.13961 8.42107L4.65896 8.11072V8.46762Z" fill="url(#paint6_radial_5_2641)"/>
<path d="M4.44526 8.71581C4.44526 9.46065 4.72021 10.1589 4.94934 10.7796C5.13264 11.2762 5.30066 11.7107 5.30066 12.0831C5.30066 12.9521 4.59801 13.6659 3.74262 13.6659C2.88722 13.6659 2.18457 12.9521 2.18457 12.0831C2.18457 11.2452 3.20799 9.21237 4.24669 8.59167L4.44526 8.46753V8.71581Z" fill="url(#paint7_radial_5_2641)"/>
<path d="M4.88849 11.6642C4.88849 11.3694 4.81212 11.028 4.70519 10.6401C4.90377 11.1522 5.08706 11.6177 5.08706 11.9901C5.08706 12.7815 4.44552 13.4332 3.6665 13.4332C3.63595 13.4332 3.59012 13.4332 3.55957 13.4332C4.29277 13.3712 4.88849 12.5953 4.88849 11.6642Z" fill="#D1DCEE"/>
<path d="M3.51304 10.0349C3.49777 10.0038 3.49777 9.92625 3.54359 9.8797C3.57414 9.81763 3.61997 9.80211 3.65052 9.83314C3.66579 9.86418 3.66579 9.94177 3.61997 9.98832C3.58942 10.0504 3.54359 10.0659 3.51304 10.0349Z" fill="#F1E6DD"/>
<path d="M3.05495 10.8418C3.0244 10.7952 3.05495 10.6711 3.11605 10.578C3.17715 10.4849 3.25353 10.4538 3.29935 10.5004C3.3299 10.5469 3.31463 10.6711 3.23825 10.7642C3.17715 10.8573 3.0855 10.8883 3.05495 10.8418Z" fill="#F1E6DD"/>
<path d="M7.05713 6.96245V7.10211C7.05713 7.52108 7.20988 7.94005 7.34735 8.29696C7.46955 8.60731 7.57648 8.88662 7.57648 9.1349C7.57648 9.72456 7.10296 10.2211 6.50723 10.2211C5.92679 10.2211 5.43799 9.74008 5.43799 9.1349C5.43799 8.59179 6.06426 7.33487 6.73636 6.93142L7.04186 6.74521V6.96245H7.05713Z" fill="url(#paint8_radial_5_2641)"/>
<path d="M6.93502 7.10209C6.93502 7.5521 7.10304 7.97107 7.24052 8.34349C7.34744 8.63832 7.45436 8.90212 7.45436 9.13488C7.45436 9.66247 7.02667 10.0814 6.52259 10.0814C6.01852 10.0814 5.59082 9.64696 5.59082 9.13488C5.59082 8.63832 6.20182 7.41244 6.82809 7.04002L6.95029 6.96243V7.10209H6.93502Z" fill="url(#paint9_radial_5_2641)"/>
<path d="M7.19469 8.87103C7.19469 8.68482 7.14886 8.4831 7.08776 8.25034C7.20996 8.56068 7.31689 8.84 7.31689 9.05724C7.31689 9.53828 6.93501 9.92622 6.46149 9.92622C6.44622 9.92622 6.41567 9.92622 6.40039 9.92622C6.84336 9.9107 7.19469 9.44518 7.19469 8.87103Z" fill="#D1DCEE"/>
<path d="M6.36961 7.89341C6.35433 7.87789 6.36961 7.83134 6.38488 7.80031C6.40016 7.76927 6.43071 7.75375 6.44598 7.76927C6.46126 7.78479 6.44598 7.83134 6.43071 7.86238C6.41543 7.90893 6.38488 7.92445 6.36961 7.89341Z" fill="#F1E6DD"/>
<path d="M6.09486 8.38997C6.07958 8.35894 6.09486 8.29687 6.12541 8.2348C6.17123 8.17273 6.21706 8.15721 6.23233 8.18825C6.24761 8.21928 6.23233 8.28135 6.20178 8.34342C6.15596 8.38997 6.11013 8.40549 6.09486 8.38997Z" fill="#F1E6DD"/>
<path d="M7.33172 10.6246V10.7332C7.33172 11.0436 7.45392 11.3539 7.54557 11.6332C7.63722 11.866 7.71359 12.0677 7.71359 12.2539C7.71359 12.7039 7.36227 13.0609 6.9193 13.0609C6.47632 13.0609 6.125 12.7039 6.125 12.2539C6.125 11.8505 6.59852 10.9039 7.1026 10.6091L7.33172 10.4539V10.6246Z" fill="url(#paint10_radial_5_2641)"/>
<path d="M7.23973 10.7333C7.23973 11.0592 7.36193 11.3851 7.46886 11.6644C7.56051 11.8816 7.6216 12.0834 7.6216 12.254C7.6216 12.642 7.30083 12.9678 6.91896 12.9678C6.53708 12.9678 6.21631 12.642 6.21631 12.254C6.21631 11.8816 6.67456 10.9661 7.14808 10.6868L7.23973 10.6402V10.7333Z" fill="url(#paint11_radial_5_2641)"/>
<path d="M7.43864 12.0523C7.43864 11.9127 7.40809 11.7575 7.34699 11.5868C7.43864 11.8196 7.51501 12.0213 7.51501 12.192C7.51501 12.5489 7.22479 12.8437 6.87346 12.8437C6.85819 12.8437 6.84291 12.8437 6.82764 12.8437C7.16369 12.8127 7.43864 12.4713 7.43864 12.0523Z" fill="#D1DCEE"/>
<path d="M6.81199 11.323C6.79672 11.3074 6.81199 11.2764 6.82727 11.2454C6.84254 11.2143 6.85782 11.2143 6.87309 11.2299C6.88837 11.2454 6.87309 11.2764 6.85782 11.3074C6.84254 11.323 6.82727 11.3385 6.81199 11.323Z" fill="#F1E6DD"/>
<path d="M6.61341 11.6798C6.59814 11.6488 6.61341 11.6022 6.64396 11.5557C6.67451 11.5091 6.70506 11.4936 6.72034 11.5247C6.73561 11.5402 6.72034 11.6022 6.68979 11.6488C6.65924 11.6954 6.62869 11.7109 6.61341 11.6798Z" fill="#F1E6DD"/>
<path d="M9.34832 13.0918V13.2004C9.34832 13.5108 9.47052 13.8211 9.56217 14.1005C9.65382 14.3332 9.7302 14.5349 9.7302 14.7212C9.7302 15.1712 9.37887 15.5281 8.9359 15.5281C8.49293 15.5281 8.1416 15.1712 8.1416 14.7212C8.1416 14.3177 8.61513 13.3711 9.1192 13.0763L9.34832 12.9366V13.0918Z" fill="url(#paint12_radial_5_2641)"/>
<path d="M9.24168 13.2005C9.24168 13.5264 9.36388 13.8523 9.47081 14.1316C9.56246 14.3488 9.62356 14.5505 9.62356 14.7212C9.62356 15.1092 9.30278 15.435 8.92091 15.435C8.53904 15.435 8.21826 15.1092 8.21826 14.7212C8.21826 14.3488 8.67651 13.4333 9.15003 13.154L9.24168 13.1074V13.2005Z" fill="url(#paint13_radial_5_2641)"/>
<path d="M9.4401 14.5195C9.4401 14.3798 9.40955 14.2246 9.34845 14.0539C9.4401 14.2867 9.51647 14.4884 9.51647 14.6591C9.51647 15.016 9.22625 15.3108 8.87493 15.3108C8.85965 15.3108 8.84438 15.3108 8.8291 15.3108C9.18042 15.2953 9.4401 14.9384 9.4401 14.5195Z" fill="#D1DCEE"/>
<path d="M8.82908 13.7901C8.81381 13.7746 8.82908 13.7435 8.84436 13.7125C8.85963 13.6815 8.87491 13.6815 8.89018 13.697C8.90546 13.7125 8.89018 13.7435 8.87491 13.7746C8.85963 13.8056 8.84436 13.8056 8.82908 13.7901Z" fill="#F1E6DD"/>
<path d="M8.63099 14.147C8.61572 14.1314 8.63099 14.0694 8.66154 14.0228C8.69209 13.9763 8.72264 13.9608 8.73792 13.9918C8.75319 14.0073 8.73792 14.0694 8.70737 14.1159C8.67682 14.1625 8.64627 14.178 8.63099 14.147Z" fill="#F1E6DD"/>
<path d="M6.53757 13.8211V13.9918C6.53757 14.5039 6.72087 15.0005 6.8889 15.4505C7.02637 15.8229 7.16385 16.1643 7.16385 16.4591C7.16385 17.1884 6.5834 17.7626 5.88075 17.7626C5.16283 17.7626 4.59766 17.1729 4.59766 16.4591C4.59766 15.8074 5.3614 14.2711 6.17098 13.7746L6.55285 13.5418V13.8211H6.53757Z" fill="url(#paint14_radial_5_2641)"/>
<path d="M6.38505 13.9919C6.38505 14.535 6.58362 15.0471 6.75164 15.4971C6.88912 15.854 7.01132 16.1798 7.01132 16.4436C7.01132 17.0798 6.50725 17.5919 5.8657 17.5919C5.23942 17.5919 4.73535 17.0798 4.73535 16.4436C4.73535 15.8385 5.48382 14.3488 6.2323 13.8988L6.38505 13.8057V13.9919Z" fill="url(#paint15_radial_5_2641)"/>
<path d="M6.70514 16.1488C6.70514 15.9316 6.64404 15.6833 6.56766 15.404C6.70514 15.7764 6.84261 16.1178 6.84261 16.3816C6.84261 16.9712 6.38436 17.4368 5.80391 17.4368C5.77336 17.4368 5.75809 17.4368 5.72754 17.4368C6.27744 17.4057 6.70514 16.8316 6.70514 16.1488Z" fill="#D1DCEE"/>
<path d="M5.71238 14.9695C5.69711 14.954 5.71238 14.8919 5.72766 14.8609C5.75821 14.8143 5.78876 14.7988 5.80403 14.8298C5.81931 14.8454 5.80403 14.9074 5.78876 14.9385C5.75821 14.9695 5.72766 14.985 5.71238 14.9695Z" fill="#F1E6DD"/>
<path d="M5.37656 15.5591C5.34601 15.5281 5.37655 15.435 5.42238 15.3729C5.4682 15.3108 5.5293 15.2798 5.54458 15.3108C5.57513 15.3419 5.55985 15.435 5.49875 15.497C5.4682 15.5591 5.4071 15.5901 5.37656 15.5591Z" fill="#F1E6DD"/>
<path d="M10.3261 7.95552V8.12622C10.3261 8.63829 10.5094 9.13485 10.6775 9.58486C10.8149 9.95728 10.9524 10.2987 10.9524 10.5935C10.9524 11.3228 10.372 11.897 9.66933 11.897C8.9514 11.897 8.38623 11.3073 8.38623 10.5935C8.38623 9.94176 9.14998 8.40553 9.95955 7.90897L10.3414 7.67621V7.95552H10.3261Z" fill="url(#paint16_radial_5_2641)"/>
<path d="M10.1736 8.12627C10.1736 8.66938 10.3722 9.18146 10.5402 9.63147C10.6777 9.98837 10.7999 10.3142 10.7999 10.578C10.7999 11.2142 10.2958 11.7263 9.65427 11.7263C9.028 11.7263 8.52393 11.2142 8.52393 10.578C8.52393 9.97285 9.2724 8.48318 10.0209 8.03317L10.1736 7.94006V8.12627Z" fill="url(#paint17_radial_5_2641)"/>
<path d="M10.4942 10.2832C10.4942 10.066 10.4331 9.81768 10.3567 9.53836C10.4942 9.91078 10.6317 10.2522 10.6317 10.516C10.6317 11.1056 10.1734 11.5712 9.59298 11.5712C9.56243 11.5712 9.54715 11.5712 9.5166 11.5712C10.0665 11.5246 10.4942 10.966 10.4942 10.2832Z" fill="#D1DCEE"/>
<path d="M9.50144 9.08833C9.48617 9.07281 9.50144 9.01074 9.51672 8.97971C9.54727 8.93315 9.57782 8.91764 9.59309 8.94867C9.60837 8.96419 9.59309 9.02626 9.57782 9.05729C9.54727 9.10384 9.51672 9.11936 9.50144 9.08833Z" fill="#F1E6DD"/>
<path d="M9.16513 9.67803C9.13458 9.64699 9.16513 9.55389 9.21095 9.49182C9.25678 9.42975 9.31788 9.39871 9.33316 9.42975C9.36371 9.46078 9.34843 9.55389 9.28733 9.61596C9.2415 9.69354 9.1804 9.70906 9.16513 9.67803Z" fill="#F1E6DD"/>
<defs>
<radialGradient id="paint0_radial_5_2641" cx="0" cy="0" r="1" gradientUnits="userSpaceOnUse" gradientTransform="translate(10.318 11.1527) scale(11.7923 11.9796)">
<stop offset="0.005618" stop-color="#A9D1EF"/>
<stop offset="0.5393" stop-color="#1998D5"/>
<stop offset="1" stop-color="#0073BB"/>
</radialGradient>
<radialGradient id="paint1_radial_5_2641" cx="0" cy="0" r="1" gradientUnits="userSpaceOnUse" gradientTransform="translate(12.3984 3.67356) scale(7.46917 7.58776)">
<stop offset="0.005618" stop-color="#A9D1EF"/>
<stop offset="0.5393" stop-color="#1998D5"/>
<stop offset="1" stop-color="#0073BB"/>
</radialGradient>
<radialGradient id="paint2_radial_5_2641" cx="0" cy="0" r="1" gradientUnits="userSpaceOnUse" gradientTransform="translate(12.3557 4.16581) scale(8.95764 9.09805)">
<stop stop-color="#CBEBFB"/>
<stop offset="0.7767" stop-color="#BDCDDA"/>
<stop offset="1" stop-color="#B9C4D0"/>
</radialGradient>
<radialGradient id="paint3_radial_5_2641" cx="0" cy="0" r="1" gradientUnits="userSpaceOnUse" gradientTransform="translate(6.57356 8.08728) scale(7.64074 7.76206)">
<stop offset="0.005618" stop-color="#A9D1EF"/>
<stop offset="0.5393" stop-color="#1998D5"/>
<stop offset="1" stop-color="#0073BB"/>
</radialGradient>
<radialGradient id="paint4_radial_5_2641" cx="0" cy="0" r="1" gradientUnits="userSpaceOnUse" gradientTransform="translate(7.92152 3.24145) scale(4.8397 4.91655)">
<stop offset="0.005618" stop-color="#A9D1EF"/>
<stop offset="0.5393" stop-color="#1998D5"/>
<stop offset="1" stop-color="#0073BB"/>
</radialGradient>
<radialGradient id="paint5_radial_5_2641" cx="0" cy="0" r="1" gradientUnits="userSpaceOnUse" gradientTransform="translate(7.90666 3.60585) scale(5.80298 5.89512)">
<stop stop-color="#CBEBFB"/>
<stop offset="0.7767" stop-color="#BDCDDA"/>
<stop offset="1" stop-color="#B9C4D0"/>
</radialGradient>
<radialGradient id="paint6_radial_5_2641" cx="0" cy="0" r="1" gradientUnits="userSpaceOnUse" gradientTransform="translate(2.13039 9.83932) scale(5.7494 5.84068)">
<stop offset="0.005618" stop-color="#D3DFF2"/>
<stop offset="0.5393" stop-color="#1998D5"/>
<stop offset="1" stop-color="#0073BB"/>
</radialGradient>
<radialGradient id="paint7_radial_5_2641" cx="0" cy="0" r="1" gradientUnits="userSpaceOnUse" gradientTransform="translate(3.66002 11.1619) rotate(180) scale(2.11552 2.14911)">
<stop offset="0.005618" stop-color="#A9D1EF"/>
<stop offset="0.5393" stop-color="#1998D5"/>
<stop offset="1" stop-color="#0073BB"/>
</radialGradient>
<radialGradient id="paint8_radial_5_2641" cx="0" cy="0" r="1" gradientUnits="userSpaceOnUse" gradientTransform="translate(5.4612 7.71048) scale(3.46021 3.51515)">
<stop offset="0.005618" stop-color="#D3DFF2"/>
<stop offset="0.5393" stop-color="#1998D5"/>
<stop offset="1" stop-color="#0073BB"/>
</radialGradient>
<radialGradient id="paint9_radial_5_2641" cx="0" cy="0" r="1" gradientUnits="userSpaceOnUse" gradientTransform="translate(6.59714 8.42094) rotate(180) scale(1.27232 1.29252)">
<stop offset="0.005618" stop-color="#A9D1EF"/>
<stop offset="0.5393" stop-color="#1998D5"/>
<stop offset="1" stop-color="#0073BB"/>
</radialGradient>
<radialGradient id="paint10_radial_5_2641" cx="0" cy="0" r="1" gradientUnits="userSpaceOnUse" gradientTransform="translate(6.19624 11.2375) scale(2.5845 2.62554)">
<stop offset="0.005618" stop-color="#D3DFF2"/>
<stop offset="0.5393" stop-color="#1998D5"/>
<stop offset="1" stop-color="#0073BB"/>
</radialGradient>
<radialGradient id="paint11_radial_5_2641" cx="0" cy="0" r="1" gradientUnits="userSpaceOnUse" gradientTransform="translate(6.93989 11.7614) rotate(180) scale(0.950512 0.965603)">
<stop offset="0.005618" stop-color="#A9D1EF"/>
<stop offset="0.5393" stop-color="#1998D5"/>
<stop offset="1" stop-color="#0073BB"/>
</radialGradient>
<radialGradient id="paint12_radial_5_2641" cx="0" cy="0" r="1" gradientUnits="userSpaceOnUse" gradientTransform="translate(8.21124 13.7083) scale(2.58452 2.62555)">
<stop offset="0.005618" stop-color="#D3DFF2"/>
<stop offset="0.5393" stop-color="#1998D5"/>
<stop offset="1" stop-color="#0073BB"/>
</radialGradient>
<radialGradient id="paint13_radial_5_2641" cx="0" cy="0" r="1" gradientUnits="userSpaceOnUse" gradientTransform="translate(8.95553 14.2323) rotate(180) scale(0.95058 0.965673)">
<stop offset="0.005618" stop-color="#A9D1EF"/>
<stop offset="0.5393" stop-color="#1998D5"/>
<stop offset="1" stop-color="#0073BB"/>
</radialGradient>
<radialGradient id="paint14_radial_5_2641" cx="0" cy="0" r="1" gradientUnits="userSpaceOnUse" gradientTransform="translate(4.64541 14.7692) scale(4.19936 4.26604)">
<stop offset="0.005618" stop-color="#D3DFF2"/>
<stop offset="0.5393" stop-color="#1998D5"/>
<stop offset="1" stop-color="#0073BB"/>
</radialGradient>
<radialGradient id="paint15_radial_5_2641" cx="0" cy="0" r="1" gradientUnits="userSpaceOnUse" gradientTransform="translate(5.89348 15.7032) rotate(180) scale(1.54477 1.5693)">
<stop offset="0.005618" stop-color="#A9D1EF"/>
<stop offset="0.5393" stop-color="#1998D5"/>
<stop offset="1" stop-color="#0073BB"/>
</radialGradient>
<radialGradient id="paint16_radial_5_2641" cx="0" cy="0" r="1" gradientUnits="userSpaceOnUse" gradientTransform="translate(8.43076 8.89612) scale(4.19935 4.26603)">
<stop offset="0.005618" stop-color="#D3DFF2"/>
<stop offset="0.5393" stop-color="#1998D5"/>
<stop offset="1" stop-color="#0073BB"/>
</radialGradient>
<radialGradient id="paint17_radial_5_2641" cx="0" cy="0" r="1" gradientUnits="userSpaceOnUse" gradientTransform="translate(9.67863 9.83026) rotate(180) scale(1.54478 1.5693)">
<stop offset="0.005618" stop-color="#A9D1EF"/>
<stop offset="0.5393" stop-color="#1998D5"/>
<stop offset="1" stop-color="#0073BB"/>
</radialGradient>
</defs>
</svg>
