<svg width="80" height="30" viewBox="0 0 80 30" fill="none" xmlns="http://www.w3.org/2000/svg">
<g clip-path="url(#clip0_106_1630)">
<rect width="80" height="30" rx="5" fill="#FEEDE9"/>
<path d="M0 5C0 2.23858 2.23858 0 5 0H40V30H5C2.23858 30 0 27.7614 0 25V5Z" fill="#1F4DC5"/>
<path d="M50.152 21C50.0453 21 49.9547 20.968 49.88 20.904C49.816 20.8293 49.784 20.7387 49.784 20.632V20.12C49.784 20.024 49.8107 19.9173 49.864 19.8C49.9173 19.6827 50.024 19.5547 50.184 19.416L53.576 16.024C54.12 15.5653 54.5467 15.176 54.856 14.856C55.176 14.5253 55.4 14.2107 55.528 13.912C55.6667 13.6133 55.736 13.304 55.736 12.984C55.736 12.376 55.5653 11.896 55.224 11.544C54.8827 11.1813 54.376 11 53.704 11C53.2773 11 52.9093 11.0907 52.6 11.272C52.2907 11.4427 52.0453 11.6827 51.864 11.992C51.6933 12.2907 51.5813 12.632 51.528 13.016C51.5067 13.1547 51.448 13.2507 51.352 13.304C51.2667 13.3573 51.1867 13.384 51.112 13.384H50.28C50.184 13.384 50.104 13.3573 50.04 13.304C49.976 13.24 49.944 13.1653 49.944 13.08C49.9547 12.6747 50.04 12.2693 50.2 11.864C50.36 11.448 50.5947 11.0747 50.904 10.744C51.224 10.4133 51.6133 10.1467 52.072 9.944C52.5413 9.73067 53.0853 9.624 53.704 9.624C54.5467 9.624 55.2347 9.77867 55.768 10.088C56.312 10.3867 56.712 10.7867 56.968 11.288C57.224 11.7893 57.352 12.3387 57.352 12.936C57.352 13.4053 57.272 13.8373 57.112 14.232C56.952 14.616 56.7173 14.9947 56.408 15.368C56.1093 15.7307 55.736 16.104 55.288 16.488L52.216 19.608H57.208C57.3253 19.608 57.416 19.64 57.48 19.704C57.5547 19.768 57.592 19.8587 57.592 19.976V20.632C57.592 20.7387 57.5547 20.8293 57.48 20.904C57.416 20.968 57.3253 21 57.208 21H50.152ZM64.8104 21C64.7037 21 64.613 20.968 64.5384 20.904C64.4744 20.8293 64.4424 20.7387 64.4424 20.632V18.328H59.2584C59.1517 18.328 59.061 18.296 58.9864 18.232C58.9224 18.1573 58.8904 18.0667 58.8904 17.96V17.32C58.8904 17.2773 58.901 17.2133 58.9224 17.128C58.9544 17.032 59.0024 16.936 59.0664 16.84L63.8664 10.072C63.9944 9.89067 64.1917 9.8 64.4584 9.8H65.6104C65.717 9.8 65.8024 9.83733 65.8664 9.912C65.941 9.976 65.9784 10.0613 65.9784 10.168V16.936H67.4184C67.5357 16.936 67.6264 16.9733 67.6904 17.048C67.765 17.112 67.8024 17.1973 67.8024 17.304V17.96C67.8024 18.0667 67.765 18.1573 67.6904 18.232C67.6264 18.296 67.541 18.328 67.4344 18.328H65.9784V20.632C65.9784 20.7387 65.941 20.8293 65.8664 20.904C65.8024 20.968 65.717 21 65.6104 21H64.8104ZM60.6024 16.968H64.4584V11.48L60.6024 16.968Z" fill="#272722"/>
<path d="M16.416 20C16.3093 20 16.2187 19.968 16.144 19.904C16.08 19.8293 16.048 19.7387 16.048 19.632V10.672L13.392 12.72C13.3067 12.784 13.216 12.8107 13.12 12.8C13.024 12.7893 12.944 12.7413 12.88 12.656L12.464 12.128C12.4 12.032 12.3733 11.936 12.384 11.84C12.4053 11.744 12.4587 11.664 12.544 11.6L16.032 8.912C16.1067 8.85867 16.176 8.82667 16.24 8.816C16.304 8.80533 16.3733 8.8 16.448 8.8H17.264C17.3707 8.8 17.456 8.83733 17.52 8.912C17.584 8.976 17.616 9.06133 17.616 9.168V19.632C17.616 19.7387 17.584 19.8293 17.52 19.904C17.456 19.968 17.3707 20 17.264 20H16.416ZM19.9958 20C19.8891 20 19.7984 19.968 19.7238 19.904C19.6598 19.8293 19.6278 19.7387 19.6278 19.632V19.12C19.6278 19.024 19.6544 18.9173 19.7078 18.8C19.7611 18.6827 19.8678 18.5547 20.0278 18.416L23.4198 15.024C23.9638 14.5653 24.3904 14.176 24.6998 13.856C25.0198 13.5253 25.2438 13.2107 25.3718 12.912C25.5104 12.6133 25.5798 12.304 25.5798 11.984C25.5798 11.376 25.4091 10.896 25.0678 10.544C24.7264 10.1813 24.2198 10 23.5477 10C23.1211 10 22.7531 10.0907 22.4438 10.272C22.1344 10.4427 21.8891 10.6827 21.7078 10.992C21.5371 11.2907 21.4251 11.632 21.3718 12.016C21.3504 12.1547 21.2918 12.2507 21.1957 12.304C21.1104 12.3573 21.0304 12.384 20.9557 12.384H20.1238C20.0278 12.384 19.9478 12.3573 19.8838 12.304C19.8198 12.24 19.7878 12.1653 19.7878 12.08C19.7984 11.6747 19.8838 11.2693 20.0438 10.864C20.2038 10.448 20.4384 10.0747 20.7478 9.744C21.0678 9.41333 21.4571 9.14667 21.9158 8.944C22.3851 8.73067 22.9291 8.624 23.5477 8.624C24.3904 8.624 25.0784 8.77867 25.6118 9.088C26.1558 9.38667 26.5558 9.78667 26.8118 10.288C27.0678 10.7893 27.1958 11.3387 27.1958 11.936C27.1958 12.4053 27.1158 12.8373 26.9558 13.232C26.7958 13.616 26.5611 13.9947 26.2518 14.368C25.9531 14.7307 25.5798 15.104 25.1318 15.488L22.0598 18.608H27.0518C27.1691 18.608 27.2598 18.64 27.3238 18.704C27.3984 18.768 27.4358 18.8587 27.4358 18.976V19.632C27.4358 19.7387 27.3984 19.8293 27.3238 19.904C27.2598 19.968 27.1691 20 27.0518 20H19.9958Z" fill="#E9EEFA"/>
</g>
<defs>
<clipPath id="clip0_106_1630">
<rect width="80" height="30" fill="white"/>
</clipPath>
</defs>
</svg>
