<svg width="80" height="30" viewBox="0 0 80 30" fill="none" xmlns="http://www.w3.org/2000/svg">
<rect width="80" height="30" rx="5" fill="#FEEDE9"/>
<path d="M0 5C0 2.23858 2.23858 0 5 0H40V30H5C2.23858 30 0 27.7614 0 25V5Z" fill="#1F4DC5"/>
<path d="M15.424 20.16C14.0267 20.16 12.944 19.7973 12.176 19.072C11.4187 18.336 11.0187 17.232 10.976 15.76C10.9653 15.44 10.96 14.9867 10.96 14.4C10.96 13.8133 10.9653 13.3653 10.976 13.056C11.0187 11.616 11.4347 10.5227 12.224 9.776C13.0133 9.01867 14.08 8.64 15.424 8.64C16.7573 8.64 17.8187 9.01867 18.608 9.776C19.3973 10.5227 19.8133 11.616 19.856 13.056C19.8773 13.6747 19.888 14.1227 19.888 14.4C19.888 14.6667 19.8773 15.12 19.856 15.76C19.8133 17.232 19.408 18.336 18.64 19.072C17.8827 19.7973 16.8107 20.16 15.424 20.16ZM15.424 18.8C16.2667 18.8 16.9387 18.544 17.44 18.032C17.9413 17.52 18.2133 16.736 18.256 15.68C18.2773 15.04 18.288 14.6133 18.288 14.4C18.288 14.1653 18.2773 13.7387 18.256 13.12C18.2133 12.064 17.936 11.28 17.424 10.768C16.9227 10.256 16.256 10 15.424 10C14.5813 10 13.904 10.256 13.392 10.768C12.8907 11.28 12.6187 12.064 12.576 13.12C12.5653 13.4293 12.56 13.856 12.56 14.4C12.56 14.9333 12.5653 15.36 12.576 15.68C12.6187 16.736 12.8907 17.52 13.392 18.032C13.904 18.544 14.5813 18.8 15.424 18.8ZM22.3801 20C22.2735 20 22.1828 19.968 22.1081 19.904C22.0441 19.8293 22.0121 19.7387 22.0121 19.632V12.048C22.0121 11.9413 22.0441 11.856 22.1081 11.792C22.1828 11.7173 22.2735 11.68 22.3801 11.68H23.1321C23.2388 11.68 23.3241 11.7173 23.3881 11.792C23.4628 11.856 23.5001 11.9413 23.5001 12.048V12.752C23.8095 12.3573 24.1721 12.0533 24.5881 11.84C25.0148 11.6267 25.5428 11.52 26.1721 11.52C27.1961 11.52 27.9908 11.8507 28.5561 12.512C29.1321 13.1627 29.4201 14.032 29.4201 15.12V19.632C29.4201 19.7387 29.3828 19.8293 29.3081 19.904C29.2441 19.968 29.1588 20 29.0521 20H28.2521C28.1455 20 28.0548 19.968 27.9801 19.904C27.9161 19.8293 27.8841 19.7387 27.8841 19.632V15.2C27.8841 14.4427 27.6975 13.856 27.3241 13.44C26.9615 13.024 26.4335 12.816 25.7401 12.816C25.0681 12.816 24.5348 13.0293 24.1401 13.456C23.7455 13.872 23.5481 14.4533 23.5481 15.2V19.632C23.5481 19.7387 23.5108 19.8293 23.4361 19.904C23.3721 19.968 23.2868 20 23.1801 20H22.3801Z" fill="#E9EEFA"/>
<path d="M54.424 20.16C53.0267 20.16 51.944 19.7973 51.176 19.072C50.4187 18.336 50.0187 17.232 49.976 15.76C49.9653 15.44 49.96 14.9867 49.96 14.4C49.96 13.8133 49.9653 13.3653 49.976 13.056C50.0187 11.616 50.4347 10.5227 51.224 9.776C52.0133 9.01867 53.08 8.64 54.424 8.64C55.7573 8.64 56.8187 9.01867 57.608 9.776C58.3973 10.5227 58.8133 11.616 58.856 13.056C58.8773 13.6747 58.888 14.1227 58.888 14.4C58.888 14.6667 58.8773 15.12 58.856 15.76C58.8133 17.232 58.408 18.336 57.64 19.072C56.8827 19.7973 55.8107 20.16 54.424 20.16ZM54.424 18.8C55.2667 18.8 55.9387 18.544 56.44 18.032C56.9413 17.52 57.2133 16.736 57.256 15.68C57.2773 15.04 57.288 14.6133 57.288 14.4C57.288 14.1653 57.2773 13.7387 57.256 13.12C57.2133 12.064 56.936 11.28 56.424 10.768C55.9227 10.256 55.256 10 54.424 10C53.5813 10 52.904 10.256 52.392 10.768C51.8907 11.28 51.6187 12.064 51.576 13.12C51.5653 13.4293 51.56 13.856 51.56 14.4C51.56 14.9333 51.5653 15.36 51.576 15.68C51.6187 16.736 51.8907 17.52 52.392 18.032C52.904 18.544 53.5813 18.8 54.424 18.8ZM62.2121 20C62.1055 20 62.0148 19.968 61.9401 19.904C61.8761 19.8293 61.8441 19.7387 61.8441 19.632V12.96H60.4841C60.3775 12.96 60.2868 12.928 60.2121 12.864C60.1481 12.7893 60.1161 12.6987 60.1161 12.592V12.048C60.1161 11.9413 60.1481 11.856 60.2121 11.792C60.2868 11.7173 60.3775 11.68 60.4841 11.68H61.8441V10.88C61.8441 9.06667 62.7615 8.16 64.5961 8.16H65.5561C65.6628 8.16 65.7481 8.19733 65.8121 8.272C65.8868 8.336 65.9241 8.42133 65.9241 8.528V9.072C65.9241 9.17867 65.8868 9.26933 65.8121 9.344C65.7481 9.408 65.6628 9.44 65.5561 9.44H64.6281C64.1481 9.44 63.8121 9.568 63.6201 9.824C63.4281 10.0693 63.3321 10.448 63.3321 10.96V11.68H66.7561V10.88C66.7561 10.0053 66.9695 9.33333 67.3961 8.864C67.8335 8.39467 68.5321 8.16 69.4921 8.16H70.4521C70.5588 8.16 70.6441 8.19733 70.7081 8.272C70.7828 8.336 70.8201 8.42133 70.8201 8.528V9.072C70.8201 9.17867 70.7828 9.26933 70.7081 9.344C70.6441 9.408 70.5588 9.44 70.4521 9.44H69.5401C69.0495 9.44 68.7081 9.568 68.5161 9.824C68.3241 10.0693 68.2281 10.448 68.2281 10.96V11.68H70.2921C70.3988 11.68 70.4841 11.7173 70.5481 11.792C70.6228 11.856 70.6601 11.9413 70.6601 12.048V12.592C70.6601 12.6987 70.6228 12.7893 70.5481 12.864C70.4841 12.928 70.3988 12.96 70.2921 12.96H68.2281V19.632C68.2281 19.7387 68.1908 19.8293 68.1161 19.904C68.0521 19.968 67.9668 20 67.8601 20H67.1241C67.0175 20 66.9268 19.968 66.8521 19.904C66.7881 19.8293 66.7561 19.7387 66.7561 19.632V12.96H63.3321V19.632C63.3321 19.7387 63.2948 19.8293 63.2201 19.904C63.1561 19.968 63.0708 20 62.9641 20H62.2121Z" fill="#272722"/>
</svg>
