<svg width="20" height="20" viewBox="0 0 20 20" fill="none" xmlns="http://www.w3.org/2000/svg">
<g clip-path="url(#clip0_106_1212)">
<path d="M19.2399 15.3716C17.459 18.1496 14.3469 19.9923 10.804 19.9999C5.31517 20.0118 0.808329 15.572 0.741962 10.0836C0.67954 4.91945 4.5163 0.638319 9.49302 0.00105317C9.59938 -0.0125796 9.66868 0.1091 9.60403 0.194647C8.40407 1.78297 7.69267 3.76051 7.69267 5.90469C7.69267 11.1415 11.9378 15.3866 17.1746 15.3866C17.8388 15.3866 18.4868 15.3185 19.1124 15.1884C19.2174 15.1666 19.2977 15.2813 19.2399 15.3716Z" fill="url(#paint0_linear_106_1212)"/>
<path d="M19.1125 15.1883C19.2173 15.1665 19.2976 15.281 19.2398 15.3711C17.4552 18.1552 14.3339 20 10.7817 20C5.23621 20 0.741211 15.5046 0.741211 9.9595C0.741211 7.74044 1.4609 5.68973 2.68008 4.02747C2.40328 4.93547 2.25191 5.89809 2.24586 6.8954C2.21199 12.4826 6.69934 16.9983 12.2866 16.9981C14.3113 16.998 16.1959 16.3988 17.7724 15.3676C18.2288 15.3395 18.6761 15.279 19.1125 15.1883Z" fill="#204EC7"/>
</g>
<defs>
<linearGradient id="paint0_linear_106_1212" x1="10.0002" y1="0" x2="10.0002" y2="19.9999" gradientUnits="userSpaceOnUse">
<stop stop-color="#204EC7"/>
<stop offset="1" stop-color="#C4D0F1"/>
</linearGradient>
<clipPath id="clip0_106_1212">
<rect width="20" height="20" fill="white"/>
</clipPath>
</defs>
</svg>
