<svg width="24" height="26" viewBox="0 0 24 26" fill="none" xmlns="http://www.w3.org/2000/svg">
<path d="M5.78066 22.8835C3.61627 22.8835 1.83545 21.0078 1.83545 18.7281V4.15538C1.83545 1.87569 3.61627 0 5.78066 0H7.15052C8.41079 0 9.53408 0.63485 10.2738 1.61598C10.3012 1.61598 10.3012 1.61598 10.3286 1.61598C10.7944 1.61598 11.2601 1.87569 11.4793 2.30855L12.219 3.66482C12.3012 3.63596 12.3834 3.6071 12.493 3.57825V2.01998C12.493 1.24084 13.0957 0.605993 13.8355 0.605993C14.5752 0.605993 15.1779 1.24084 15.1779 2.01998V3.57825C15.2601 3.6071 15.3423 3.63596 15.4519 3.66482L16.1642 2.30855C16.4108 1.87569 16.8492 1.61598 17.3149 1.61598C17.5615 1.61598 17.7807 1.6737 17.9724 1.81798C18.2738 2.01998 18.493 2.30855 18.6026 2.68368C18.6848 3.05882 18.6574 3.43396 18.4656 3.75139L17.7259 5.10766C17.7807 5.16537 17.8629 5.25194 17.9176 5.30966L19.2053 4.53052C19.3971 4.41509 19.6437 4.32852 19.8629 4.32852C20.3286 4.32852 20.7944 4.58824 21.0135 5.02109C21.3697 5.68479 21.1505 6.5505 20.5204 6.95449L19.2327 7.73363C19.2601 7.8202 19.2875 7.90677 19.3149 8.0222H20.8218C21.5615 8.0222 22.1642 8.65705 22.1642 9.43618C22.1642 10.2153 21.5615 10.8502 20.8218 10.8502H19.3423C19.3149 10.9367 19.2875 11.0233 19.2601 11.1387L20.5478 11.9179C21.1779 12.293 21.3971 13.1587 21.0409 13.8513C20.7944 14.2841 20.356 14.5438 19.8902 14.5438C19.6437 14.5438 19.4245 14.4861 19.2327 14.3418L17.945 13.5627C17.8902 13.6204 17.8081 13.707 17.7533 13.7647L18.493 15.121C18.6848 15.4384 18.7122 15.8135 18.63 16.1887C18.5478 16.5638 18.3286 16.8524 17.9998 17.0544C17.8081 17.1698 17.5615 17.2564 17.3423 17.2564C16.8765 17.2564 16.4108 16.9967 16.1916 16.5638L15.4519 15.2075C15.3697 15.2364 15.2875 15.2653 15.1779 15.2941V16.8524C15.1779 17.6315 14.5752 18.2664 13.8355 18.2664C13.0957 18.2664 12.493 17.6315 12.493 16.8524V15.2941C12.4108 15.2653 12.3286 15.2364 12.219 15.2075L11.4793 16.5638C11.3697 16.737 11.2601 16.8812 11.0957 16.9967V18.7858C11.0957 21.0655 9.3149 22.9412 7.15052 22.9412H5.78066V22.8835Z" fill="white"/>
<path d="M20.822 9.03219H18.4933C18.4385 8.39734 18.3015 7.79134 18.0549 7.24306L20.0549 6.03108C20.2193 5.91565 20.2741 5.71365 20.1919 5.51165C20.0823 5.33851 19.8905 5.2808 19.6988 5.36737L17.6988 6.57936C17.37 6.05993 16.959 5.62708 16.4659 5.2808L17.6166 3.17425C17.7261 3.00111 17.644 2.77025 17.4796 2.65483C17.3152 2.5394 17.096 2.62597 16.9864 2.79911L15.8357 4.90566C15.3152 4.64595 14.7398 4.47281 14.1371 4.44395V2.01998C14.1371 1.81798 13.9727 1.64484 13.7809 1.64484C13.5892 1.64484 13.4248 1.81798 13.4248 2.01998V4.47281C12.822 4.53052 12.2467 4.67481 11.7261 4.93452L10.5755 2.82797C10.5207 2.65483 10.3015 2.59711 10.1371 2.68368C9.97272 2.79911 9.91793 3.00111 10.0001 3.20311L11.1508 5.30966C10.6577 5.65594 10.2467 6.08879 9.91793 6.60821L7.91793 5.39623C7.75354 5.2808 7.53437 5.36737 7.42478 5.54051C7.31519 5.71365 7.39738 5.94451 7.56176 6.05993L9.56176 7.27192C9.31519 7.8202 9.1508 8.42619 9.12341 9.06104H6.79464C6.60286 9.06104 6.43848 9.23418 6.43848 9.43618C6.43848 9.63818 6.60286 9.81132 6.79464 9.81132H9.12341C9.1782 10.4462 9.31519 11.0522 9.56176 11.6004L7.56176 12.8124C7.39738 12.9279 7.34259 13.1299 7.42478 13.3319C7.53437 13.505 7.72615 13.5627 7.91793 13.4761L9.91793 12.2642C10.2467 12.7836 10.6577 13.2164 11.1508 13.5627L10.0001 15.6693C9.89053 15.8424 9.97272 16.0733 10.1371 16.1887C10.3015 16.3041 10.5207 16.2175 10.6303 16.0444L11.7809 13.9378C12.3015 14.1976 12.8768 14.3707 13.4796 14.3996V16.8524C13.4796 17.0544 13.644 17.2275 13.8357 17.2275C14.0275 17.2275 14.1919 17.0544 14.1919 16.8524V14.3996C14.7946 14.3418 15.37 14.1976 15.8905 13.9378L17.0412 16.0444C17.1508 16.2175 17.3426 16.2752 17.5344 16.1887C17.6988 16.0733 17.7535 15.8713 17.6714 15.6693L16.5207 13.5627C17.0138 13.2164 17.4248 12.7836 17.7535 12.2642L19.7535 13.4761C19.9179 13.5916 20.1371 13.505 20.2467 13.3319C20.3563 13.1587 20.2741 12.9279 20.1097 12.8124L18.0549 11.5427C18.3015 10.9945 18.4659 10.3885 18.4933 9.75361H20.822C21.0138 9.75361 21.1782 9.58047 21.1782 9.37847C21.1782 9.20533 21.0138 9.03219 20.822 9.03219Z" fill="url(#paint0_linear_106_111)"/>
<path d="M13.8904 4.79023C14.2739 4.79023 14.6575 4.8768 15.0136 4.96337C15.3698 5.0788 15.6986 5.25194 15.9726 5.42508C16.5479 5.80022 16.9589 6.29078 17.2328 6.75249C17.5068 7.2142 17.6438 7.6182 17.6986 7.90676C17.726 8.05105 17.726 8.16648 17.7534 8.25305C17.7534 8.33962 17.7534 8.36847 17.7534 8.36847C17.7534 8.36847 17.7534 8.33962 17.726 8.25305C17.6986 8.16648 17.6712 8.07991 17.6164 7.93562C17.5342 7.67591 17.3424 7.30077 17.0684 6.89678C16.7671 6.49278 16.3561 6.08878 15.8082 5.77136C15.5342 5.62708 15.2328 5.48279 14.9041 5.39622C14.5753 5.30965 14.2191 5.25194 13.863 5.25194C13.5068 5.25194 13.1506 5.30965 12.8493 5.39622C12.5205 5.51165 12.2191 5.62708 11.9452 5.80022C11.3972 6.11764 10.9589 6.52164 10.6575 6.92563C10.3561 7.32963 10.1917 7.70477 10.1095 7.96448C10.0547 8.10876 10.0547 8.22419 10.0547 8.2819C10.0547 8.36847 10.0273 8.39733 10.0273 8.39733C10.0273 8.39733 10.0273 8.36847 10.0273 8.2819C10.0273 8.19533 10.0273 8.07991 10.0547 7.93562C10.0821 7.64705 10.2191 7.2142 10.4931 6.78135C10.7671 6.3485 11.178 5.85793 11.7534 5.48279C12.0273 5.28079 12.3561 5.13651 12.7123 5.02108C13.0958 4.84794 13.4794 4.79023 13.8904 4.79023Z" fill="white"/>
<path d="M6.82178 21.8446H6.10945C4.30123 21.8446 2.82178 20.2864 2.82178 18.3818V4.50168C2.82178 2.59713 4.30123 1.03886 6.10945 1.03886H6.82178C8.63 1.03886 10.1094 2.59713 10.1094 4.50168V18.3818C10.1094 20.2864 8.63 21.8446 6.82178 21.8446Z" fill="url(#paint1_linear_106_111)"/>
<path opacity="0.5" d="M9.01337 17.3718H3.91748V4.29969C3.91748 3.11656 4.82159 2.16429 5.94488 2.16429H7.01337C8.13666 2.16429 9.04077 3.11656 9.04077 4.29969V17.3718H9.01337Z" fill="url(#paint2_linear_106_111)"/>
<path d="M8.30138 7.87793C8.43836 7.87793 8.54795 7.76251 8.54795 7.61822C8.54795 7.47394 8.43836 7.35851 8.30138 7.35851H7.34247V6.05995H8.30138C8.43836 6.05995 8.54795 5.94453 8.54795 5.80024C8.54795 5.65596 8.43836 5.54053 8.30138 5.54053H7.34247V4.21312C7.34247 3.63598 6.90412 3.17427 6.35617 3.17427C5.80823 3.17427 5.36987 3.63598 5.36987 4.21312V5.54053H4.49316C4.35617 5.54053 4.24658 5.65596 4.24658 5.80024C4.24658 5.94453 4.35617 6.05995 4.49316 6.05995H5.36987V7.35851H4.49316C4.35617 7.35851 4.24658 7.47394 4.24658 7.61822C4.24658 7.76251 4.35617 7.87793 4.49316 7.87793H5.36987V9.17649H4.49316C4.35617 9.17649 4.24658 9.29192 4.24658 9.4362C4.24658 9.58049 4.35617 9.69591 4.49316 9.69591H5.36987V10.9945H4.49316C4.35617 10.9945 4.24658 11.1099 4.24658 11.2542C4.24658 11.3985 4.35617 11.5139 4.49316 11.5139H5.36987V12.8125H4.49316C4.35617 12.8125 4.24658 12.9279 4.24658 13.0722C4.24658 13.2164 4.35617 13.3319 4.49316 13.3319H5.36987V14.6304H4.49316C4.35617 14.6304 4.24658 14.7459 4.24658 14.8901C4.24658 15.0344 4.35617 15.1499 4.49316 15.1499H5.36987V16.5638C4.71234 16.939 4.30138 17.6315 4.30138 18.4395C4.30138 19.6227 5.20549 20.5749 6.32877 20.5749C7.45206 20.5749 8.35617 19.6227 8.35617 18.4395C8.35617 17.6893 7.97261 16.9967 7.36987 16.6215V15.1499H8.32877C8.46576 15.1499 8.57535 15.0344 8.57535 14.8901C8.57535 14.7459 8.46576 14.6304 8.32877 14.6304H7.36987V13.3319H8.32877C8.46576 13.3319 8.57535 13.2164 8.57535 13.0722C8.57535 12.9279 8.46576 12.8125 8.32877 12.8125H7.36987V11.5139H8.32877C8.46576 11.5139 8.57535 11.3985 8.57535 11.2542C8.57535 11.1099 8.46576 10.9945 8.32877 10.9945H7.36987V9.69591H8.32877C8.46576 9.69591 8.57535 9.58049 8.57535 9.4362C8.57535 9.29192 8.46576 9.17649 8.32877 9.17649H7.36987V7.87793H8.30138Z" fill="url(#paint3_linear_106_111)"/>
<path d="M6.87657 16.939V7.5605C6.5752 7.5605 6.21904 7.5605 5.89027 7.5605V16.8813C5.26013 17.0833 4.82178 17.6892 4.82178 18.4107C4.82178 19.3052 5.50671 19.9978 6.32863 19.9978C7.17794 19.9978 7.83548 19.2764 7.83548 18.4107C7.86287 17.747 7.45191 17.1698 6.87657 16.939Z" fill="url(#paint4_linear_106_111)"/>
<path d="M6.87644 4.18425C6.87644 3.89568 6.65726 3.66482 6.38329 3.66482C6.10931 3.66482 5.89014 3.89568 5.89014 4.18425V7.56049C6.2189 7.56049 6.57507 7.56049 6.87644 7.56049V4.18425Z" fill="white"/>
<path opacity="0.6" d="M7.39703 18.0932C7.39703 18.6704 6.93127 19.1609 6.38333 19.1609C5.83538 19.1609 5.36963 18.6704 5.36963 18.0932C5.36963 17.5161 5.83538 17.0255 6.38333 17.0255C6.95867 17.0255 7.39703 17.5161 7.39703 18.0932Z" fill="url(#paint5_linear_106_111)"/>
<path opacity="0.6" d="M6.62982 7.76249H6.16406V16.6504H6.62982V7.76249Z" fill="url(#paint6_linear_106_111)"/>
<path opacity="0.5" d="M6.46553 21.8446C6.10936 21.8446 5.7532 21.8446 5.36964 21.7869C5.01347 21.7292 4.65731 21.6138 4.35594 21.4118C4.05457 21.2386 3.80799 21.0078 3.61621 20.7769C3.42443 20.5461 3.26005 20.3152 3.15046 20.0555C2.93128 19.5938 2.84909 19.161 2.84909 18.8724C2.82169 18.7281 2.84909 18.6127 2.84909 18.555C2.84909 18.4684 2.84909 18.4395 2.84909 18.4395C2.84909 18.4395 2.84909 18.4684 2.87649 18.555C2.87649 18.6415 2.90389 18.7281 2.93128 18.8724C2.98608 19.161 3.09567 19.5361 3.34224 19.9689C3.45183 20.1709 3.64361 20.3729 3.83539 20.5749C4.02717 20.7769 4.27375 20.9501 4.54772 21.0944C4.82169 21.2386 5.12306 21.3252 5.45183 21.3829C5.7532 21.4118 6.13676 21.4118 6.49293 21.4118C6.84909 21.4118 7.23265 21.4406 7.53402 21.3829C7.86279 21.3541 8.16416 21.2386 8.43813 21.0944C8.7121 20.9501 8.93128 20.7769 9.15046 20.5749C9.34224 20.3729 9.50663 20.1709 9.64361 19.9689C9.89019 19.5649 10.0272 19.161 10.0546 18.8724C10.082 18.7281 10.082 18.6127 10.1094 18.555C10.1094 18.4684 10.1368 18.4395 10.1368 18.4395C10.1368 18.4395 10.1368 18.4684 10.1368 18.555C10.1368 18.6415 10.1368 18.7281 10.1368 18.8724C10.1094 19.161 10.0546 19.5938 9.83539 20.0555C9.7258 20.2864 9.56142 20.5172 9.36964 20.7769C9.17786 21.0078 8.93128 21.2098 8.62991 21.4118C8.32854 21.5849 7.99978 21.7292 7.61621 21.7869C7.17786 21.8446 6.82169 21.8446 6.46553 21.8446Z" fill="#56BEFF"/>
<path d="M6.46543 2.13543C6.712 2.13543 6.95858 2.13543 7.17775 2.13543C7.42433 2.13543 7.6709 2.19314 7.89008 2.30857C8.32844 2.51057 8.62981 2.85685 8.79419 3.17427C8.95858 3.4917 9.01337 3.78027 9.01337 3.98226C9.01337 4.06883 9.01337 4.1554 9.01337 4.21312C9.01337 4.27083 9.01337 4.29969 9.01337 4.29969C9.01337 4.29969 9.01337 4.27083 9.01337 4.21312C9.01337 4.1554 8.98597 4.09769 8.95858 4.01112C8.90378 3.83798 8.82159 3.57827 8.62981 3.31856C8.43803 3.05884 8.16406 2.82799 7.78049 2.68371C7.58871 2.59714 7.39693 2.56828 7.17775 2.56828C6.93118 2.56828 6.712 2.56828 6.46543 2.56828C6.21885 2.56828 5.97227 2.56828 5.7531 2.56828C5.53392 2.56828 5.34214 2.59714 5.15036 2.65485C4.7668 2.77028 4.49282 3.02999 4.30104 3.2897C4.10926 3.54941 4.02707 3.80912 3.97227 3.98226C3.94488 4.06883 3.94488 4.1554 3.91748 4.18426C3.91748 4.24197 3.91748 4.27083 3.91748 4.27083C3.91748 4.27083 3.91748 4.24197 3.91748 4.18426C3.91748 4.12655 3.91748 4.06883 3.91748 3.95341C3.91748 3.75141 3.97228 3.46284 4.13666 3.14542C4.30104 2.82799 4.60241 2.48171 5.04077 2.27971C5.23255 2.222 5.47912 2.16428 5.7531 2.13543C5.97227 2.13543 6.21885 2.13543 6.46543 2.13543Z" fill="white"/>
<defs>
<linearGradient id="paint0_linear_106_111" x1="13.8201" y1="17.1546" x2="13.8201" y2="1.65843" gradientUnits="userSpaceOnUse">
<stop offset="0.0588235" stop-color="#FF9D00"/>
<stop offset="0.2957" stop-color="#FFA400"/>
<stop offset="0.6377" stop-color="#FFB700"/>
<stop offset="0.6952" stop-color="#FFBB00"/>
</linearGradient>
<linearGradient id="paint1_linear_106_111" x1="1.87854" y1="3.08034" x2="11.7809" y2="19.3643" gradientUnits="userSpaceOnUse">
<stop stop-color="#C2E8FF"/>
<stop offset="1" stop-color="#38B3FF"/>
</linearGradient>
<linearGradient id="paint2_linear_106_111" x1="6.46332" y1="2.17782" x2="6.46332" y2="17.3711" gradientUnits="userSpaceOnUse">
<stop offset="0.0534759" stop-color="white"/>
<stop offset="0.2359" stop-color="#C0C0C0"/>
<stop offset="0.5477" stop-color="#5A5A5A"/>
<stop offset="0.7645" stop-color="#191919"/>
<stop offset="0.8663"/>
</linearGradient>
<linearGradient id="paint3_linear_106_111" x1="2.5759" y1="5.30555" x2="10.5064" y2="18.3468" gradientUnits="userSpaceOnUse">
<stop stop-color="#7ACDFF"/>
<stop offset="0.1573" stop-color="#74C8FC"/>
<stop offset="0.3736" stop-color="#62BAF2"/>
<stop offset="0.6239" stop-color="#45A2E3"/>
<stop offset="0.898" stop-color="#1D82CD"/>
<stop offset="1" stop-color="#0C74C4"/>
</linearGradient>
<linearGradient id="paint4_linear_106_111" x1="4.8198" y1="13.7999" x2="7.86079" y2="13.7999" gradientUnits="userSpaceOnUse">
<stop offset="0.1337" stop-color="#EE1F00"/>
<stop offset="0.3007" stop-color="#F12D00"/>
<stop offset="0.6161" stop-color="#F75200"/>
<stop offset="0.9144" stop-color="#FF7B00"/>
</linearGradient>
<linearGradient id="paint5_linear_106_111" x1="6.39678" y1="17.0247" x2="6.39678" y2="19.1566" gradientUnits="userSpaceOnUse">
<stop offset="0.0534759" stop-color="#FFFF5F"/>
<stop offset="0.2359" stop-color="#C0C048"/>
<stop offset="0.5477" stop-color="#5A5A21"/>
<stop offset="0.7645" stop-color="#191909"/>
<stop offset="0.8663"/>
</linearGradient>
<linearGradient id="paint6_linear_106_111" x1="6.39656" y1="7.76162" x2="6.39656" y2="16.6351" gradientUnits="userSpaceOnUse">
<stop offset="0.0534759" stop-color="#FFFF5F"/>
<stop offset="0.2359" stop-color="#C0C048"/>
<stop offset="0.5477" stop-color="#5A5A21"/>
<stop offset="0.7645" stop-color="#191909"/>
<stop offset="0.8663"/>
</linearGradient>
</defs>
</svg>
