<svg width="80" height="30" viewBox="0 0 80 30" fill="none" xmlns="http://www.w3.org/2000/svg">
<g clip-path="url(#clip0_106_1636)">
<rect width="80" height="30" rx="5" fill="#FEEDE9"/>
<path d="M0 5C0 2.23858 2.23858 0 5 0H40V30H5C2.23858 30 0 27.7614 0 25V5Z" fill="#1F4DC5"/>
<path d="M56.76 20C56.6533 20 56.5627 19.968 56.488 19.904C56.424 19.8293 56.392 19.7387 56.392 19.632V9.184C56.392 9.06667 56.424 8.976 56.488 8.912C56.5627 8.83733 56.6533 8.8 56.76 8.8H63.288C63.4053 8.8 63.496 8.83733 63.56 8.912C63.6347 8.976 63.672 9.06667 63.672 9.184V9.824C63.672 9.93067 63.6347 10.0213 63.56 10.096C63.496 10.16 63.4053 10.192 63.288 10.192H57.944V13.92H62.968C63.0853 13.92 63.176 13.9573 63.24 14.032C63.3147 14.096 63.352 14.1867 63.352 14.304V14.944C63.352 15.0507 63.3147 15.1413 63.24 15.216C63.1653 15.28 63.0747 15.312 62.968 15.312H57.944V19.632C57.944 19.7387 57.9067 19.8293 57.832 19.904C57.7573 19.968 57.6667 20 57.56 20H56.76Z" fill="#272722"/>
<path d="M20.424 20.16C18.9947 20.16 17.9067 19.776 17.16 19.008C16.424 18.24 16.0293 17.1787 15.976 15.824C15.9653 15.536 15.96 15.0667 15.96 14.416C15.96 13.7547 15.9653 13.2747 15.976 12.976C16.0293 11.632 16.4293 10.576 17.176 9.808C17.9227 9.02933 19.0053 8.64 20.424 8.64C21.3733 8.64 22.1787 8.81067 22.84 9.152C23.5013 9.48267 24.0027 9.92 24.344 10.464C24.6853 11.008 24.872 11.5893 24.904 12.208V12.24C24.904 12.3253 24.8667 12.4 24.792 12.464C24.728 12.5173 24.6533 12.544 24.568 12.544H23.688C23.4747 12.544 23.3413 12.4213 23.288 12.176C23.1067 11.376 22.7813 10.816 22.312 10.496C21.8427 10.1653 21.2133 10 20.424 10C18.5893 10 17.64 11.0187 17.576 13.056C17.5653 13.344 17.56 13.7867 17.56 14.384C17.56 14.9813 17.5653 15.4347 17.576 15.744C17.64 17.7813 18.5893 18.8 20.424 18.8C21.2133 18.8 21.8427 18.64 22.312 18.32C22.792 17.9893 23.1173 17.424 23.288 16.624C23.32 16.4853 23.368 16.3893 23.432 16.336C23.496 16.2827 23.5813 16.256 23.688 16.256H24.568C24.664 16.256 24.744 16.288 24.808 16.352C24.8827 16.4053 24.9147 16.48 24.904 16.576C24.872 17.2053 24.6853 17.792 24.344 18.336C24.0027 18.88 23.5013 19.3227 22.84 19.664C22.1787 19.9947 21.3733 20.16 20.424 20.16Z" fill="#E9EEFA"/>
</g>
<defs>
<clipPath id="clip0_106_1636">
<rect width="80" height="30" fill="white"/>
</clipPath>
</defs>
</svg>
