<svg width="25" height="16" viewBox="0 0 25 16" fill="none" xmlns="http://www.w3.org/2000/svg">
<path d="M2.29541 8.35106C3.76995 11.9089 9.14865 13.1747 12.6339 11.6695C15.4154 10.4721 16.7224 7.18791 15.5495 4.34845C14.6111 2.07347 12.0307 0.995842 9.80213 1.97084C8.02599 2.72346 7.18818 4.8274 7.94221 6.65765C6.93684 4.24582 8.04274 1.47479 10.4054 0.465582C13.3544 -0.800199 16.7392 0.602423 17.9791 3.61293C19.5207 7.35896 17.8115 11.6866 14.1252 13.2773C9.51728 15.2444 4.22236 13.055 2.29541 8.35106Z" fill="#FFFEFE"/>
<path d="M6.40096 12.0971C8.61276 13.4826 11.411 13.7905 13.9747 12.6958C15.6 11.9944 16.8568 10.6945 17.5102 9.03525C18.1637 7.37605 18.1637 5.5458 17.4767 3.8866C16.3541 1.18399 13.2877 -0.0988964 10.6402 1.04715C10.1878 1.23531 9.76893 1.52609 9.41705 1.85109C9.09869 2.03925 8.81384 2.26161 8.56249 2.51819C9.03166 1.71425 9.73542 1.09846 10.59 0.722151C13.3882 -0.47521 16.6054 0.858992 17.7783 3.71555C18.4989 5.46028 18.5156 7.37605 17.8119 9.13788C17.1416 10.8997 15.8179 12.2681 14.1088 13.0036C10.9083 14.3721 7.35606 13.6536 4.90967 11.4642C5.37884 11.7208 5.88152 11.926 6.40096 12.0971Z" fill="url(#paint0_radial_54_8679)"/>
<path d="M15.7173 13.226C16.2032 12.0458 17.9961 11.6181 19.1523 12.1313C20.0739 12.5247 20.5095 13.6194 20.1241 14.5602C19.8058 15.3128 18.9512 15.6721 18.2139 15.3471C17.6275 15.0905 17.3426 14.3892 17.594 13.7905C17.2588 14.5944 17.6275 15.501 18.415 15.8431C19.3869 16.2707 20.5263 15.7918 20.9284 14.7997C21.4479 13.551 20.8782 12.1142 19.655 11.5839C18.1302 10.9339 16.3708 11.6695 15.7173 13.226Z" fill="#FBFDFF"/>
<path d="M8.86377 10.2326C10.6064 11.0708 13.1868 9.73659 14.0079 7.95765C14.6614 6.53792 14.0582 4.84451 12.6674 4.17741C11.5447 3.64715 10.221 4.1432 9.70157 5.27214C9.28267 6.17872 9.66806 7.27345 10.5561 7.68397C11.2766 8.02607 12.1144 7.71818 12.4496 6.98266C12.7177 6.40108 12.4831 5.39188 11.9134 5.1182C12.6004 5.44319 12.902 6.28135 12.5836 6.98266C12.1815 7.85502 11.1594 8.24844 10.288 7.83792C9.21565 7.32476 8.74648 6.00766 9.24916 4.91293C9.88589 3.54452 11.4777 2.94584 12.835 3.59584C14.5106 4.39978 15.2478 6.4524 14.4603 8.16291C13.4717 10.3011 10.9583 11.2418 8.86377 10.2326Z" fill="url(#paint1_radial_54_8679)"/>
<path d="M17.9126 12.5418C18.4991 12.2681 19.3704 12.7129 19.6385 13.3115C19.8563 13.7905 19.6552 14.355 19.1861 14.5773C18.8174 14.7484 18.365 14.5944 18.1807 14.201C18.0466 13.8931 18.1639 13.5339 18.4656 13.38C18.7001 13.2602 18.985 13.3629 19.1023 13.6194C19.1861 13.8076 19.119 14.1497 18.918 14.2523C19.1526 14.1497 19.2531 13.8589 19.1358 13.6194C19.0017 13.3287 18.6499 13.1918 18.365 13.3287C17.9964 13.4997 17.8456 13.9444 18.0131 14.3208C18.231 14.7826 18.7672 14.9879 19.2196 14.7655C19.7893 14.4918 20.0239 13.8076 19.7725 13.226C19.4542 12.5076 18.6164 12.1997 17.9126 12.5418Z" fill="url(#paint2_radial_54_8679)"/>
<path d="M0 12.576C1.29022 11.4471 4.90953 11.8576 6.03219 13.1747C4.44036 11.2931 1.82641 10.951 0 12.576Z" fill="url(#paint3_radial_54_8679)"/>
<path d="M2.69775 13.226C3.46853 12.5418 5.63007 12.7984 6.30031 13.5852C5.34522 12.4734 3.7869 12.2681 2.69775 13.226Z" fill="url(#paint4_radial_54_8679)"/>
<path d="M25.0001 5.75107C18.6328 4.94713 19.9397 8.84711 19.9397 8.84711C21.4143 7.34185 23.1904 6.8458 23.1904 6.8458C21.1629 7.87211 19.4706 9.65105 19.4706 9.65105L19.2192 10.5918L20.3754 9.27474C22.4699 12.1655 25.0001 5.75107 25.0001 5.75107Z" fill="#94C63D"/>
<path d="M24.5809 6.24711C24.6312 6.12738 24.6815 6.02474 24.7317 5.92211C22.587 5.68264 21.0957 5.99053 20.4422 6.82869C20.1238 7.23921 20.04 7.70105 20.04 8.09447C20.04 8.14578 20.04 8.1971 20.04 8.24842C20.0568 7.90631 20.1741 7.51289 20.4422 7.17079C21.0957 6.34974 22.5199 6.04185 24.5809 6.24711Z" fill="url(#paint5_linear_54_8679)"/>
<path d="M25.0001 5.75107C18.6328 4.94713 19.9397 8.84711 19.9397 8.84711C21.4143 7.34185 23.1904 6.8458 23.1904 6.8458C21.1629 7.87211 19.4706 9.65105 19.4706 9.65105L19.2192 10.5918L20.3754 9.27474C22.4699 12.1655 25.0001 5.75107 25.0001 5.75107Z" fill="#94C63D"/>
<path d="M24.5809 6.24711C24.6312 6.12738 24.6815 6.02474 24.7317 5.92211C22.587 5.68264 21.0957 5.99053 20.4422 6.82869C20.1238 7.23921 20.04 7.70105 20.04 8.09447C20.04 8.14578 20.04 8.1971 20.04 8.24842C20.0568 7.90631 20.1741 7.51289 20.4422 7.17079C21.0957 6.34974 22.5199 6.04185 24.5809 6.24711Z" fill="url(#paint6_linear_54_8679)"/>
<path d="M7.79134 8.04316C7.79134 8.04316 7.97566 7.78658 8.4951 7.82079C8.4951 7.82079 8.29403 7.63263 8.47834 7.5129C8.47834 7.5129 7.23839 8.07737 6.61842 8.74447C6.61842 8.74447 7.18812 8.00895 7.64054 7.75237C7.64054 7.75237 5.94817 6.70896 5.479 10.0616C5.51252 10.0445 8.46159 9.20631 7.79134 8.04316Z" fill="#94C63D"/>
<path d="M6.70232 8.11159C6.83637 8.04317 6.97042 8.02607 7.10447 8.02607C7.18825 7.94054 7.27203 7.85501 7.37256 7.78659C7.205 7.73528 6.97042 7.71817 6.71908 7.83791C6.24991 8.06028 5.91479 8.76159 5.73047 9.83921C5.74722 9.83921 5.76398 9.82211 5.78074 9.82211C5.9483 8.91553 6.26666 8.31685 6.70232 8.11159Z" fill="url(#paint7_linear_54_8679)"/>
<path d="M7.79134 8.04316C7.79134 8.04316 7.97566 7.78658 8.4951 7.82079C8.4951 7.82079 8.29403 7.63263 8.47834 7.5129C8.47834 7.5129 7.23839 8.07737 6.61842 8.74447C6.61842 8.74447 7.18812 8.00895 7.64054 7.75237C7.64054 7.75237 5.94817 6.70896 5.479 10.0616C5.51252 10.0445 8.46159 9.20631 7.79134 8.04316Z" fill="#94C63D"/>
<path d="M6.70232 8.11159C6.83637 8.04317 6.97042 8.02607 7.10447 8.02607C7.18825 7.94054 7.27203 7.85501 7.37256 7.78659C7.205 7.73528 6.97042 7.71817 6.71908 7.83791C6.24991 8.06028 5.91479 8.76159 5.73047 9.83921C5.74722 9.83921 5.76398 9.82211 5.78074 9.82211C5.9483 8.91553 6.26666 8.31685 6.70232 8.11159Z" fill="url(#paint8_linear_54_8679)"/>
<defs>
<radialGradient id="paint0_radial_54_8679" cx="0" cy="0" r="1" gradientUnits="userSpaceOnUse" gradientTransform="translate(18.7525 6.13056) rotate(180) scale(13.3819 13.6607)">
<stop offset="0.005618" stop-color="#A9D1EF"/>
<stop offset="0.5393" stop-color="#1998D5"/>
<stop offset="1" stop-color="#0073BB"/>
</radialGradient>
<radialGradient id="paint1_radial_54_8679" cx="0" cy="0" r="1" gradientUnits="userSpaceOnUse" gradientTransform="translate(11.891 6.89916) rotate(180) scale(3.27856 3.34686)">
<stop offset="0.005618" stop-color="#A9D1EF"/>
<stop offset="0.5393" stop-color="#1998D5"/>
<stop offset="1" stop-color="#0073BB"/>
</radialGradient>
<radialGradient id="paint2_radial_54_8679" cx="0" cy="0" r="1" gradientUnits="userSpaceOnUse" gradientTransform="translate(18.8641 13.5945) rotate(180) scale(1.10401 1.127)">
<stop offset="0.005618" stop-color="#A9D1EF"/>
<stop offset="0.5393" stop-color="#1998D5"/>
<stop offset="1" stop-color="#0073BB"/>
</radialGradient>
<radialGradient id="paint3_radial_54_8679" cx="0" cy="0" r="1" gradientUnits="userSpaceOnUse" gradientTransform="translate(4.85359 14.7403) rotate(180) scale(2.62791 2.68266)">
<stop offset="0.005618" stop-color="#A9D1EF"/>
<stop offset="0.5393" stop-color="#1998D5"/>
<stop offset="1" stop-color="#0073BB"/>
</radialGradient>
<radialGradient id="paint4_radial_54_8679" cx="0" cy="0" r="1" gradientUnits="userSpaceOnUse" gradientTransform="translate(4.8536 14.7399) rotate(180) scale(2.62791 2.68265)">
<stop offset="0.005618" stop-color="#A9D1EF"/>
<stop offset="0.5393" stop-color="#1998D5"/>
<stop offset="1" stop-color="#0073BB"/>
</radialGradient>
<linearGradient id="paint5_linear_54_8679" x1="19.9998" y1="7.0348" x2="24.7034" y2="7.0348" gradientUnits="userSpaceOnUse">
<stop stop-color="#B7D333"/>
<stop offset="0.228" stop-color="#C5DB54"/>
<stop offset="0.7268" stop-color="#EAEFA7"/>
<stop offset="1" stop-color="#FFFBD7"/>
</linearGradient>
<linearGradient id="paint6_linear_54_8679" x1="19.9998" y1="7.0348" x2="24.7034" y2="7.0348" gradientUnits="userSpaceOnUse">
<stop stop-color="#B7D333"/>
<stop offset="0.3431" stop-color="#BDD754"/>
<stop offset="1" stop-color="#CBE19C"/>
</linearGradient>
<linearGradient id="paint7_linear_54_8679" x1="5.63262" y1="8.78967" x2="7.28399" y2="8.78967" gradientUnits="userSpaceOnUse">
<stop stop-color="#B7D333"/>
<stop offset="0.228" stop-color="#C5DB54"/>
<stop offset="0.7268" stop-color="#EAEFA7"/>
<stop offset="1" stop-color="#FFFBD7"/>
</linearGradient>
<linearGradient id="paint8_linear_54_8679" x1="5.63262" y1="8.78967" x2="7.28399" y2="8.78967" gradientUnits="userSpaceOnUse">
<stop stop-color="#B7D333"/>
<stop offset="0.3431" stop-color="#BDD754"/>
<stop offset="1" stop-color="#CBE19C"/>
</linearGradient>
</defs>
</svg>
