<svg width="80" height="30" viewBox="0 0 80 30" fill="none" xmlns="http://www.w3.org/2000/svg">
<rect width="80" height="30" rx="5" fill="#FEEDE9"/>
<path d="M40 0H75C77.7614 0 80 2.23858 80 5V25C80 27.7614 77.7614 30 75 30H40V0Z" fill="#1F4DC5"/>
<path d="M13.76 20C13.6533 20 13.5627 19.968 13.488 19.904C13.424 19.8293 13.392 19.7387 13.392 19.632V9.184C13.392 9.06667 13.424 8.976 13.488 8.912C13.5627 8.83733 13.6533 8.8 13.76 8.8H14.56C14.688 8.8 14.784 8.832 14.848 8.896C14.912 8.96 14.9493 9.01333 14.96 9.056L18.352 15.52L21.76 9.056C21.7813 9.01333 21.8187 8.96 21.872 8.896C21.936 8.832 22.032 8.8 22.16 8.8H22.944C23.0613 8.8 23.152 8.83733 23.216 8.912C23.2907 8.976 23.328 9.06667 23.328 9.184V19.632C23.328 19.7387 23.2907 19.8293 23.216 19.904C23.152 19.968 23.0613 20 22.944 20H22.16C22.0533 20 21.9627 19.968 21.888 19.904C21.824 19.8293 21.792 19.7387 21.792 19.632V11.76L19.12 16.976C19.0773 17.0827 19.0133 17.168 18.928 17.232C18.8427 17.2853 18.736 17.312 18.608 17.312H18.112C17.9733 17.312 17.8613 17.2853 17.776 17.232C17.7013 17.168 17.6373 17.0827 17.584 16.976L14.912 11.76V19.632C14.912 19.7387 14.8747 19.8293 14.8 19.904C14.736 19.968 14.6507 20 14.544 20H13.76ZM26.4151 20C26.3085 20 26.2178 19.968 26.1431 19.904C26.0791 19.8293 26.0471 19.7387 26.0471 19.632V12.048C26.0471 11.9413 26.0791 11.856 26.1431 11.792C26.2178 11.7173 26.3085 11.68 26.4151 11.68H27.1831C27.2898 11.68 27.3751 11.7173 27.4391 11.792C27.5031 11.856 27.5351 11.9413 27.5351 12.048V19.632C27.5351 19.7387 27.5031 19.8293 27.4391 19.904C27.3751 19.968 27.2898 20 27.1831 20H26.4151ZM26.2871 10.128C26.1805 10.128 26.0898 10.096 26.0151 10.032C25.9511 9.95733 25.9191 9.86667 25.9191 9.76V8.896C25.9191 8.78933 25.9511 8.704 26.0151 8.64C26.0898 8.56533 26.1805 8.528 26.2871 8.528H27.2951C27.4018 8.528 27.4871 8.56533 27.5511 8.64C27.6258 8.704 27.6631 8.78933 27.6631 8.896V9.76C27.6631 9.86667 27.6258 9.95733 27.5511 10.032C27.4871 10.096 27.4018 10.128 27.2951 10.128H26.2871Z" fill="#272722"/>
<path d="M51.76 20C51.6427 20 51.552 19.968 51.488 19.904C51.424 19.8293 51.392 19.7387 51.392 19.632V9.184C51.392 9.06667 51.424 8.976 51.488 8.912C51.552 8.83733 51.6427 8.8 51.76 8.8H52.56C52.6773 8.8 52.768 8.83733 52.832 8.912C52.9067 8.976 52.944 9.06667 52.944 9.184V13.152L57.216 9.056C57.2587 9.01333 57.328 8.96 57.424 8.896C57.5307 8.832 57.6693 8.8 57.84 8.8H58.704C58.7893 8.8 58.864 8.832 58.928 8.896C58.992 8.96 59.024 9.03467 59.024 9.12C59.024 9.20533 59.0027 9.27467 58.96 9.328L54.016 14.16L59.28 19.456C59.3333 19.52 59.36 19.5947 59.36 19.68C59.36 19.7653 59.328 19.84 59.264 19.904C59.2 19.968 59.1253 20 59.04 20H58.144C57.9627 20 57.824 19.968 57.728 19.904C57.632 19.8293 57.5627 19.776 57.52 19.744L52.944 15.232V19.632C52.944 19.7387 52.9067 19.8293 52.832 19.904C52.768 19.968 52.6773 20 52.56 20H51.76ZM61.3214 20C61.2147 20 61.124 19.968 61.0494 19.904C60.9854 19.8293 60.9534 19.7387 60.9534 19.632V12.048C60.9534 11.9413 60.9854 11.856 61.0494 11.792C61.124 11.7173 61.2147 11.68 61.3214 11.68H62.0414C62.148 11.68 62.2334 11.7173 62.2974 11.792C62.372 11.856 62.4094 11.9413 62.4094 12.048V12.608C62.6547 12.2773 62.964 12.016 63.3374 11.824C63.7107 11.6213 64.1587 11.52 64.6814 11.52C65.8867 11.5093 66.74 12 67.2414 12.992C67.4867 12.544 67.844 12.1867 68.3134 11.92C68.7827 11.6533 69.316 11.52 69.9134 11.52C70.468 11.52 70.9694 11.648 71.4174 11.904C71.876 12.16 72.2334 12.5493 72.4894 13.072C72.756 13.584 72.8894 14.2293 72.8894 15.008V19.632C72.8894 19.7387 72.852 19.8293 72.7774 19.904C72.7134 19.968 72.628 20 72.5214 20H71.7694C71.6627 20 71.572 19.968 71.4974 19.904C71.4334 19.8293 71.4014 19.7387 71.4014 19.632V15.152C71.4014 14.5547 71.316 14.0853 71.1454 13.744C70.9747 13.4027 70.7454 13.1627 70.4574 13.024C70.1694 12.8853 69.8547 12.816 69.5134 12.816C69.236 12.816 68.9534 12.8853 68.6654 13.024C68.3774 13.1627 68.1374 13.4027 67.9454 13.744C67.764 14.0853 67.6734 14.5547 67.6734 15.152V19.632C67.6734 19.7387 67.636 19.8293 67.5614 19.904C67.4974 19.968 67.412 20 67.3054 20H66.5534C66.4467 20 66.356 19.968 66.2814 19.904C66.2174 19.8293 66.1854 19.7387 66.1854 19.632V15.152C66.1854 14.5547 66.0947 14.0853 65.9134 13.744C65.732 13.4027 65.4974 13.1627 65.2094 13.024C64.9214 12.8853 64.6174 12.816 64.2974 12.816C64.02 12.816 63.7374 12.8853 63.4494 13.024C63.1614 13.1627 62.9214 13.4027 62.7294 13.744C62.548 14.0853 62.4574 14.5493 62.4574 15.136V19.632C62.4574 19.7387 62.42 19.8293 62.3454 19.904C62.2814 19.968 62.196 20 62.0894 20H61.3214Z" fill="#E9EEFA"/>
</svg>
