<svg width="14" height="10" viewBox="0 0 14 10" fill="none" xmlns="http://www.w3.org/2000/svg">
<g clip-path="url(#clip0_5_2985)">
<path d="M13.2919 2.696C13.3068 2.568 13.3068 2.41867 13.3068 2.29067C13.3068 -0.632 11.5793 -3 9.46463 -3C7.75205 -3 6.29263 -1.42133 5.80119 0.733334C5.25019 0.157333 4.53537 -0.184 3.77588 -0.184C2.01862 -0.184 0.58898 1.62933 0.58898 3.848C0.58898 4.04 0.603872 4.232 0.618764 4.424C-1.46612 4.89333 -3 6.55733 -3 8.49867C-3 10.824 -0.810871 12.7227 1.88459 12.7227C2.83768 12.7227 3.71631 12.488 4.46091 12.0827C5.26508 12.616 6.26284 12.9147 7.33507 12.9147C8.36262 12.9147 9.31571 12.6373 10.105 12.1467C10.8049 12.7013 11.6538 13 12.5622 13C15.0194 13 17 10.6747 17 7.816C17 5.256 15.3917 3.10133 13.2919 2.696Z" fill="url(#paint0_radial_5_2985)"/>
<path d="M6.1286 1.09603L6.00947 1.60803L5.69673 1.28803C5.2053 0.776031 4.57983 0.498698 3.93947 0.498698C2.43538 0.498698 1.19934 2.0347 1.19934 3.91203C1.19934 4.06137 1.21423 4.23203 1.22912 4.4027L1.2738 4.7867L1.02064 4.8507C-0.855761 5.27736 -2.16626 6.7067 -2.16626 8.3067C-2.16626 10.2907 -0.215403 11.912 2.16732 11.912C3.00128 11.912 3.80545 11.72 4.50537 11.336L4.60962 11.272L4.71386 11.336C5.47335 11.8267 6.36688 12.0827 7.31997 12.0827C8.22838 12.0827 9.09212 11.848 9.82183 11.4L9.94096 11.336L10.0601 11.4214C10.7005 11.9334 11.46 12.1894 12.2492 12.1894C14.4086 12.1894 16.1658 10.1627 16.1658 7.6667C16.1658 5.44803 14.7958 3.59203 12.9045 3.20803L12.6513 3.16536L12.6811 2.44003C12.6811 -0.0986354 11.177 -2.16797 9.34528 -2.16797C7.85608 -2.16797 6.56047 -0.845302 6.1286 1.09603Z" fill="url(#paint1_radial_5_2985)"/>
<path d="M15.6599 7.51739C15.6599 5.72539 14.4983 4.18939 12.8899 3.89072L12.1155 3.74139C12.1155 3.74139 12.1602 2.33338 12.1602 2.29072C12.1602 0.200051 10.9242 -1.48528 9.39031 -1.48528C8.60103 -1.48528 7.88621 -1.03728 7.36499 -0.290615C7.79686 -0.674615 8.31808 -0.909282 8.86909 -0.909282C10.3881 -0.909282 11.639 0.776052 11.639 2.86672C11.639 2.90939 11.5943 4.31739 11.5943 4.31739L12.3687 4.46672C13.9771 4.78672 15.1386 6.30139 15.1386 8.09339C15.1386 8.94672 14.8706 9.71472 14.4387 10.3547C15.1833 9.67205 15.6599 8.64805 15.6599 7.51739Z" fill="url(#paint2_radial_5_2985)"/>
<path d="M7.55845 2.07733C7.55845 1.992 7.57334 1.90666 7.57334 1.79999C7.57334 -0.0986712 6.45644 -1.63467 5.08637 -1.63467C3.96947 -1.63467 3.03127 -0.610671 2.71854 0.797328C2.36113 0.413329 1.89948 0.199996 1.40804 0.199996C0.261355 0.199996 -0.661951 1.37333 -0.661951 2.80266C-0.661951 2.93066 -0.647059 3.05866 -0.647059 3.18666C-2.00223 3.50666 -3 4.57333 -3 5.85333C-3 7.36799 -1.58526 8.58399 0.157111 8.58399C0.767684 8.58399 1.34847 8.43466 1.82502 8.17866C2.34624 8.51999 2.9866 8.71199 3.68652 8.71199C4.35666 8.71199 4.96724 8.51999 5.47357 8.22133C5.93522 8.58399 6.47133 8.77599 7.06701 8.77599C8.66046 8.77599 9.94118 7.26133 9.94118 5.40533C9.95607 3.74133 8.91363 2.35466 7.55845 2.07733Z" fill="url(#paint3_radial_5_2985)"/>
<path d="M2.91191 1.05329L2.83745 1.39462L2.64386 1.18129C2.33112 0.839958 1.91415 0.669291 1.51206 0.669291C0.529188 0.669291 -0.26009 1.67196 -0.26009 2.88796C-0.26009 2.99463 -0.26009 3.10129 -0.245198 3.20796L-0.215414 3.46396L-0.394118 3.50662C-1.61527 3.74129 -2.46411 4.67996 -2.46411 5.72529C-2.46411 7.00529 -1.19829 8.05062 0.350483 8.05062C0.886597 8.05062 1.40782 7.92262 1.86947 7.66662L1.94393 7.62396L2.0035 7.66662C2.49494 7.98662 3.07573 8.15729 3.6863 8.15729C4.26709 8.15729 4.83299 8.00796 5.30953 7.70929L5.38399 7.66662L5.45845 7.73062C5.87543 8.05062 6.36687 8.22129 6.8732 8.22129C8.27305 8.22129 9.41973 6.89862 9.41973 5.29862C9.41973 3.86929 8.52621 2.65329 7.30506 2.41862L7.14125 2.39729L7.15614 1.92796C7.15614 0.285291 6.18816 -1.05871 4.9968 -1.05871C4.02882 -1.05871 3.19486 -0.226708 2.91191 1.05329Z" fill="url(#paint4_radial_5_2985)"/>
<path d="M9.09246 5.19197C9.09246 4.03997 8.33296 3.0373 7.30541 2.8453L6.81398 2.73864C6.81398 2.73864 6.84376 1.8213 6.84376 1.79997C6.84376 0.455968 6.03959 -0.653365 5.05672 -0.653365C4.55039 -0.653365 4.07384 -0.354698 3.74622 0.114635C4.02916 -0.141365 4.37168 -0.269365 4.72909 -0.269365C5.71196 -0.269365 6.51614 0.818635 6.51614 2.18397C6.51614 2.22663 6.48635 3.12264 6.48635 3.12264L6.97779 3.2293C8.02023 3.4213 8.76483 4.42397 8.76483 5.57597C8.76483 6.13064 8.60102 6.6213 8.31807 7.02664C8.77972 6.59997 9.09246 5.93864 9.09246 5.19197Z" fill="url(#paint5_radial_5_2985)"/>
</g>
<defs>
<radialGradient id="paint0_radial_5_2985" cx="0" cy="0" r="1" gradientUnits="userSpaceOnUse" gradientTransform="translate(10.6696 16.5652) scale(15.7122 22.5083)">
<stop offset="0.005618" stop-color="#A9D1EF"/>
<stop offset="0.5393" stop-color="#1998D5"/>
<stop offset="1" stop-color="#0073BB"/>
</radialGradient>
<radialGradient id="paint1_radial_5_2985" cx="0" cy="0" r="1" gradientUnits="userSpaceOnUse" gradientTransform="translate(14.0279 2.21686) scale(10.8574 15.8876)">
<stop offset="0.005618" stop-color="#A9D1EF"/>
<stop offset="0.5393" stop-color="#1998D5"/>
<stop offset="1" stop-color="#0073BB"/>
</radialGradient>
<radialGradient id="paint2_radial_5_2985" cx="0" cy="0" r="1" gradientUnits="userSpaceOnUse" gradientTransform="translate(11.4939 3.69023) scale(28.7717 23.1003)">
<stop stop-color="#CBEBFB"/>
<stop offset="0.7767" stop-color="#BDCDDA"/>
<stop offset="1" stop-color="#B9C4D0"/>
</radialGradient>
<radialGradient id="paint3_radial_5_2985" cx="0" cy="0" r="1" gradientUnits="userSpaceOnUse" gradientTransform="translate(10.6023 16.3945) scale(15.735 22.4161)">
<stop offset="0.005618" stop-color="#A9D1EF"/>
<stop offset="0.5393" stop-color="#1998D5"/>
<stop offset="1" stop-color="#0073BB"/>
</radialGradient>
<radialGradient id="paint4_radial_5_2985" cx="0" cy="0" r="1" gradientUnits="userSpaceOnUse" gradientTransform="translate(13.9337 2.06452) scale(10.8531 15.9278)">
<stop offset="0.005618" stop-color="#A9D1EF"/>
<stop offset="0.5393" stop-color="#1998D5"/>
<stop offset="1" stop-color="#0073BB"/>
</radialGradient>
<radialGradient id="paint5_radial_5_2985" cx="0" cy="0" r="1" gradientUnits="userSpaceOnUse" gradientTransform="translate(7.53179 2.49765) scale(7.73213 11.0765)">
<stop stop-color="#CBEBFB"/>
<stop offset="0.7767" stop-color="#BDCDDA"/>
<stop offset="1" stop-color="#B9C4D0"/>
</radialGradient>
<clipPath id="clip0_5_2985">
<rect width="14" height="10" fill="white"/>
</clipPath>
</defs>
</svg>
