<svg width="24" height="14" viewBox="0 0 24 14" fill="none" xmlns="http://www.w3.org/2000/svg">
<path d="M2.20361 7.30717C3.61917 10.4203 8.78272 11.5279 12.1286 10.2108C14.7988 9.16308 16.0535 6.28942 14.9275 3.80489C14.0267 1.81428 11.5495 0.871362 9.41007 1.72448C7.70497 2.38303 6.90068 4.22397 7.62454 5.82544C6.65939 3.71509 7.72105 1.29044 9.98916 0.407384C12.8203 -0.700174 16.0696 0.52712 17.26 3.16131C18.7399 6.43909 17.0991 10.2257 13.5602 11.6177C9.13661 13.3389 4.05348 11.4231 2.20361 7.30717Z" fill="url(#paint0_radial_106_154)"/>
<path d="M6.14502 10.5849C8.26835 11.7973 10.9547 12.0667 13.4158 11.1088C14.9761 10.4951 16.1826 9.35764 16.8099 7.90584C17.4373 6.45404 17.4373 4.85257 16.7778 3.40077C15.7 1.03599 12.7563 -0.0865382 10.2147 0.916251C9.78042 1.08089 9.37827 1.33533 9.04047 1.6197C8.73484 1.78434 8.46138 1.97891 8.22009 2.20341C8.6705 1.49996 9.3461 0.961152 10.1665 0.631878C12.8528 -0.415812 15.9413 0.751614 17.0673 3.2511C17.759 4.77774 17.7751 6.45404 17.0995 7.99565C16.456 9.53725 15.1853 10.7346 13.5445 11.3782C10.4721 12.5755 7.06191 11.9469 4.71338 10.0312C5.16378 10.2557 5.64636 10.4353 6.14502 10.5849Z" fill="url(#paint1_radial_106_154)"/>
<path d="M15.0884 11.5728C15.5549 10.54 17.2761 10.1659 18.386 10.6149C19.2707 10.9591 19.6889 11.917 19.319 12.7402C19.0133 13.3987 18.1929 13.7131 17.4852 13.4287C16.9222 13.2042 16.6487 12.5905 16.89 12.0667C16.5683 12.7701 16.9222 13.5634 17.6782 13.8627C18.6112 14.2369 19.705 13.8178 20.0911 12.9497C20.5897 11.8571 20.0428 10.5999 18.8685 10.1359C17.4047 9.56719 15.7157 10.2108 15.0884 11.5728Z" fill="url(#paint2_radial_106_154)"/>
<path d="M8.50928 8.95356C10.1822 9.68694 12.6594 8.51951 13.4476 6.96294C14.075 5.72068 13.4959 4.23895 12.1608 3.65523C11.083 3.19126 9.81223 3.6253 9.31357 4.61312C8.91142 5.40637 9.2814 6.36426 10.1339 6.72347C10.8256 7.02281 11.6299 6.7534 11.9516 6.10982C12.209 5.60094 11.9838 4.71789 11.4369 4.47842C12.0964 4.76279 12.386 5.49618 12.0803 6.10982C11.6943 6.87314 10.713 7.21738 9.87657 6.85817C8.84708 6.40916 8.39668 5.2567 8.87925 4.29882C9.49051 3.10145 11.0187 2.57761 12.3216 3.14636C13.9302 3.8498 14.638 5.64585 13.8819 7.14255C12.9329 9.01342 10.52 9.83661 8.50928 8.95356Z" fill="url(#paint3_radial_106_154)"/>
<path d="M17.1958 10.9741C17.7588 10.7346 18.5953 11.1238 18.8526 11.6476C19.0618 12.0667 18.8687 12.5606 18.4183 12.7552C18.0644 12.9048 17.6301 12.7701 17.4532 12.4259C17.3245 12.1565 17.4371 11.8422 17.7266 11.7075C17.9518 11.6027 18.2253 11.6925 18.3379 11.917C18.4183 12.0817 18.354 12.381 18.161 12.4708C18.3862 12.381 18.4827 12.1266 18.3701 11.917C18.2414 11.6626 17.9036 11.5428 17.6301 11.6626C17.2762 11.8122 17.1315 12.2014 17.2923 12.5307C17.5014 12.9348 18.0162 13.1144 18.4505 12.9198C18.9974 12.6803 19.2226 12.0817 18.9813 11.5728C18.6757 10.9442 17.8714 10.6748 17.1958 10.9741Z" fill="url(#paint4_radial_106_154)"/>
<path d="M0 11.004C1.23861 10.0162 4.71315 10.3754 5.7909 11.5279C4.26275 9.88149 1.75336 9.58215 0 11.004Z" fill="url(#paint5_radial_106_154)"/>
<path d="M2.58984 11.5728C3.32979 10.9741 5.40487 11.1986 6.0483 11.8871C5.13141 10.9142 3.63542 10.7346 2.58984 11.5728Z" fill="url(#paint6_radial_106_154)"/>
<path d="M24.0003 5.03218C17.8877 4.32874 19.1424 7.74121 19.1424 7.74121C20.5579 6.42412 22.263 5.99007 22.263 5.99007C20.3166 6.88809 18.692 8.44466 18.692 8.44466L18.4507 9.26785L19.5606 8.11539C21.5713 10.6448 24.0003 5.03218 24.0003 5.03218Z" fill="#94C63D"/>
<path d="M23.598 5.46622C23.6463 5.36145 23.6945 5.27164 23.7428 5.18184C21.6838 4.9723 20.2522 5.24171 19.6248 5.97509C19.3192 6.3343 19.2388 6.73841 19.2388 7.08265C19.2388 7.12755 19.2388 7.17246 19.2388 7.21736C19.2549 6.91802 19.3675 6.57378 19.6248 6.27443C20.2522 5.55602 21.6195 5.28661 23.598 5.46622Z" fill="url(#paint7_linear_106_154)"/>
<path d="M24.0003 5.03218C17.8877 4.32874 19.1424 7.74121 19.1424 7.74121C20.5579 6.42412 22.263 5.99007 22.263 5.99007C20.3166 6.88809 18.692 8.44466 18.692 8.44466L18.4507 9.26785L19.5606 8.11539C21.5713 10.6448 24.0003 5.03218 24.0003 5.03218Z" fill="#94C63D"/>
<path d="M23.598 5.46622C23.6463 5.36145 23.6945 5.27164 23.7428 5.18184C21.6838 4.9723 20.2522 5.24171 19.6248 5.97509C19.3192 6.3343 19.2388 6.73841 19.2388 7.08265C19.2388 7.12755 19.2388 7.17246 19.2388 7.21736C19.2549 6.91802 19.3675 6.57378 19.6248 6.27443C20.2522 5.55602 21.6195 5.28661 23.598 5.46622Z" fill="url(#paint8_linear_106_154)"/>
<path d="M7.47961 7.03776C7.47961 7.03776 7.65656 6.81326 8.15522 6.84319C8.15522 6.84319 7.96219 6.67855 8.13913 6.57378C8.13913 6.57378 6.94878 7.06769 6.3536 7.65141C6.3536 7.65141 6.90052 7.00783 7.33484 6.78332C7.33484 6.78332 5.71017 5.87033 5.25977 8.80387C5.29194 8.7889 8.12304 8.05552 7.47961 7.03776Z" fill="#94C63D"/>
<path d="M6.43395 7.09764C6.56264 7.03778 6.69133 7.02281 6.82002 7.02281C6.90044 6.94797 6.98087 6.87314 7.07739 6.81327C6.91653 6.76837 6.69133 6.7534 6.45004 6.85817C5.99964 7.05274 5.67792 7.66639 5.50098 8.60931C5.51706 8.60931 5.53315 8.59434 5.54923 8.59434C5.71009 7.80109 6.01572 7.27725 6.43395 7.09764Z" fill="url(#paint9_linear_106_154)"/>
<path d="M7.47961 7.03776C7.47961 7.03776 7.65656 6.81326 8.15522 6.84319C8.15522 6.84319 7.96219 6.67855 8.13913 6.57378C8.13913 6.57378 6.94878 7.06769 6.3536 7.65141C6.3536 7.65141 6.90052 7.00783 7.33484 6.78332C7.33484 6.78332 5.71017 5.87033 5.25977 8.80387C5.29194 8.7889 8.12304 8.05552 7.47961 7.03776Z" fill="#94C63D"/>
<path d="M6.43395 7.09764C6.56264 7.03778 6.69133 7.02281 6.82002 7.02281C6.90044 6.94797 6.98087 6.87314 7.07739 6.81327C6.91653 6.76837 6.69133 6.7534 6.45004 6.85817C5.99964 7.05274 5.67792 7.66639 5.50098 8.60931C5.51706 8.60931 5.53315 8.59434 5.54923 8.59434C5.71009 7.80109 6.01572 7.27725 6.43395 7.09764Z" fill="url(#paint10_linear_106_154)"/>
<defs>
<radialGradient id="paint0_radial_106_154" cx="0" cy="0" r="1" gradientUnits="userSpaceOnUse" gradientTransform="translate(10.066 6.05712) rotate(180) scale(7.21423 6.71245)">
<stop offset="0.005618" stop-color="#A9D1EF"/>
<stop offset="0.5393" stop-color="#1998D5"/>
<stop offset="1" stop-color="#0073BB"/>
</radialGradient>
<radialGradient id="paint1_radial_106_154" cx="0" cy="0" r="1" gradientUnits="userSpaceOnUse" gradientTransform="translate(18.0025 5.36423) rotate(180) scale(12.8466 11.9531)">
<stop offset="0.005618" stop-color="#A9D1EF"/>
<stop offset="0.5393" stop-color="#1998D5"/>
<stop offset="1" stop-color="#0073BB"/>
</radialGradient>
<radialGradient id="paint2_radial_106_154" cx="0" cy="0" r="1" gradientUnits="userSpaceOnUse" gradientTransform="translate(17.6319 11.9206) rotate(180) scale(2.39808 2.23129)">
<stop offset="0.005618" stop-color="#A9D1EF"/>
<stop offset="0.5393" stop-color="#1998D5"/>
<stop offset="1" stop-color="#0073BB"/>
</radialGradient>
<radialGradient id="paint3_radial_106_154" cx="0" cy="0" r="1" gradientUnits="userSpaceOnUse" gradientTransform="translate(11.4154 6.03676) rotate(180) scale(3.14742 2.92851)">
<stop offset="0.005618" stop-color="#A9D1EF"/>
<stop offset="0.5393" stop-color="#1998D5"/>
<stop offset="1" stop-color="#0073BB"/>
</radialGradient>
<radialGradient id="paint4_radial_106_154" cx="0" cy="0" r="1" gradientUnits="userSpaceOnUse" gradientTransform="translate(18.1093 11.8952) rotate(180) scale(1.05984 0.986126)">
<stop offset="0.005618" stop-color="#A9D1EF"/>
<stop offset="0.5393" stop-color="#1998D5"/>
<stop offset="1" stop-color="#0073BB"/>
</radialGradient>
<radialGradient id="paint5_radial_106_154" cx="0" cy="0" r="1" gradientUnits="userSpaceOnUse" gradientTransform="translate(4.65944 12.8978) rotate(180) scale(2.5228 2.34733)">
<stop offset="0.005618" stop-color="#A9D1EF"/>
<stop offset="0.5393" stop-color="#1998D5"/>
<stop offset="1" stop-color="#0073BB"/>
</radialGradient>
<radialGradient id="paint6_radial_106_154" cx="0" cy="0" r="1" gradientUnits="userSpaceOnUse" gradientTransform="translate(4.65946 12.8974) rotate(180) scale(2.5228 2.34732)">
<stop offset="0.005618" stop-color="#A9D1EF"/>
<stop offset="0.5393" stop-color="#1998D5"/>
<stop offset="1" stop-color="#0073BB"/>
</radialGradient>
<linearGradient id="paint7_linear_106_154" x1="19.2001" y1="6.15545" x2="23.7156" y2="6.15545" gradientUnits="userSpaceOnUse">
<stop stop-color="#B7D333"/>
<stop offset="0.228" stop-color="#C5DB54"/>
<stop offset="0.7268" stop-color="#EAEFA7"/>
<stop offset="1" stop-color="#FFFBD7"/>
</linearGradient>
<linearGradient id="paint8_linear_106_154" x1="19.2001" y1="6.15545" x2="23.7156" y2="6.15545" gradientUnits="userSpaceOnUse">
<stop stop-color="#B7D333"/>
<stop offset="0.3431" stop-color="#BDD754"/>
<stop offset="1" stop-color="#CBE19C"/>
</linearGradient>
<linearGradient id="paint9_linear_106_154" x1="5.40704" y1="7.69096" x2="6.99236" y2="7.69096" gradientUnits="userSpaceOnUse">
<stop stop-color="#B7D333"/>
<stop offset="0.228" stop-color="#C5DB54"/>
<stop offset="0.7268" stop-color="#EAEFA7"/>
<stop offset="1" stop-color="#FFFBD7"/>
</linearGradient>
<linearGradient id="paint10_linear_106_154" x1="5.40704" y1="7.69096" x2="6.99236" y2="7.69096" gradientUnits="userSpaceOnUse">
<stop stop-color="#B7D333"/>
<stop offset="0.3431" stop-color="#BDD754"/>
<stop offset="1" stop-color="#CBE19C"/>
</linearGradient>
</defs>
</svg>
