<svg width="80" height="30" viewBox="0 0 80 30" fill="none" xmlns="http://www.w3.org/2000/svg">
<rect width="80" height="30" rx="5" fill="#FEEDE9"/>
<path d="M40 0H75C77.7614 0 80 2.23858 80 5V25C80 27.7614 77.7614 30 75 30H40V0Z" fill="#1F4DC5"/>
<path d="M16.416 20C16.3093 20 16.2187 19.968 16.144 19.904C16.08 19.8293 16.048 19.7387 16.048 19.632V10.672L13.392 12.72C13.3067 12.784 13.216 12.8107 13.12 12.8C13.024 12.7893 12.944 12.7413 12.88 12.656L12.464 12.128C12.4 12.032 12.3733 11.936 12.384 11.84C12.4053 11.744 12.4587 11.664 12.544 11.6L16.032 8.912C16.1067 8.85867 16.176 8.82667 16.24 8.816C16.304 8.80533 16.3733 8.8 16.448 8.8H17.264C17.3707 8.8 17.456 8.83733 17.52 8.912C17.584 8.976 17.616 9.06133 17.616 9.168V19.632C17.616 19.7387 17.584 19.8293 17.52 19.904C17.456 19.968 17.3707 20 17.264 20H16.416ZM20.1557 20C20.0491 20 19.9584 19.968 19.8837 19.904C19.8197 19.8293 19.7877 19.7387 19.7877 19.632V19.12C19.7877 19.024 19.8144 18.9173 19.8677 18.8C19.9211 18.6827 20.0277 18.5547 20.1877 18.416L23.5798 15.024C24.1238 14.5653 24.5504 14.176 24.8598 13.856C25.1798 13.5253 25.4038 13.2107 25.5318 12.912C25.6704 12.6133 25.7398 12.304 25.7398 11.984C25.7398 11.376 25.5691 10.896 25.2278 10.544C24.8864 10.1813 24.3798 10 23.7077 10C23.2811 10 22.9131 10.0907 22.6037 10.272C22.2944 10.4427 22.0491 10.6827 21.8677 10.992C21.6971 11.2907 21.5851 11.632 21.5317 12.016C21.5104 12.1547 21.4517 12.2507 21.3557 12.304C21.2704 12.3573 21.1904 12.384 21.1157 12.384H20.2837C20.1877 12.384 20.1077 12.3573 20.0437 12.304C19.9797 12.24 19.9477 12.1653 19.9477 12.08C19.9584 11.6747 20.0437 11.2693 20.2037 10.864C20.3637 10.448 20.5984 10.0747 20.9077 9.744C21.2277 9.41333 21.6171 9.14667 22.0757 8.944C22.5451 8.73067 23.0891 8.624 23.7077 8.624C24.5504 8.624 25.2384 8.77867 25.7717 9.088C26.3158 9.38667 26.7158 9.78667 26.9718 10.288C27.2278 10.7893 27.3558 11.3387 27.3558 11.936C27.3558 12.4053 27.2758 12.8373 27.1158 13.232C26.9558 13.616 26.7211 13.9947 26.4118 14.368C26.1131 14.7307 25.7398 15.104 25.2917 15.488L22.2197 18.608H27.2118C27.3291 18.608 27.4198 18.64 27.4838 18.704C27.5584 18.768 27.5957 18.8587 27.5957 18.976V19.632C27.5957 19.7387 27.5584 19.8293 27.4838 19.904C27.4198 19.968 27.3291 20 27.2118 20H20.1557Z" fill="#272722"/>
<path d="M51.152 20C51.0453 20 50.9547 19.968 50.88 19.904C50.816 19.8293 50.784 19.7387 50.784 19.632V19.12C50.784 19.024 50.8107 18.9173 50.864 18.8C50.9173 18.6827 51.024 18.5547 51.184 18.416L54.576 15.024C55.12 14.5653 55.5467 14.176 55.856 13.856C56.176 13.5253 56.4 13.2107 56.528 12.912C56.6667 12.6133 56.736 12.304 56.736 11.984C56.736 11.376 56.5653 10.896 56.224 10.544C55.8827 10.1813 55.376 10 54.704 10C54.2773 10 53.9093 10.0907 53.6 10.272C53.2907 10.4427 53.0453 10.6827 52.864 10.992C52.6933 11.2907 52.5813 11.632 52.528 12.016C52.5067 12.1547 52.448 12.2507 52.352 12.304C52.2667 12.3573 52.1867 12.384 52.112 12.384H51.28C51.184 12.384 51.104 12.3573 51.04 12.304C50.976 12.24 50.944 12.1653 50.944 12.08C50.9547 11.6747 51.04 11.2693 51.2 10.864C51.36 10.448 51.5947 10.0747 51.904 9.744C52.224 9.41333 52.6133 9.14667 53.072 8.944C53.5413 8.73067 54.0853 8.624 54.704 8.624C55.5467 8.624 56.2347 8.77867 56.768 9.088C57.312 9.38667 57.712 9.78667 57.968 10.288C58.224 10.7893 58.352 11.3387 58.352 11.936C58.352 12.4053 58.272 12.8373 58.112 13.232C57.952 13.616 57.7173 13.9947 57.408 14.368C57.1093 14.7307 56.736 15.104 56.288 15.488L53.216 18.608H58.208C58.3253 18.608 58.416 18.64 58.48 18.704C58.5547 18.768 58.592 18.8587 58.592 18.976V19.632C58.592 19.7387 58.5547 19.8293 58.48 19.904C58.416 19.968 58.3253 20 58.208 20H51.152ZM65.8104 20C65.7037 20 65.613 19.968 65.5384 19.904C65.4744 19.8293 65.4424 19.7387 65.4424 19.632V17.328H60.2584C60.1517 17.328 60.061 17.296 59.9864 17.232C59.9224 17.1573 59.8904 17.0667 59.8904 16.96V16.32C59.8904 16.2773 59.901 16.2133 59.9224 16.128C59.9544 16.032 60.0024 15.936 60.0664 15.84L64.8664 9.072C64.9944 8.89067 65.1917 8.8 65.4584 8.8H66.6104C66.717 8.8 66.8024 8.83733 66.8664 8.912C66.941 8.976 66.9784 9.06133 66.9784 9.168V15.936H68.4184C68.5357 15.936 68.6264 15.9733 68.6904 16.048C68.765 16.112 68.8024 16.1973 68.8024 16.304V16.96C68.8024 17.0667 68.765 17.1573 68.6904 17.232C68.6264 17.296 68.541 17.328 68.4344 17.328H66.9784V19.632C66.9784 19.7387 66.941 19.8293 66.8664 19.904C66.8024 19.968 66.717 20 66.6104 20H65.8104ZM61.6024 15.968H65.4584V10.48L61.6024 15.968Z" fill="#E9EEFA"/>
</svg>
