<svg width="80" height="30" viewBox="0 0 80 30" fill="none" xmlns="http://www.w3.org/2000/svg">
<g clip-path="url(#clip0_106_1630)">
<rect width="80" height="30" rx="5" fill="#FEEDE9"/>
<path d="M0 5C0 2.23858 2.23858 0 5 0H40V30H5C2.23858 30 0 27.7614 0 25V5Z" fill="#1F4DC5"/>
<path d="M50.76 21C50.6533 21 50.5627 20.968 50.488 20.904C50.424 20.8293 50.392 20.7387 50.392 20.632V10.184C50.392 10.0667 50.424 9.976 50.488 9.912C50.5627 9.83733 50.6533 9.8 50.76 9.8H51.56C51.6773 9.8 51.768 9.83733 51.832 9.912C51.9067 9.976 51.944 10.0667 51.944 10.184V14.152L56.216 10.056C56.3867 9.88533 56.5947 9.8 56.84 9.8H57.704C57.7893 9.8 57.864 9.832 57.928 9.896C57.992 9.96 58.024 10.0347 58.024 10.12C58.024 10.2053 58.0027 10.2747 57.96 10.328L53.016 15.16L58.28 20.456C58.3333 20.52 58.36 20.5947 58.36 20.68C58.36 20.7653 58.328 20.84 58.264 20.904C58.2 20.968 58.1253 21 58.04 21H57.144C56.9093 21 56.7013 20.9093 56.52 20.728L51.944 16.232V20.632C51.944 20.7387 51.9067 20.8293 51.832 20.904C51.7573 20.968 51.6667 21 51.56 21H50.76ZM60.3214 21C60.2147 21 60.124 20.968 60.0494 20.904C59.9854 20.8293 59.9534 20.7387 59.9534 20.632V13.048C59.9534 12.9413 59.9854 12.856 60.0494 12.792C60.124 12.7173 60.2147 12.68 60.3214 12.68H61.0414C61.148 12.68 61.2334 12.7173 61.2974 12.792C61.372 12.856 61.4094 12.9413 61.4094 13.048V13.608C61.964 12.8827 62.7374 12.52 63.7294 12.52C64.9134 12.52 65.7507 13.0107 66.2414 13.992C66.4974 13.544 66.86 13.1867 67.3294 12.92C67.7987 12.6533 68.3267 12.52 68.9134 12.52C69.788 12.52 70.5027 12.8187 71.0574 13.416C71.612 14.0133 71.8894 14.8773 71.8894 16.008V20.632C71.8894 20.7387 71.852 20.8293 71.7774 20.904C71.7134 20.968 71.628 21 71.5214 21H70.7694C70.6627 21 70.572 20.968 70.4974 20.904C70.4334 20.8293 70.4014 20.7387 70.4014 20.632V16.152C70.4014 15.32 70.2254 14.7227 69.8734 14.36C69.532 13.9973 69.0787 13.816 68.5134 13.816C68.012 13.816 67.58 14.0027 67.2174 14.376C66.8547 14.7387 66.6734 15.3307 66.6734 16.152V20.632C66.6734 20.7387 66.636 20.8293 66.5614 20.904C66.4974 20.968 66.412 21 66.3054 21H65.5534C65.4467 21 65.356 20.968 65.2814 20.904C65.2174 20.8293 65.1854 20.7387 65.1854 20.632V16.152C65.1854 15.32 65.004 14.7227 64.6414 14.36C64.2894 13.9973 63.8414 13.816 63.2974 13.816C62.796 13.816 62.364 14.0027 62.0014 14.376C61.6387 14.7387 61.4574 15.3253 61.4574 16.136V20.632C61.4574 20.7387 61.42 20.8293 61.3454 20.904C61.2814 20.968 61.196 21 61.0894 21H60.3214Z" fill="#272722"/>
<path d="M13.76 20C13.6533 20 13.5627 19.968 13.488 19.904C13.424 19.8293 13.392 19.7387 13.392 19.632V9.184C13.392 9.06667 13.424 8.976 13.488 8.912C13.5627 8.83733 13.6533 8.8 13.76 8.8H14.56C14.7307 8.8 14.8693 8.88533 14.976 9.056L18.352 15.52L21.76 9.056C21.7813 8.992 21.824 8.93333 21.888 8.88C21.9627 8.82667 22.0533 8.8 22.16 8.8H22.944C23.0613 8.8 23.152 8.83733 23.216 8.912C23.2907 8.976 23.328 9.06667 23.328 9.184V19.632C23.328 19.7387 23.2907 19.8293 23.216 19.904C23.1413 19.968 23.0507 20 22.944 20H22.16C22.0533 20 21.9627 19.968 21.888 19.904C21.824 19.8293 21.792 19.7387 21.792 19.632V11.76L19.12 16.976C19.0133 17.2 18.8427 17.312 18.608 17.312H18.112C17.8773 17.312 17.7067 17.2 17.6 16.976L14.912 11.76V19.632C14.912 19.7387 14.8747 19.8293 14.8 19.904C14.736 19.968 14.6507 20 14.544 20H13.76ZM26.1271 10.128C26.0205 10.128 25.9298 10.096 25.8551 10.032C25.7911 9.95733 25.7591 9.86667 25.7591 9.76V8.896C25.7591 8.78933 25.7911 8.69867 25.8551 8.624C25.9298 8.54933 26.0205 8.512 26.1271 8.512H27.1351C27.2418 8.512 27.3325 8.54933 27.4071 8.624C27.4818 8.69867 27.5191 8.78933 27.5191 8.896V9.76C27.5191 9.86667 27.4818 9.95733 27.4071 10.032C27.3325 10.096 27.2418 10.128 27.1351 10.128H26.1271ZM26.2551 20C26.1485 20 26.0578 19.968 25.9831 19.904C25.9191 19.8293 25.8871 19.7387 25.8871 19.632V12.048C25.8871 11.9413 25.9191 11.856 25.9831 11.792C26.0578 11.7173 26.1485 11.68 26.2551 11.68H27.0231C27.1298 11.68 27.2151 11.7173 27.2791 11.792C27.3538 11.856 27.3911 11.9413 27.3911 12.048V19.632C27.3911 19.7387 27.3538 19.8293 27.2791 19.904C27.2151 19.968 27.1298 20 27.0231 20H26.2551Z" fill="#E9EEFA"/>
</g>
<defs>
<clipPath id="clip0_106_1630">
<rect width="80" height="30" fill="white"/>
</clipPath>
</defs>
</svg>
