<svg width="12" height="12" viewBox="0 0 12 12" fill="none" xmlns="http://www.w3.org/2000/svg">
<g clip-path="url(#clip0_5_2957)">
<path d="M11.544 9.22297C10.4755 10.8898 8.60823 11.9953 6.48247 11.9999C3.1892 12.0071 0.485095 9.3432 0.445275 6.05016C0.407822 2.95166 2.70988 0.382976 5.69591 0.000616645C5.75973 -0.00756304 5.80131 0.0654448 5.76252 0.116773C5.04254 1.06977 4.6157 2.25629 4.6157 3.5428C4.6157 6.6849 7.16279 9.23197 10.3049 9.23197C10.7034 9.23197 11.0922 9.19109 11.4675 9.11302C11.5306 9.09992 11.5787 9.16878 11.544 9.22297Z" fill="url(#paint0_linear_5_2957)"/>
<path d="M11.4676 9.11293C11.5305 9.09985 11.5787 9.16855 11.544 9.22267C10.4732 10.8931 8.60046 12 6.46913 12C3.14182 12 0.444824 9.30273 0.444824 5.97568C0.444824 4.64424 0.876637 3.41382 1.60814 2.41646C1.44207 2.96126 1.35125 3.53883 1.34761 4.13722C1.32729 7.48953 4.0197 10.199 7.37208 10.1988C8.58687 10.1988 9.71761 9.83926 10.6636 9.22056C10.9374 9.2037 11.2058 9.1674 11.4676 9.11293Z" fill="#0073BB"/>
</g>
<defs>
<linearGradient id="paint0_linear_5_2957" x1="6.00023" y1="-1.52588e-05" x2="6.00023" y2="12" gradientUnits="userSpaceOnUse">
<stop stop-color="#0277BE"/>
<stop offset="1" stop-color="#6AB8E4"/>
</linearGradient>
<clipPath id="clip0_5_2957">
<rect width="12" height="12" fill="white"/>
</clipPath>
</defs>
</svg>
