<svg width="11" height="13" viewBox="0 0 11 13" fill="none" xmlns="http://www.w3.org/2000/svg">
<path d="M3.27373 2.04783V2.32209C3.27373 3.14488 3.59175 3.94938 3.87236 4.66246C4.11555 5.28412 4.32133 5.79608 4.32133 6.28975C4.32133 7.45994 3.34856 8.41071 2.15131 8.41071C0.972766 8.41071 0 7.45994 0 6.28975C0 5.24755 1.27208 2.76091 2.63769 1.97469L3.27373 1.60901V2.04783Z" fill="url(#paint0_radial_5_2994)"/>
<path d="M3.01214 2.3221C3.01214 3.19974 3.34887 4.02252 3.62947 4.75389C3.85396 5.33898 4.05974 5.85094 4.05974 6.28976C4.05974 7.31367 3.19921 8.15474 2.15162 8.15474C1.10402 8.15474 0.262207 7.31367 0.262207 6.28976C0.262207 5.3207 1.49687 2.92548 2.76895 2.19411L3.01214 2.04784V2.3221Z" fill="url(#paint1_radial_5_2994)"/>
<path d="M3.55476 5.79605C3.55476 5.44865 3.46122 5.0464 3.33027 4.58929C3.57347 5.19267 3.79795 5.7412 3.79795 6.18001C3.79795 7.13079 3.01225 7.88044 2.0582 7.88044C2.02078 7.88044 1.96466 7.88044 1.92725 7.88044C2.82518 7.8073 3.55476 6.91138 3.55476 5.79605Z" fill="#D1DCEE"/>
<path d="M1.87062 3.89456C1.85191 3.85799 1.87062 3.76657 1.90803 3.71172C1.94545 3.63858 2.00157 3.6203 2.03898 3.65686C2.05769 3.69343 2.05769 3.78485 2.00157 3.83971C1.96416 3.89456 1.90803 3.93113 1.87062 3.89456Z" fill="#F1E6DD"/>
<path d="M1.3096 4.82705C1.27219 4.7722 1.3096 4.62592 1.38443 4.51622C1.45926 4.40651 1.55279 4.36995 1.60891 4.4248C1.64633 4.47965 1.62762 4.62592 1.53408 4.73563C1.45926 4.86362 1.36572 4.90019 1.3096 4.82705Z" fill="#F1E6DD"/>
<path d="M6.21049 0.255978V0.420535C6.21049 0.914207 6.39756 1.40788 6.56592 1.82841C6.71558 2.1941 6.84652 2.52321 6.84652 2.81576C6.84652 3.51056 6.26661 4.09565 5.53703 4.09565C4.82616 4.09565 4.22754 3.52884 4.22754 2.81576C4.22754 2.17581 4.99453 0.694798 5.81764 0.21941L6.19178 0V0.255978H6.21049Z" fill="url(#paint2_radial_5_2994)"/>
<path d="M6.06126 0.438819C6.06126 0.969059 6.26704 1.46273 6.4354 1.90155C6.56635 2.24895 6.6973 2.55978 6.6973 2.83404C6.6973 3.4557 6.1735 3.94938 5.55617 3.94938C4.92013 3.94938 4.41504 3.43742 4.41504 2.83404C4.41504 2.24895 5.16332 0.804502 5.93031 0.365682L6.07997 0.274261V0.438819H6.06126Z" fill="url(#paint3_radial_5_2994)"/>
<path d="M6.37917 2.52324C6.37917 2.30383 6.32305 2.06613 6.22951 1.79187C6.37917 2.15755 6.51012 2.48667 6.51012 2.74265C6.51012 3.30945 6.04244 3.76656 5.46252 3.76656C5.44382 3.76656 5.4064 3.76656 5.3877 3.76656C5.94891 3.72999 6.37917 3.18147 6.37917 2.52324Z" fill="#D1DCEE"/>
<path d="M5.36908 1.3713C5.35037 1.35301 5.36908 1.29816 5.38778 1.26159C5.40649 1.22502 5.44391 1.20674 5.46261 1.22502C5.48132 1.24331 5.46261 1.29816 5.44391 1.33473C5.4252 1.3713 5.38778 1.38958 5.36908 1.3713Z" fill="#F1E6DD"/>
<path d="M5.03224 1.93809C5.01353 1.90152 5.03224 1.82839 5.06966 1.75525C5.12578 1.68211 5.1819 1.66383 5.2006 1.7004C5.21931 1.73697 5.2006 1.82839 5.16319 1.88324C5.12578 1.95638 5.05095 1.97466 5.03224 1.93809Z" fill="#F1E6DD"/>
<path d="M6.54768 4.57103V4.69901C6.54768 5.0647 6.69734 5.43038 6.80958 5.75949C6.92182 6.03376 7.01536 6.27145 7.01536 6.49086C7.01536 7.0211 6.58509 7.44164 6.04259 7.44164C5.50009 7.44164 5.06982 7.0211 5.06982 6.49086C5.06982 6.01547 5.64974 4.90014 6.26707 4.55274L6.54768 4.38818V4.57103Z" fill="url(#paint4_radial_5_2994)"/>
<path d="M6.4355 4.699C6.4355 5.08297 6.58516 5.46693 6.71611 5.79605C6.82835 6.05203 6.90318 6.28972 6.90318 6.49085C6.90318 6.94795 6.51033 7.33192 6.04265 7.33192C5.57498 7.33192 5.18213 6.94795 5.18213 6.49085C5.18213 6.05203 5.74334 4.97326 6.32326 4.64415L6.4355 4.58929V4.699Z" fill="url(#paint5_radial_5_2994)"/>
<path d="M6.67846 6.27144C6.67846 6.10688 6.64104 5.92404 6.56621 5.72292C6.67846 5.99718 6.77199 6.23487 6.77199 6.436C6.77199 6.85653 6.41656 7.20393 5.9863 7.20393C5.96759 7.20393 5.94888 7.20393 5.93018 7.20393C6.34173 7.16736 6.67846 6.76511 6.67846 6.27144Z" fill="#D1DCEE"/>
<path d="M5.93011 5.41212C5.91141 5.39384 5.93011 5.35727 5.94882 5.3207C5.96753 5.28413 5.98623 5.28413 6.00494 5.30242C6.02365 5.3207 6.00494 5.35727 5.98623 5.39384C5.96753 5.41212 5.93011 5.41212 5.93011 5.41212Z" fill="#F1E6DD"/>
<path d="M5.66798 5.83268C5.64928 5.8144 5.66798 5.74126 5.7054 5.68641C5.74281 5.63155 5.78023 5.61327 5.79893 5.64984C5.81764 5.66812 5.79893 5.74126 5.76152 5.79611C5.7241 5.83268 5.68669 5.85096 5.66798 5.83268Z" fill="#F1E6DD"/>
<path d="M9.01692 7.47821V7.60619C9.01692 7.97188 9.16657 8.33756 9.27882 8.66668C9.39106 8.94094 9.48459 9.17863 9.48459 9.39804C9.48459 9.92828 9.05433 10.3488 8.51183 10.3488C7.96932 10.3488 7.53906 9.92828 7.53906 9.39804C7.53906 8.92265 8.11898 7.80732 8.73631 7.45992L9.01692 7.29536V7.47821Z" fill="url(#paint6_radial_5_2994)"/>
<path d="M8.90474 7.6062C8.90474 7.99016 9.05439 8.37413 9.18534 8.70324C9.29759 8.95922 9.37241 9.19692 9.37241 9.39804C9.37241 9.85515 8.97957 10.2391 8.51189 10.2391C8.04421 10.2391 7.65137 9.85515 7.65137 9.39804C7.65137 8.95922 8.21258 7.88046 8.7925 7.55134L8.90474 7.49649V7.6062Z" fill="url(#paint7_radial_5_2994)"/>
<path d="M9.14818 9.17865C9.14818 9.01409 9.11077 8.83125 9.03594 8.63013C9.14818 8.90439 9.24172 9.14208 9.24172 9.34321C9.24172 9.76374 8.88628 10.1111 8.45602 10.1111C8.43732 10.1111 8.41861 10.1111 8.3999 10.1111C8.81146 10.0746 9.14818 9.67232 9.14818 9.17865Z" fill="#D1DCEE"/>
<path d="M8.38128 8.31929C8.36258 8.301 8.38128 8.26443 8.39999 8.22786C8.4187 8.1913 8.43741 8.1913 8.45611 8.20958C8.47482 8.22786 8.45611 8.26443 8.43741 8.301C8.4187 8.31929 8.39999 8.33757 8.38128 8.31929Z" fill="#F1E6DD"/>
<path d="M8.1382 8.73985C8.11949 8.72156 8.1382 8.64842 8.17561 8.59357C8.21303 8.53872 8.25044 8.52044 8.26915 8.557C8.28785 8.57529 8.26915 8.64842 8.23173 8.70328C8.19432 8.75813 8.15691 8.75813 8.1382 8.73985Z" fill="#F1E6DD"/>
<path d="M5.59357 8.35583V8.55696C5.59357 9.16034 5.81805 9.74543 6.02383 10.2757C6.19219 10.7145 6.36056 11.1167 6.36056 11.4641C6.36056 12.3235 5.64969 13 4.78916 13C3.90993 13 3.21777 12.3052 3.21777 11.4641C3.21777 10.6962 4.15313 8.88607 5.1446 8.30098L5.61227 8.02672V8.35583H5.59357Z" fill="url(#paint8_radial_5_2994)"/>
<path d="M5.40644 8.55693C5.40644 9.19688 5.64963 9.80026 5.85541 10.3305C6.02377 10.751 6.17343 11.135 6.17343 11.4458C6.17343 12.1955 5.55609 12.7989 4.78911 12.7989C4.02212 12.7989 3.40479 12.1955 3.40479 11.4458C3.40479 10.7327 4.32143 8.97747 5.23807 8.44723L5.42515 8.33752V8.55693H5.40644Z" fill="url(#paint9_radial_5_2994)"/>
<path d="M5.7993 11.0984C5.7993 10.8425 5.72447 10.5499 5.63094 10.2208C5.7993 10.6596 5.96766 11.0619 5.96766 11.3727C5.96766 12.0675 5.40645 12.616 4.69559 12.616C4.65817 12.616 4.63946 12.616 4.60205 12.616C5.2568 12.5612 5.7993 11.9029 5.7993 11.0984Z" fill="#D1DCEE"/>
<path d="M4.56537 9.6905C4.54666 9.67221 4.56537 9.59907 4.58407 9.56251C4.62149 9.50765 4.6589 9.48937 4.67761 9.52594C4.69632 9.54422 4.67761 9.61736 4.6589 9.65393C4.64019 9.70878 4.58407 9.72706 4.56537 9.6905Z" fill="#F1E6DD"/>
<path d="M4.15373 10.3852C4.11632 10.3487 4.15373 10.239 4.20985 10.1658C4.26597 10.0927 4.3408 10.0561 4.35951 10.0927C4.39692 10.1293 4.37822 10.239 4.30339 10.3121C4.26597 10.4035 4.19115 10.4218 4.15373 10.3852Z" fill="#F1E6DD"/>
<path d="M10.2332 1.42613V1.62726C10.2332 2.23063 10.4577 2.81573 10.6635 3.34597C10.8318 3.78479 11.0002 4.18704 11.0002 4.53444C11.0002 5.39379 10.2893 6.0703 9.42881 6.0703C8.54958 6.0703 7.85742 5.37551 7.85742 4.53444C7.85742 3.7665 8.79277 1.95637 9.78425 1.37128L10.2519 1.09702V1.42613H10.2332Z" fill="url(#paint10_radial_5_2994)"/>
<path d="M10.0453 1.62728C10.0453 2.26722 10.2885 2.8706 10.4942 3.40084C10.6626 3.82138 10.8123 4.20534 10.8123 4.51617C10.8123 5.26582 10.1949 5.88748 9.40922 5.88748C8.64223 5.88748 8.0249 5.28411 8.0249 4.51617C8.0249 3.80309 8.94155 2.04781 9.85819 1.51757L10.0453 1.40787V1.62728Z" fill="url(#paint11_radial_5_2994)"/>
<path d="M10.4389 4.16878C10.4389 3.9128 10.3641 3.62025 10.2706 3.29114C10.439 3.72996 10.6073 4.13221 10.6073 4.44304C10.6073 5.13784 10.0461 5.68636 9.33523 5.68636C9.29782 5.68636 9.27911 5.68636 9.2417 5.68636C9.89645 5.64979 10.4389 4.99156 10.4389 4.16878Z" fill="#D1DCEE"/>
<path d="M9.20404 2.77915C9.18533 2.76086 9.20404 2.68773 9.22274 2.65116C9.26016 2.59631 9.29757 2.57802 9.31628 2.61459C9.33499 2.63287 9.31628 2.70601 9.29757 2.74258C9.26016 2.77915 9.22274 2.79743 9.20404 2.77915Z" fill="#F1E6DD"/>
<path d="M8.7924 3.47391C8.75499 3.43735 8.7924 3.32764 8.84852 3.25451C8.90465 3.18137 8.97947 3.1448 8.99818 3.18137C9.03559 3.21794 9.01689 3.32764 8.94206 3.40078C8.90465 3.47391 8.82982 3.51048 8.7924 3.47391Z" fill="#F1E6DD"/>
<defs>
<radialGradient id="paint0_radial_5_2994" cx="0" cy="0" r="1" gradientUnits="userSpaceOnUse" gradientTransform="translate(0.183365 3.65639) scale(7.04115 6.88197)">
<stop offset="0.005618" stop-color="#D3DFF2"/>
<stop offset="0.5393" stop-color="#1998D5"/>
<stop offset="1" stop-color="#0073BB"/>
</radialGradient>
<radialGradient id="paint1_radial_5_2994" cx="0" cy="0" r="1" gradientUnits="userSpaceOnUse" gradientTransform="translate(2.05636 5.21474) rotate(180) scale(2.59087 2.5323)">
<stop offset="0.005618" stop-color="#A9D1EF"/>
<stop offset="0.5393" stop-color="#1998D5"/>
<stop offset="1" stop-color="#0073BB"/>
</radialGradient>
<radialGradient id="paint2_radial_5_2994" cx="0" cy="0" r="1" gradientUnits="userSpaceOnUse" gradientTransform="translate(4.26227 1.14793) scale(4.23764 4.14185)">
<stop offset="0.005618" stop-color="#D3DFF2"/>
<stop offset="0.5393" stop-color="#1998D5"/>
<stop offset="1" stop-color="#0073BB"/>
</radialGradient>
<radialGradient id="paint3_radial_5_2994" cx="0" cy="0" r="1" gradientUnits="userSpaceOnUse" gradientTransform="translate(5.65323 1.98493) rotate(180) scale(1.55819 1.52297)">
<stop offset="0.005618" stop-color="#A9D1EF"/>
<stop offset="0.5393" stop-color="#1998D5"/>
<stop offset="1" stop-color="#0073BB"/>
</radialGradient>
<radialGradient id="paint4_radial_5_2994" cx="0" cy="0" r="1" gradientUnits="userSpaceOnUse" gradientTransform="translate(5.1635 5.30353) scale(3.16504 3.09349)">
<stop offset="0.005618" stop-color="#D3DFF2"/>
<stop offset="0.5393" stop-color="#1998D5"/>
<stop offset="1" stop-color="#0073BB"/>
</radialGradient>
<radialGradient id="paint5_radial_5_2994" cx="0" cy="0" r="1" gradientUnits="userSpaceOnUse" gradientTransform="translate(6.07425 5.92074) rotate(180) scale(1.16411 1.13779)">
<stop offset="0.005618" stop-color="#A9D1EF"/>
<stop offset="0.5393" stop-color="#1998D5"/>
<stop offset="1" stop-color="#0073BB"/>
</radialGradient>
<radialGradient id="paint6_radial_5_2994" cx="0" cy="0" r="1" gradientUnits="userSpaceOnUse" gradientTransform="translate(7.63088 8.2151) scale(3.16516 3.09361)">
<stop offset="0.005618" stop-color="#D3DFF2"/>
<stop offset="0.5393" stop-color="#1998D5"/>
<stop offset="1" stop-color="#0073BB"/>
</radialGradient>
<radialGradient id="paint7_radial_5_2994" cx="0" cy="0" r="1" gradientUnits="userSpaceOnUse" gradientTransform="translate(8.54157 8.83216) rotate(180) scale(1.16408 1.13777)">
<stop offset="0.005618" stop-color="#A9D1EF"/>
<stop offset="0.5393" stop-color="#1998D5"/>
<stop offset="1" stop-color="#0073BB"/>
</radialGradient>
<radialGradient id="paint8_radial_5_2994" cx="0" cy="0" r="1" gradientUnits="userSpaceOnUse" gradientTransform="translate(3.26376 9.46515) scale(5.14302 5.02675)">
<stop offset="0.005618" stop-color="#D3DFF2"/>
<stop offset="0.5393" stop-color="#1998D5"/>
<stop offset="1" stop-color="#0073BB"/>
</radialGradient>
<radialGradient id="paint9_radial_5_2994" cx="0" cy="0" r="1" gradientUnits="userSpaceOnUse" gradientTransform="translate(4.79217 10.5655) rotate(180) scale(1.8919 1.84913)">
<stop offset="0.005618" stop-color="#A9D1EF"/>
<stop offset="0.5393" stop-color="#1998D5"/>
<stop offset="1" stop-color="#0073BB"/>
</radialGradient>
<radialGradient id="paint10_radial_5_2994" cx="0" cy="0" r="1" gradientUnits="userSpaceOnUse" gradientTransform="translate(7.89934 2.54511) scale(5.14305 5.02679)">
<stop offset="0.005618" stop-color="#D3DFF2"/>
<stop offset="0.5393" stop-color="#1998D5"/>
<stop offset="1" stop-color="#0073BB"/>
</radialGradient>
<radialGradient id="paint11_radial_5_2994" cx="0" cy="0" r="1" gradientUnits="userSpaceOnUse" gradientTransform="translate(9.4268 3.6458) rotate(180) scale(1.8919 1.84913)">
<stop offset="0.005618" stop-color="#A9D1EF"/>
<stop offset="0.5393" stop-color="#1998D5"/>
<stop offset="1" stop-color="#0073BB"/>
</radialGradient>
</defs>
</svg>
