<svg width="181" height="86" viewBox="0 0 181 86" fill="none" xmlns="http://www.w3.org/2000/svg">
<path d="M164.716 43.4565C161.539 43.4565 158.56 44.2781 155.979 45.7389C154.589 37.3397 146.646 30.8577 137.015 30.8577C135.824 30.8577 134.732 30.949 133.54 31.1316C135.029 28.3015 135.923 25.1062 135.923 21.7282C135.923 9.76858 125.399 0 112.293 0C99.9813 0 89.8541 8.67304 88.762 19.811C86.8756 18.8068 84.592 18.259 82.2091 18.259C78.4362 18.259 74.9612 19.7197 72.479 22.0021C68.6069 17.1635 62.2525 13.9682 55.2032 13.9682C43.3881 13.9682 33.7574 22.8238 33.7574 33.7792V33.8705C24.8216 34.6008 17.673 40.9002 16.1837 48.9342C15.0915 48.6603 13.9994 48.569 12.9072 48.569C5.75861 48.569 0 53.8641 0 60.4374C0 67.0106 5.75861 72.3057 12.9072 72.3057C15.9851 72.3057 18.7651 71.3015 20.9494 69.6582C22.3394 70.845 24.0273 71.5754 26.013 71.758C26.9066 76.1401 31.1759 79.518 36.2395 79.518C39.4167 79.518 42.296 78.1486 44.1824 76.1401C47.6574 80.8875 53.5153 83.9915 60.1675 83.9915C66.8197 83.9915 72.6776 80.8875 76.1526 76.1401C80.1241 82.0743 87.1734 86 95.3149 86C104.052 86 111.697 81.344 115.371 74.6794C118.647 79.1529 124.207 82.1656 130.562 82.1656C137.611 82.1656 143.767 78.5138 146.745 73.0361C147.937 73.4013 149.227 73.6752 150.518 73.6752C152.901 73.6752 154.986 73.0361 156.773 71.8493C159.057 73.0361 161.737 73.6752 164.617 73.6752C173.652 73.6752 180.999 66.9193 180.999 58.6115C181.098 50.2123 173.751 43.4565 164.716 43.4565Z" fill="white" fill-opacity="0.1"/>
</svg>
