<svg width="80" height="30" viewBox="0 0 80 30" fill="none" xmlns="http://www.w3.org/2000/svg">
<rect width="80" height="30" rx="5" fill="#FEEDE9"/>
<path d="M40 0H75C77.7614 0 80 2.23858 80 5V25C80 27.7614 77.7614 30 75 30H40V0Z" fill="#1F4DC5"/>
<path d="M20.424 20.16C19.4427 20.16 18.6267 19.9787 17.976 19.616C17.336 19.2533 16.8507 18.7467 16.52 18.096C16.1893 17.4453 16.008 16.688 15.976 15.824C15.9653 15.3867 15.96 14.9173 15.96 14.416C15.96 13.9147 15.9653 13.4347 15.976 12.976C16.008 12.112 16.1893 11.3547 16.52 10.704C16.8507 10.0533 17.336 9.54667 17.976 9.184C18.6267 8.82133 19.4427 8.64 20.424 8.64C21.16 8.64 21.8053 8.74133 22.36 8.944C22.9147 9.14667 23.3733 9.41867 23.736 9.76C24.1093 10.1013 24.392 10.4853 24.584 10.912C24.776 11.328 24.8827 11.76 24.904 12.208C24.9147 12.304 24.8827 12.384 24.808 12.448C24.744 12.512 24.664 12.544 24.568 12.544H23.688C23.592 12.544 23.5067 12.5173 23.432 12.464C23.368 12.4107 23.32 12.3147 23.288 12.176C23.1067 11.344 22.7653 10.7733 22.264 10.464C21.7733 10.1547 21.1547 10 20.408 10C19.5547 10 18.8773 10.2453 18.376 10.736C17.8747 11.216 17.6027 11.9893 17.56 13.056C17.528 13.9307 17.528 14.8267 17.56 15.744C17.6027 16.8107 17.8747 17.5893 18.376 18.08C18.8773 18.56 19.5547 18.8 20.408 18.8C21.1547 18.8 21.7733 18.6453 22.264 18.336C22.7653 18.0267 23.1067 17.456 23.288 16.624C23.32 16.4853 23.368 16.3893 23.432 16.336C23.5067 16.2827 23.592 16.256 23.688 16.256H24.568C24.664 16.256 24.744 16.288 24.808 16.352C24.8827 16.416 24.9147 16.496 24.904 16.592C24.8827 17.04 24.776 17.4773 24.584 17.904C24.392 18.32 24.1093 18.6987 23.736 19.04C23.3733 19.3813 22.9147 19.6533 22.36 19.856C21.8053 20.0587 21.16 20.16 20.424 20.16Z" fill="#272722"/>
<path d="M56.76 20C56.6427 20 56.552 19.968 56.488 19.904C56.424 19.8293 56.392 19.7387 56.392 19.632V9.184C56.392 9.06667 56.424 8.976 56.488 8.912C56.552 8.83733 56.6427 8.8 56.76 8.8H63.288C63.4053 8.8 63.496 8.83733 63.56 8.912C63.624 8.976 63.656 9.06667 63.656 9.184V9.824C63.656 9.94133 63.624 10.032 63.56 10.096C63.496 10.16 63.4053 10.192 63.288 10.192H57.944V13.92H62.968C63.0853 13.92 63.176 13.9573 63.24 14.032C63.304 14.096 63.336 14.1867 63.336 14.304V14.944C63.336 15.0507 63.304 15.1413 63.24 15.216C63.176 15.28 63.0853 15.312 62.968 15.312H57.944V19.632C57.944 19.7387 57.9067 19.8293 57.832 19.904C57.768 19.968 57.6773 20 57.56 20H56.76Z" fill="#E9EEFA"/>
</svg>
