<svg width="24" height="30" viewBox="0 0 24 30" fill="none" xmlns="http://www.w3.org/2000/svg">
<g clip-path="url(#clip0_101_643)">
<path d="M20.3666 4.84349C20.3666 4.71993 20.3921 4.62109 20.3921 4.49753C20.3921 2.00165 18.2536 0 15.6059 0C13.442 0 11.6344 1.33443 11.0234 3.1631C10.336 2.66886 9.44501 2.37232 8.4776 2.37232C6.28819 2.37232 4.48065 3.90445 4.48065 5.78254C4.48065 5.95552 4.50611 6.10379 4.53157 6.27677C1.93483 6.69687 0 8.08072 0 9.76112C0 11.7381 2.72403 13.3443 6.10998 13.3443C7.30652 13.3443 8.40122 13.1466 9.34318 12.8007C10.3615 13.2455 11.5835 13.5173 12.9328 13.5173C14.2312 13.5173 15.4022 13.2702 16.3951 12.8748C17.2862 13.3443 18.3299 13.6161 19.4501 13.6161C22.5051 13.6161 25 11.6392 25 9.21746C25 6.99341 23.0143 5.18946 20.3666 4.84349Z" fill="url(#paint0_radial_101_643)"/>
<path d="M11.4304 3.48434L11.2777 3.92915L10.8958 3.65732C10.2848 3.21251 9.4956 2.96539 8.70639 2.96539C6.82248 2.96539 5.29498 4.27511 5.29498 5.85666C5.29498 5.98022 5.29498 6.12849 5.32044 6.27676L5.37136 6.59801L5.0404 6.64744C2.69824 7.01811 1.04346 8.22898 1.04346 9.58813C1.04346 11.2685 3.48745 12.6277 6.46606 12.6277C7.50985 12.6277 8.52818 12.4547 9.39376 12.1334L9.52106 12.084L9.64835 12.1334C10.5903 12.5535 11.7105 12.7759 12.907 12.7759C14.0272 12.7759 15.1219 12.5782 16.0384 12.1829L16.1911 12.1087L16.3439 12.1829C17.1585 12.603 18.1005 12.8254 19.0679 12.8254C21.7665 12.8254 23.9813 11.1203 23.9813 8.99505C23.9813 7.11696 22.2756 5.53541 19.908 5.21416L19.6025 5.16473L19.628 4.54694C19.6025 2.47116 17.7186 0.716629 15.4274 0.716629C13.5689 0.716629 11.965 1.82866 11.4304 3.48434Z" fill="url(#paint1_radial_101_643)"/>
<path d="M23.32 8.89623C23.32 7.38882 21.8689 6.0791 19.8577 5.80727L18.8903 5.68371C18.8903 5.68371 18.9412 4.49755 18.9412 4.44812C18.9412 2.69359 17.3882 1.26031 15.4789 1.26031C14.486 1.26031 13.595 1.63099 12.9585 2.27349C13.4931 1.95224 14.155 1.75455 14.8424 1.75455C16.7772 1.77926 18.3302 3.21254 18.3302 4.96707C18.3302 5.01649 18.2793 6.20265 18.2793 6.20265L19.2467 6.32621C21.2579 6.59804 22.709 7.88305 22.709 9.41517C22.709 10.1318 22.378 10.799 21.8434 11.318C22.7345 10.7249 23.32 9.8847 23.32 8.89623Z" fill="url(#paint2_radial_101_643)"/>
<path d="M13.2128 4.29987C13.2128 4.22573 13.2128 4.1516 13.2128 4.07746C13.2128 2.4712 11.8126 1.16148 10.1069 1.16148C8.70672 1.16148 7.53564 2.02639 7.12831 3.21255C6.67006 2.8913 6.10998 2.69361 5.47352 2.69361C4.04786 2.69361 2.90224 3.68208 2.90224 4.91766C2.90224 5.01651 2.90224 5.14007 2.9277 5.23891C1.24745 5.51074 0 6.42508 0 7.48768C0 8.77269 1.78208 9.81058 3.94603 9.81058C4.70978 9.81058 5.42261 9.68702 6.0336 9.46461C6.69552 9.76116 7.48472 9.93414 8.37576 9.93414C9.21589 9.93414 9.97963 9.78587 10.6161 9.51404C11.1762 9.81058 11.8635 9.98356 12.6018 9.98356C14.5876 9.98356 16.1914 8.69855 16.1914 7.14172C16.2169 5.70844 14.9185 4.52227 13.2128 4.29987Z" fill="url(#paint3_radial_101_643)"/>
<path d="M7.40861 3.43498L7.30678 3.70681L7.0522 3.53383C6.64487 3.262 6.1357 3.08902 5.62653 3.08902C4.40454 3.08902 3.41167 3.92922 3.41167 4.96711C3.41167 5.06596 3.41167 5.14009 3.43713 5.23894L3.46258 5.46134L3.23346 5.48605C1.70597 5.73317 0.636719 6.49923 0.636719 7.38885C0.636719 8.47617 2.21513 9.36579 4.14996 9.36579C4.81187 9.36579 5.47379 9.26694 6.05933 9.04454L6.1357 9.01983L6.21207 9.04454C6.82307 9.31637 7.56136 9.46464 8.32511 9.46464C9.0634 9.46464 9.75077 9.34108 10.3618 9.09396L10.4636 9.04454L10.5654 9.09396C11.1001 9.36579 11.7111 9.51406 12.3475 9.51406C14.1041 9.51406 15.5298 8.40203 15.5298 7.04289C15.5298 5.83202 14.4096 4.79413 12.8821 4.59643L12.6785 4.57172L12.7039 4.17633C12.7039 2.79248 11.4819 1.65574 10.0054 1.65574C8.80882 1.63103 7.76503 2.34767 7.40861 3.43498Z" fill="url(#paint4_radial_101_643)"/>
<path d="M15.1223 6.94402C15.1223 5.95555 14.1803 5.11535 12.882 4.94237L12.271 4.86823C12.271 4.86823 12.2964 4.10217 12.2964 4.07746C12.2964 2.94072 11.2781 2.00168 10.0561 2.00168C9.41963 2.00168 8.83409 2.2488 8.42676 2.64418C8.78317 2.42178 9.19051 2.29822 9.64875 2.29822C10.8962 2.29822 11.8891 3.23726 11.8891 4.374C11.8891 4.39871 11.8636 5.16477 11.8636 5.16477L12.4746 5.23891C13.773 5.41189 14.7149 6.25209 14.7149 7.24056C14.7149 7.71008 14.5113 8.13018 14.1549 8.47614C14.7404 8.13018 15.1223 7.56181 15.1223 6.94402Z" fill="url(#paint5_radial_101_643)"/>
<path d="M7.76476 12.4053V12.7759C7.76476 13.888 8.19755 14.9753 8.57943 15.939C8.91039 16.7792 9.19043 17.4712 9.19043 18.1384C9.19043 19.7199 7.8666 21.0049 6.23727 21.0049C4.60794 21.0049 3.30957 19.7199 3.30957 18.1631C3.30957 16.7545 5.04073 13.3937 6.89918 12.3311L7.76476 11.8369V12.4053Z" fill="url(#paint6_radial_101_643)"/>
<path d="M7.40845 12.8006C7.40845 13.9868 7.8667 15.0988 8.24857 16.0873C8.55407 16.8781 8.83411 17.57 8.83411 18.1631C8.83411 19.5469 7.66303 20.6837 6.23737 20.6837C4.8117 20.6837 3.64062 19.5469 3.64062 18.1631C3.64063 16.8286 5.34633 13.5914 7.07749 12.6029L7.40845 12.4052V12.8006Z" fill="url(#paint7_radial_101_643)"/>
<path d="M8.14651 17.4958C8.14651 17.0263 8.01922 16.4827 7.84101 15.8649C8.17197 16.6804 8.47747 17.4217 8.47747 18.0148C8.47747 19.2751 7.40822 20.313 6.10985 20.313C6.05893 20.313 5.98256 20.313 5.93164 20.313C7.15364 20.2141 8.14651 18.9785 8.14651 17.4958Z" fill="#D1DCEE"/>
<path d="M5.85556 14.9012C5.8301 14.8517 5.8301 14.7282 5.90647 14.654C5.95739 14.5552 6.03377 14.5305 6.08468 14.5799C6.11014 14.6293 6.11014 14.7529 6.03377 14.827C5.98285 14.9259 5.90647 14.9506 5.85556 14.9012Z" fill="#F1E6DD"/>
<path d="M5.09175 16.1861C5.04084 16.112 5.09175 15.9143 5.19359 15.766C5.29542 15.6178 5.42271 15.5684 5.49908 15.6425C5.55 15.7166 5.52454 15.9143 5.39725 16.0626C5.29542 16.2109 5.14267 16.2603 5.09175 16.1861Z" fill="#F1E6DD"/>
<path d="M11.7616 10.0083V10.2307C11.7616 10.8979 12.0161 11.5651 12.2453 12.1335C12.4489 12.6277 12.6271 13.0725 12.6271 13.4679C12.6271 14.4069 11.8379 15.1977 10.8451 15.1977C9.87765 15.1977 9.06299 14.4317 9.06299 13.4679C9.06299 12.603 10.1068 10.6013 11.2269 9.95883L11.7361 9.66229V10.0083H11.7616Z" fill="url(#paint8_radial_101_643)"/>
<path d="M11.5582 10.2306C11.5582 10.9473 11.8382 11.6145 12.0674 12.2076C12.2456 12.6771 12.4238 13.0972 12.4238 13.4679C12.4238 14.3081 11.7109 14.9753 10.8708 14.9753C10.0307 14.9753 9.31787 14.2834 9.31787 13.4679C9.31787 12.6771 10.3362 10.7249 11.38 10.1318L11.5837 10.0082V10.2306H11.5582Z" fill="url(#paint9_radial_101_643)"/>
<path d="M11.9908 13.0478C11.9908 12.7513 11.9144 12.43 11.8126 12.0594C12.0163 12.5536 12.1945 12.9984 12.1945 13.3444C12.1945 14.1104 11.558 14.7282 10.7688 14.7282C10.7434 14.7282 10.6925 14.7282 10.667 14.7282C11.4053 14.7035 11.9908 13.9622 11.9908 13.0478Z" fill="#D1DCEE"/>
<path d="M10.6155 11.491C10.5901 11.4662 10.6155 11.3921 10.641 11.3427C10.6664 11.2933 10.7174 11.2686 10.7428 11.2933C10.7683 11.318 10.7428 11.3921 10.7174 11.4415C10.6919 11.5157 10.641 11.5404 10.6155 11.491Z" fill="#F1E6DD"/>
<path d="M10.1574 12.2817C10.132 12.2323 10.1574 12.1334 10.2084 12.0346C10.2847 11.9357 10.3611 11.911 10.3866 11.9604C10.412 12.0099 10.3866 12.1087 10.3357 12.2076C10.2593 12.2817 10.1829 12.3064 10.1574 12.2817Z" fill="#F1E6DD"/>
<path d="M12.2202 15.8402V16.0132C12.2202 16.5074 12.4238 17.0017 12.5766 17.4465C12.7293 17.8171 12.8566 18.1384 12.8566 18.4349C12.8566 19.1516 12.2711 19.7199 11.5328 19.7199C10.7945 19.7199 10.209 19.1516 10.209 18.4349C10.209 17.7924 10.9982 16.285 11.8383 15.8155L12.2202 15.5684V15.8402Z" fill="url(#paint10_radial_101_643)"/>
<path d="M12.0675 16.0132C12.0675 16.5321 12.2712 17.0511 12.4494 17.4959C12.6021 17.8419 12.704 18.1631 12.704 18.4349C12.704 19.0527 12.1694 19.5717 11.5329 19.5717C10.8964 19.5717 10.3618 19.0527 10.3618 18.4349C10.3618 17.8419 11.1256 16.3839 11.9148 15.9391L12.0675 15.8649V16.0132Z" fill="url(#paint11_radial_101_643)"/>
<path d="M12.3982 18.1137C12.3982 17.8912 12.3473 17.6441 12.2455 17.3723C12.3982 17.743 12.5255 18.0642 12.5255 18.3361C12.5255 18.9044 12.0418 19.3739 11.4563 19.3739C11.4308 19.3739 11.4053 19.3739 11.3799 19.3739C11.94 19.3245 12.3982 18.7809 12.3982 18.1137Z" fill="#D1DCEE"/>
<path d="M11.3543 16.9522C11.3288 16.9275 11.3543 16.8781 11.3798 16.8287C11.4052 16.7792 11.4307 16.7792 11.4561 16.804C11.4816 16.8287 11.4561 16.8781 11.4307 16.9275C11.4052 16.9522 11.3798 16.9769 11.3543 16.9522Z" fill="#F1E6DD"/>
<path d="M11.0237 17.5206C10.9982 17.4711 11.0237 17.397 11.0746 17.3229C11.1255 17.2487 11.1764 17.224 11.2019 17.2734C11.2273 17.2982 11.2019 17.397 11.151 17.4711C11.1 17.5453 11.0491 17.57 11.0237 17.5206Z" fill="#F1E6DD"/>
<path d="M15.5805 19.7694V19.9423C15.5805 20.4366 15.7842 20.9308 15.937 21.3756C16.0897 21.7463 16.217 22.0676 16.217 22.3641C16.217 23.0807 15.6315 23.6491 14.8932 23.6491C14.1549 23.6491 13.5693 23.0807 13.5693 22.3641C13.5693 21.7216 14.3585 20.2142 15.1987 19.7447L15.5805 19.5222V19.7694Z" fill="url(#paint12_radial_101_643)"/>
<path d="M15.4025 19.9424C15.4025 20.4613 15.6061 20.9802 15.7844 21.4251C15.9371 21.771 16.0389 22.0923 16.0389 22.3641C16.0389 22.9819 15.5043 23.5008 14.8679 23.5008C14.2314 23.5008 13.6968 22.9819 13.6968 22.3641C13.6968 21.771 14.4605 20.313 15.2497 19.8682L15.4025 19.7941V19.9424Z" fill="url(#paint13_radial_101_643)"/>
<path d="M15.7337 22.0429C15.7337 21.8205 15.6827 21.5733 15.5809 21.3015C15.7337 21.6722 15.8609 21.9934 15.8609 22.2653C15.8609 22.8336 15.3772 23.3032 14.7917 23.3032C14.7662 23.3032 14.7408 23.3032 14.7153 23.3032C15.3009 23.2785 15.7337 22.7101 15.7337 22.0429Z" fill="#D1DCEE"/>
<path d="M14.7146 20.8814C14.6892 20.8567 14.7146 20.8072 14.7401 20.7578C14.7656 20.7084 14.791 20.7084 14.8165 20.7331C14.8419 20.7578 14.8165 20.8072 14.791 20.8567C14.7656 20.9061 14.7401 20.9061 14.7146 20.8814Z" fill="#F1E6DD"/>
<path d="M14.384 21.4497C14.3586 21.425 14.384 21.3261 14.4349 21.252C14.4858 21.1779 14.5368 21.1532 14.5622 21.2026C14.5877 21.2273 14.5622 21.3261 14.5113 21.4003C14.4604 21.4744 14.4095 21.4991 14.384 21.4497Z" fill="#F1E6DD"/>
<path d="M10.8963 20.9308V21.2026C10.8963 22.0181 11.2018 22.8089 11.4818 23.5255C11.7109 24.1186 11.9401 24.6623 11.9401 25.1318C11.9401 26.2932 10.9727 27.2076 9.80158 27.2076C8.60504 27.2076 7.66309 26.2685 7.66309 25.1318C7.66309 24.0939 8.936 21.6474 10.2853 20.8567L10.9217 20.486V20.9308H10.8963Z" fill="url(#paint14_radial_101_643)"/>
<path d="M10.6416 21.2027C10.6416 22.0676 10.9725 22.883 11.2526 23.5997C11.4817 24.1681 11.6854 24.687 11.6854 25.1071C11.6854 26.1203 10.8452 26.9358 9.776 26.9358C8.73221 26.9358 7.89209 26.1203 7.89209 25.1071C7.89209 24.1433 9.13954 21.771 10.387 21.0544L10.6416 20.9061V21.2027Z" fill="url(#paint15_radial_101_643)"/>
<path d="M11.1762 24.6376C11.1762 24.2916 11.0744 23.8962 10.9471 23.4514C11.1762 24.0445 11.4053 24.5881 11.4053 25.0082C11.4053 25.9473 10.6416 26.6886 9.67417 26.6886C9.62325 26.6886 9.59779 26.6886 9.54688 26.6886C10.4634 26.6392 11.1762 25.7249 11.1762 24.6376Z" fill="#D1DCEE"/>
<path d="M9.52129 22.7595C9.49583 22.7348 9.52129 22.6359 9.54675 22.5865C9.59766 22.5124 9.64858 22.4876 9.67404 22.5371C9.69949 22.5618 9.67404 22.6606 9.64858 22.71C9.59766 22.7595 9.54675 22.7842 9.52129 22.7595Z" fill="#F1E6DD"/>
<path d="M8.96141 23.6985C8.9105 23.6491 8.96141 23.5008 9.03779 23.402C9.11416 23.3031 9.216 23.2537 9.24145 23.3031C9.29237 23.3526 9.26691 23.5008 9.16508 23.5997C9.11416 23.6985 9.01233 23.7479 8.96141 23.6985Z" fill="#F1E6DD"/>
<path d="M17.2098 11.5898V11.8616C17.2098 12.6771 17.5153 13.4679 17.7953 14.1845C18.0244 14.7776 18.2535 15.3213 18.2535 15.7908C18.2535 16.9522 17.2861 17.8666 16.1151 17.8666C14.9185 17.8666 13.9766 16.9275 13.9766 15.7908C13.9766 14.7529 15.2495 12.3064 16.5988 11.5157L17.2352 11.145V11.5898H17.2098Z" fill="url(#paint16_radial_101_643)"/>
<path d="M16.9551 11.8617C16.9551 12.7266 17.286 13.5421 17.5661 14.2587C17.7952 14.8271 17.9988 15.346 17.9988 15.7661C17.9988 16.7793 17.1587 17.5948 16.0895 17.5948C15.0457 17.5948 14.2056 16.7793 14.2056 15.7661C14.2056 14.8024 15.453 12.43 16.7005 11.7134L16.9551 11.5651V11.8617Z" fill="url(#paint17_radial_101_643)"/>
<path d="M17.4897 15.2966C17.4897 14.9506 17.3878 14.5552 17.2606 14.1104C17.4897 14.7035 17.7188 15.2471 17.7188 15.6672C17.7188 16.6063 16.9551 17.3476 15.9876 17.3476C15.9367 17.3476 15.9113 17.3476 15.8604 17.3476C16.7768 17.2735 17.4897 16.3839 17.4897 15.2966Z" fill="#D1DCEE"/>
<path d="M15.8348 13.3937C15.8093 13.369 15.8348 13.2702 15.8602 13.2208C15.9111 13.1466 15.9621 13.1219 15.9875 13.1713C16.013 13.1961 15.9875 13.2949 15.9621 13.3443C15.9111 13.4185 15.8602 13.4432 15.8348 13.3937Z" fill="#F1E6DD"/>
<path d="M15.2749 14.3328C15.224 14.2834 15.2749 14.1351 15.3513 14.0363C15.4276 13.9374 15.5295 13.888 15.5549 13.9374C15.6058 13.9868 15.5804 14.1351 15.4786 14.2339C15.4022 14.3575 15.3003 14.3822 15.2749 14.3328Z" fill="#F1E6DD"/>
</g>
<defs>
<radialGradient id="paint0_radial_101_643" cx="0" cy="0" r="1" gradientUnits="userSpaceOnUse" gradientTransform="translate(17.1967 16.6811) scale(19.6539 19.0775)">
<stop offset="0.005618" stop-color="#A9D1EF"/>
<stop offset="0.5393" stop-color="#1998D5"/>
<stop offset="1" stop-color="#0073BB"/>
</radialGradient>
<radialGradient id="paint1_radial_101_643" cx="0" cy="0" r="1" gradientUnits="userSpaceOnUse" gradientTransform="translate(20.6641 4.77056) scale(12.4486 12.0836)">
<stop offset="0.005618" stop-color="#A9D1EF"/>
<stop offset="0.5393" stop-color="#1998D5"/>
<stop offset="1" stop-color="#0073BB"/>
</radialGradient>
<radialGradient id="paint2_radial_101_643" cx="0" cy="0" r="1" gradientUnits="userSpaceOnUse" gradientTransform="translate(20.5932 5.55443) scale(14.9294 14.4887)">
<stop stop-color="#CBEBFB"/>
<stop offset="0.7767" stop-color="#BDCDDA"/>
<stop offset="1" stop-color="#B9C4D0"/>
</radialGradient>
<radialGradient id="paint3_radial_101_643" cx="0" cy="0" r="1" gradientUnits="userSpaceOnUse" gradientTransform="translate(10.9559 11.7994) scale(12.7346 12.3611)">
<stop offset="0.005618" stop-color="#A9D1EF"/>
<stop offset="0.5393" stop-color="#1998D5"/>
<stop offset="1" stop-color="#0073BB"/>
</radialGradient>
<radialGradient id="paint4_radial_101_643" cx="0" cy="0" r="1" gradientUnits="userSpaceOnUse" gradientTransform="translate(13.2029 4.08244) scale(8.06617 7.82963)">
<stop offset="0.005618" stop-color="#A9D1EF"/>
<stop offset="0.5393" stop-color="#1998D5"/>
<stop offset="1" stop-color="#0073BB"/>
</radialGradient>
<radialGradient id="paint5_radial_101_643" cx="0" cy="0" r="1" gradientUnits="userSpaceOnUse" gradientTransform="translate(13.1776 4.66279) scale(9.67163 9.38801)">
<stop stop-color="#CBEBFB"/>
<stop offset="0.7767" stop-color="#BDCDDA"/>
<stop offset="1" stop-color="#B9C4D0"/>
</radialGradient>
<radialGradient id="paint6_radial_101_643" cx="0" cy="0" r="1" gradientUnits="userSpaceOnUse" gradientTransform="translate(3.55048 14.5897) scale(9.58233 9.30133)">
<stop offset="0.005618" stop-color="#D3DFF2"/>
<stop offset="0.5393" stop-color="#1998D5"/>
<stop offset="1" stop-color="#0073BB"/>
</radialGradient>
<radialGradient id="paint7_radial_101_643" cx="0" cy="0" r="1" gradientUnits="userSpaceOnUse" gradientTransform="translate(6.09971 16.6961) rotate(180) scale(3.52587 3.42248)">
<stop offset="0.005618" stop-color="#A9D1EF"/>
<stop offset="0.5393" stop-color="#1998D5"/>
<stop offset="1" stop-color="#0073BB"/>
</radialGradient>
<radialGradient id="paint8_radial_101_643" cx="0" cy="0" r="1" gradientUnits="userSpaceOnUse" gradientTransform="translate(9.10168 11.1995) scale(5.76701 5.5979)">
<stop offset="0.005618" stop-color="#D3DFF2"/>
<stop offset="0.5393" stop-color="#1998D5"/>
<stop offset="1" stop-color="#0073BB"/>
</radialGradient>
<radialGradient id="paint9_radial_101_643" cx="0" cy="0" r="1" gradientUnits="userSpaceOnUse" gradientTransform="translate(10.9951 12.3309) rotate(180) scale(2.12054 2.05835)">
<stop offset="0.005618" stop-color="#A9D1EF"/>
<stop offset="0.5393" stop-color="#1998D5"/>
<stop offset="1" stop-color="#0073BB"/>
</radialGradient>
<radialGradient id="paint10_radial_101_643" cx="0" cy="0" r="1" gradientUnits="userSpaceOnUse" gradientTransform="translate(10.3277 16.8163) scale(4.3075 4.1812)">
<stop offset="0.005618" stop-color="#D3DFF2"/>
<stop offset="0.5393" stop-color="#1998D5"/>
<stop offset="1" stop-color="#0073BB"/>
</radialGradient>
<radialGradient id="paint11_radial_101_643" cx="0" cy="0" r="1" gradientUnits="userSpaceOnUse" gradientTransform="translate(11.5678 17.6504) rotate(180) scale(1.58418 1.53773)">
<stop offset="0.005618" stop-color="#A9D1EF"/>
<stop offset="0.5393" stop-color="#1998D5"/>
<stop offset="1" stop-color="#0073BB"/>
</radialGradient>
<radialGradient id="paint12_radial_101_643" cx="0" cy="0" r="1" gradientUnits="userSpaceOnUse" gradientTransform="translate(13.6854 20.7511) scale(4.30753 4.18121)">
<stop offset="0.005618" stop-color="#D3DFF2"/>
<stop offset="0.5393" stop-color="#1998D5"/>
<stop offset="1" stop-color="#0073BB"/>
</radialGradient>
<radialGradient id="paint13_radial_101_643" cx="0" cy="0" r="1" gradientUnits="userSpaceOnUse" gradientTransform="translate(14.9256 21.5855) rotate(180) scale(1.5843 1.53784)">
<stop offset="0.005618" stop-color="#A9D1EF"/>
<stop offset="0.5393" stop-color="#1998D5"/>
<stop offset="1" stop-color="#0073BB"/>
</radialGradient>
<radialGradient id="paint14_radial_101_643" cx="0" cy="0" r="1" gradientUnits="userSpaceOnUse" gradientTransform="translate(7.74267 22.4406) scale(6.99894 6.79369)">
<stop offset="0.005618" stop-color="#D3DFF2"/>
<stop offset="0.5393" stop-color="#1998D5"/>
<stop offset="1" stop-color="#0073BB"/>
</radialGradient>
<radialGradient id="paint15_radial_101_643" cx="0" cy="0" r="1" gradientUnits="userSpaceOnUse" gradientTransform="translate(9.8223 23.9279) rotate(180) scale(2.57462 2.49912)">
<stop offset="0.005618" stop-color="#A9D1EF"/>
<stop offset="0.5393" stop-color="#1998D5"/>
<stop offset="1" stop-color="#0073BB"/>
</radialGradient>
<radialGradient id="paint16_radial_101_643" cx="0" cy="0" r="1" gradientUnits="userSpaceOnUse" gradientTransform="translate(14.0508 13.0877) scale(6.99891 6.79367)">
<stop offset="0.005618" stop-color="#D3DFF2"/>
<stop offset="0.5393" stop-color="#1998D5"/>
<stop offset="1" stop-color="#0073BB"/>
</radialGradient>
<radialGradient id="paint17_radial_101_643" cx="0" cy="0" r="1" gradientUnits="userSpaceOnUse" gradientTransform="translate(16.1301 14.5753) rotate(180) scale(2.57463 2.49913)">
<stop offset="0.005618" stop-color="#A9D1EF"/>
<stop offset="0.5393" stop-color="#1998D5"/>
<stop offset="1" stop-color="#0073BB"/>
</radialGradient>
<clipPath id="clip0_101_643">
<rect width="24" height="30" fill="white"/>
</clipPath>
</defs>
</svg>
