<svg width="15" height="11" viewBox="0 0 15 11" fill="none" xmlns="http://www.w3.org/2000/svg">
<path d="M1.37793 5.24343C2.26265 7.47734 5.48989 8.27209 7.58105 7.32698C9.24996 6.57518 10.0342 4.51312 9.33039 2.73029C8.76739 1.30188 7.21912 0.625266 5.88198 1.23744C4.81629 1.71 4.31361 3.03101 4.76602 4.18018C4.1628 2.66585 4.82634 0.925984 6.24391 0.292328C8.01336 -0.502426 10.0442 0.378248 10.7882 2.26847C11.7131 4.62052 10.6876 7.33772 8.47583 8.33653C5.71107 9.57162 2.5341 8.19691 1.37793 5.24343Z" fill="url(#paint0_radial_5_2963)"/>
<path d="M3.84107 7.59547C5.16815 8.4654 6.84712 8.65872 8.38533 7.97137C9.36054 7.53103 10.1146 6.7148 10.5067 5.67303C10.8988 4.63125 10.8988 3.48208 10.4866 2.44031C9.81295 0.743402 7.97313 -0.0620925 6.38465 0.657482C6.1132 0.775621 5.86186 0.9582 5.65073 1.16226C5.45971 1.2804 5.2888 1.42002 5.13799 1.58112C5.4195 1.07634 5.84175 0.689702 6.35449 0.453424C8.03345 -0.298371 9.96376 0.539343 10.6675 2.33291C11.0998 3.42838 11.1099 4.63125 10.6876 5.73747C10.2855 6.84368 9.49124 7.70287 8.46576 8.16469C6.54551 9.02388 4.41413 8.5728 2.94629 7.19809C3.22779 7.35919 3.5294 7.48807 3.84107 7.59547Z" fill="url(#paint1_radial_5_2963)"/>
<path d="M9.43066 8.30431C9.72222 7.56325 10.798 7.29476 11.4917 7.61695C12.0446 7.86397 12.306 8.55133 12.0748 9.14202C11.8838 9.61458 11.371 9.84012 10.9287 9.63606C10.5768 9.47496 10.4059 9.03462 10.5567 8.65873C10.3556 9.1635 10.5768 9.73272 11.0493 9.94752C11.6324 10.216 12.3161 9.9153 12.5574 9.29238C12.869 8.50837 12.5272 7.60621 11.7933 7.27327C10.8784 6.86516 9.82276 7.32697 9.43066 8.30431Z" fill="url(#paint2_radial_5_2963)"/>
<path d="M5.31885 6.42482C6.36443 6.95108 7.9127 6.11336 8.40533 4.99641C8.79742 4.105 8.43549 3.04174 7.60103 2.62289C6.92744 2.28995 6.1332 2.60141 5.82153 3.31024C5.57019 3.87946 5.80142 4.56681 6.33427 4.82457C6.76658 5.03937 7.26926 4.84605 7.47034 4.38423C7.63119 4.01908 7.49044 3.38542 7.14862 3.21358C7.56082 3.41764 7.74178 3.9439 7.55076 4.38423C7.30948 4.93197 6.6962 5.17899 6.17341 4.92123C5.52997 4.59903 5.24847 3.77206 5.55008 3.0847C5.93212 2.22551 6.88722 1.84961 7.70157 2.25773C8.70694 2.76251 9.1493 4.0513 8.67678 5.12529C8.08361 6.46778 6.57556 7.05848 5.31885 6.42482Z" fill="url(#paint3_radial_5_2963)"/>
<path d="M10.7471 7.87471C11.099 7.70287 11.6217 7.98211 11.7826 8.358C11.9133 8.65872 11.7927 9.01314 11.5112 9.15276C11.29 9.26016 11.0185 9.1635 10.9079 8.91648C10.8275 8.72316 10.8979 8.49762 11.0788 8.40096C11.2196 8.32578 11.3905 8.39022 11.4609 8.55132C11.5112 8.66946 11.4709 8.88426 11.3503 8.9487C11.491 8.88426 11.5514 8.70168 11.481 8.55132C11.4006 8.36874 11.1894 8.28282 11.0185 8.36874C10.7973 8.47614 10.7069 8.75538 10.8074 8.99166C10.9381 9.28163 11.2598 9.41051 11.5313 9.2709C11.8731 9.09906 12.0138 8.66946 11.863 8.3043C11.672 7.85323 11.1693 7.65991 10.7471 7.87471Z" fill="url(#paint4_radial_5_2963)"/>
<path d="M0 7.89619C0.774134 7.18735 2.94573 7.44511 3.61933 8.27209C2.66423 7.09069 1.09585 6.8759 0 7.89619Z" fill="url(#paint5_radial_5_2963)"/>
<path d="M1.61865 8.30431C2.08112 7.87472 3.37805 8.03581 3.7802 8.52985C3.20714 7.83176 2.27214 7.70288 1.61865 8.30431Z" fill="url(#paint6_radial_5_2963)"/>
<path d="M15.0003 3.61096C11.1799 3.10619 11.964 5.55489 11.964 5.55489C12.8488 4.60978 13.9145 4.29832 13.9145 4.29832C12.698 4.94272 11.6825 6.05967 11.6825 6.05967L11.5317 6.65036L12.2254 5.82339C13.4822 7.63844 15.0003 3.61096 15.0003 3.61096Z" fill="#94C63D"/>
<path d="M14.7485 3.92242C14.7786 3.84724 14.8088 3.7828 14.839 3.71836C13.5521 3.56801 12.6573 3.76132 12.2652 4.28758C12.0742 4.54534 12.0239 4.83532 12.0239 5.08233C12.0239 5.11455 12.0239 5.14677 12.0239 5.17899C12.034 4.9642 12.1044 4.71718 12.2652 4.50238C12.6573 3.98686 13.5119 3.79354 14.7485 3.92242Z" fill="url(#paint7_linear_5_2963)"/>
<path d="M15.0003 3.61096C11.1799 3.10619 11.964 5.55489 11.964 5.55489C12.8488 4.60978 13.9145 4.29832 13.9145 4.29832C12.698 4.94272 11.6825 6.05967 11.6825 6.05967L11.5317 6.65036L12.2254 5.82339C13.4822 7.63844 15.0003 3.61096 15.0003 3.61096Z" fill="#94C63D"/>
<path d="M14.7485 3.92242C14.7786 3.84724 14.8088 3.7828 14.839 3.71836C13.5521 3.56801 12.6573 3.76132 12.2652 4.28758C12.0742 4.54534 12.0239 4.83532 12.0239 5.08233C12.0239 5.11455 12.0239 5.14677 12.0239 5.17899C12.034 4.9642 12.1044 4.71718 12.2652 4.50238C12.6573 3.98686 13.5119 3.79354 14.7485 3.92242Z" fill="url(#paint8_linear_5_2963)"/>
<path d="M4.67452 5.05012C4.67452 5.05012 4.78511 4.88902 5.09677 4.9105C5.09677 4.9105 4.97613 4.79236 5.08672 4.71718C5.08672 4.71718 4.34275 5.0716 3.97076 5.49045C3.97076 5.49045 4.31259 5.02864 4.58403 4.86754C4.58403 4.86754 3.56861 4.2124 3.28711 6.31743C3.30722 6.30669 5.07667 5.78043 4.67452 5.05012Z" fill="#94C63D"/>
<path d="M4.02159 5.09308C4.10202 5.05012 4.18245 5.03938 4.26288 5.03938C4.31315 4.98568 4.36342 4.93198 4.42374 4.88902C4.3232 4.8568 4.18245 4.84606 4.03164 4.92124C3.75014 5.06086 3.54907 5.50119 3.43848 6.17781C3.44853 6.17781 3.45858 6.16707 3.46864 6.16707C3.56917 5.59785 3.76019 5.22195 4.02159 5.09308Z" fill="url(#paint9_linear_5_2963)"/>
<path d="M4.67452 5.05012C4.67452 5.05012 4.78511 4.88902 5.09677 4.9105C5.09677 4.9105 4.97613 4.79236 5.08672 4.71718C5.08672 4.71718 4.34275 5.0716 3.97076 5.49045C3.97076 5.49045 4.31259 5.02864 4.58403 4.86754C4.58403 4.86754 3.56861 4.2124 3.28711 6.31743C3.30722 6.30669 5.07667 5.78043 4.67452 5.05012Z" fill="#94C63D"/>
<path d="M4.02159 5.09308C4.10202 5.05012 4.18245 5.03938 4.26288 5.03938C4.31315 4.98568 4.36342 4.93198 4.42374 4.88902C4.3232 4.8568 4.18245 4.84606 4.03164 4.92124C3.75014 5.06086 3.54907 5.50119 3.43848 6.17781C3.44853 6.17781 3.45858 6.16707 3.46864 6.16707C3.56917 5.59785 3.76019 5.22195 4.02159 5.09308Z" fill="url(#paint10_linear_5_2963)"/>
<defs>
<radialGradient id="paint0_radial_5_2963" cx="0" cy="0" r="1" gradientUnits="userSpaceOnUse" gradientTransform="translate(6.29193 4.34643) rotate(180) scale(4.50891 4.81668)">
<stop offset="0.005618" stop-color="#A9D1EF"/>
<stop offset="0.5393" stop-color="#1998D5"/>
<stop offset="1" stop-color="#0073BB"/>
</radialGradient>
<radialGradient id="paint1_radial_5_2963" cx="0" cy="0" r="1" gradientUnits="userSpaceOnUse" gradientTransform="translate(11.252 3.84924) rotate(180) scale(8.02917 8.57722)">
<stop offset="0.005618" stop-color="#A9D1EF"/>
<stop offset="0.5393" stop-color="#1998D5"/>
<stop offset="1" stop-color="#0073BB"/>
</radialGradient>
<radialGradient id="paint2_radial_5_2963" cx="0" cy="0" r="1" gradientUnits="userSpaceOnUse" gradientTransform="translate(11.0203 8.55391) rotate(180) scale(1.49881 1.60111)">
<stop offset="0.005618" stop-color="#A9D1EF"/>
<stop offset="0.5393" stop-color="#1998D5"/>
<stop offset="1" stop-color="#0073BB"/>
</radialGradient>
<radialGradient id="paint3_radial_5_2963" cx="0" cy="0" r="1" gradientUnits="userSpaceOnUse" gradientTransform="translate(7.13518 4.33181) rotate(180) scale(1.96714 2.10142)">
<stop offset="0.005618" stop-color="#A9D1EF"/>
<stop offset="0.5393" stop-color="#1998D5"/>
<stop offset="1" stop-color="#0073BB"/>
</radialGradient>
<radialGradient id="paint4_radial_5_2963" cx="0" cy="0" r="1" gradientUnits="userSpaceOnUse" gradientTransform="translate(11.318 8.53569) rotate(180) scale(0.662405 0.707617)">
<stop offset="0.005618" stop-color="#A9D1EF"/>
<stop offset="0.5393" stop-color="#1998D5"/>
<stop offset="1" stop-color="#0073BB"/>
</radialGradient>
<radialGradient id="paint5_radial_5_2963" cx="0" cy="0" r="1" gradientUnits="userSpaceOnUse" gradientTransform="translate(2.91216 9.25511) rotate(180) scale(1.57675 1.68438)">
<stop offset="0.005618" stop-color="#A9D1EF"/>
<stop offset="0.5393" stop-color="#1998D5"/>
<stop offset="1" stop-color="#0073BB"/>
</radialGradient>
<radialGradient id="paint6_radial_5_2963" cx="0" cy="0" r="1" gradientUnits="userSpaceOnUse" gradientTransform="translate(2.91217 9.25481) rotate(180) scale(1.57675 1.68437)">
<stop offset="0.005618" stop-color="#A9D1EF"/>
<stop offset="0.5393" stop-color="#1998D5"/>
<stop offset="1" stop-color="#0073BB"/>
</radialGradient>
<linearGradient id="paint7_linear_5_2963" x1="11.9998" y1="4.417" x2="14.822" y2="4.417" gradientUnits="userSpaceOnUse">
<stop stop-color="#B7D333"/>
<stop offset="0.228" stop-color="#C5DB54"/>
<stop offset="0.7268" stop-color="#EAEFA7"/>
<stop offset="1" stop-color="#FFFBD7"/>
</linearGradient>
<linearGradient id="paint8_linear_5_2963" x1="11.9998" y1="4.417" x2="14.822" y2="4.417" gradientUnits="userSpaceOnUse">
<stop stop-color="#B7D333"/>
<stop offset="0.3431" stop-color="#BDD754"/>
<stop offset="1" stop-color="#CBE19C"/>
</linearGradient>
<linearGradient id="paint9_linear_5_2963" x1="3.37977" y1="5.51882" x2="4.37059" y2="5.51882" gradientUnits="userSpaceOnUse">
<stop stop-color="#B7D333"/>
<stop offset="0.228" stop-color="#C5DB54"/>
<stop offset="0.7268" stop-color="#EAEFA7"/>
<stop offset="1" stop-color="#FFFBD7"/>
</linearGradient>
<linearGradient id="paint10_linear_5_2963" x1="3.37977" y1="5.51882" x2="4.37059" y2="5.51882" gradientUnits="userSpaceOnUse">
<stop stop-color="#B7D333"/>
<stop offset="0.3431" stop-color="#BDD754"/>
<stop offset="1" stop-color="#CBE19C"/>
</linearGradient>
</defs>
</svg>
