<svg width="21" height="17" viewBox="0 0 21 17" fill="none" xmlns="http://www.w3.org/2000/svg">
<path d="M17.1065 4.43695C17.1221 4.33724 17.1221 4.22092 17.1221 4.12121C17.1221 1.84457 15.3239 0 13.0879 0C11.2896 0 9.75726 1.22972 9.25689 2.90811C8.67833 2.45943 7.92777 2.19355 7.1303 2.19355C5.28518 2.19355 3.78407 3.60606 3.78407 5.33431C3.78407 5.48387 3.7997 5.63343 3.81534 5.78299C1.61057 6.14858 0 7.44477 0 8.95699C0 10.7683 2.29858 12.2473 5.12882 12.2473C6.12956 12.2473 7.05212 12.0645 7.83395 11.7488C8.67833 12.1642 9.72599 12.3969 10.8518 12.3969C11.9308 12.3969 12.9315 12.1808 13.7602 11.7986C14.4952 12.2307 15.3864 12.4633 16.3403 12.4633C18.9203 12.4633 21 10.652 21 8.4086C21 6.43109 19.3112 4.76931 17.1065 4.43695Z" fill="url(#paint0_radial_122_5261)"/>
<path d="M9.58509 3.19062L9.46 3.58945L9.13163 3.34018C8.61562 2.94136 7.95888 2.72533 7.28651 2.72533C5.70721 2.72533 4.40937 3.92181 4.40937 5.38417C4.40937 5.5005 4.425 5.63344 4.44064 5.76638L4.48755 6.0655L4.22173 6.11535C2.25151 6.44771 0.875488 7.5611 0.875488 8.80744C0.875488 10.3529 2.92389 11.6158 5.42575 11.6158C6.3014 11.6158 7.14578 11.4663 7.8807 11.1672L7.99016 11.1173L8.09961 11.1672C8.89708 11.5494 9.83528 11.7488 10.836 11.7488C11.7899 11.7488 12.6968 11.566 13.463 11.217L13.5881 11.1672L13.7132 11.2336C14.3855 11.6325 15.183 11.8319 16.0118 11.8319C18.2791 11.8319 20.1242 10.2532 20.1242 8.3089C20.1242 6.58065 18.6856 5.13491 16.6998 4.83578L16.4339 4.80255L16.4496 4.23754C16.4496 2.26003 14.8703 0.648102 12.9313 0.648102C11.3989 0.648102 10.0386 1.6784 9.58509 3.19062Z" fill="url(#paint1_radial_122_5261)"/>
<path d="M19.5924 8.19257C19.5924 6.79668 18.3728 5.6002 16.684 5.36755L15.8709 5.25122C15.8709 5.25122 15.9178 4.15445 15.9178 4.12121C15.9178 2.49267 14.62 1.17986 13.0094 1.17986C12.1807 1.17986 11.4301 1.52884 10.8828 2.11046C11.3363 1.81134 11.8836 1.62854 12.4621 1.62854C14.057 1.62854 15.3705 2.94135 15.3705 4.56989C15.3705 4.60313 15.3236 5.6999 15.3236 5.6999L16.1367 5.81623C17.8255 6.06549 19.0451 7.24536 19.0451 8.64125C19.0451 9.30596 18.7637 9.90421 18.3102 10.4027C19.092 9.87097 19.5924 9.07332 19.5924 8.19257Z" fill="white"/>
<path d="M11.0864 3.95502C11.0864 3.88855 11.102 3.82208 11.102 3.73899C11.102 2.26001 9.92926 1.06353 8.49069 1.06353C7.31794 1.06353 6.33284 1.86118 6.00447 2.95796C5.62919 2.65884 5.14445 2.49266 4.62844 2.49266C3.42442 2.49266 2.45495 3.40664 2.45495 4.52003C2.45495 4.61974 2.47059 4.71944 2.47059 4.81915C1.04765 5.06842 0 5.89931 0 6.89637C0 8.07624 1.48548 9.02345 3.31497 9.02345C3.95607 9.02345 4.5659 8.90713 5.06627 8.70771C5.61355 8.9736 6.28593 9.12316 7.02085 9.12316C7.7245 9.12316 8.3656 8.9736 8.89724 8.74095C9.38198 9.02345 9.9449 9.17301 10.5704 9.17301C12.2435 9.17301 13.5882 7.99315 13.5882 6.5474C13.6039 5.25121 12.5093 4.17106 11.0864 3.95502Z" fill="url(#paint2_radial_122_5261)"/>
<path d="M6.22345 3.15739L6.14527 3.42328L5.94199 3.2571C5.61362 2.99121 5.17579 2.85827 4.75361 2.85827C3.72159 2.85827 2.89285 3.63931 2.89285 4.58652C2.89285 4.66961 2.89285 4.7527 2.90848 4.83579L2.93976 5.0352L2.75212 5.06844C1.45428 5.25123 0.562988 5.98242 0.562988 6.79669C0.562988 7.79375 1.8921 8.60803 3.51831 8.60803C4.08123 8.60803 4.62851 8.50832 5.11325 8.30891L5.19143 8.27567L5.25398 8.30891C5.76999 8.55817 6.37982 8.69111 7.02092 8.69111C7.63075 8.69111 8.22494 8.57479 8.72531 8.34214L8.80349 8.30891L8.88168 8.35876C9.3195 8.60803 9.83551 8.74097 10.3672 8.74097C11.837 8.74097 13.041 7.71067 13.041 6.46433C13.041 5.35094 12.1028 4.40373 10.8206 4.22093L10.6486 4.20431L10.6643 3.83872C10.6643 2.55915 9.64787 1.51223 8.39694 1.51223C7.38056 1.51223 6.50491 2.16032 6.22345 3.15739Z" fill="url(#paint3_radial_122_5261)"/>
<path d="M12.6971 6.38122C12.6971 5.48386 11.8996 4.70283 10.8207 4.55327L10.3046 4.47018C10.3046 4.47018 10.3359 3.75561 10.3359 3.739C10.3359 2.69207 9.49154 1.82795 8.45952 1.82795C7.92787 1.82795 7.4275 2.0606 7.0835 2.42619C7.38059 2.22678 7.74024 2.12707 8.11551 2.12707C9.14753 2.12707 9.99191 2.97458 9.99191 4.03812C9.99191 4.07135 9.96064 4.7693 9.96064 4.7693L10.4766 4.85239C11.5712 5.00195 12.353 5.78298 12.353 6.68034C12.353 7.11241 12.181 7.49462 11.8839 7.81035C12.3687 7.478 12.6971 6.96285 12.6971 6.38122Z" fill="white"/>
<defs>
<radialGradient id="paint0_radial_122_5261" cx="0" cy="0" r="1" gradientUnits="userSpaceOnUse" gradientTransform="translate(14.3315 15.2141) scale(16.4996 17.5349)">
<stop stop-color="white"/>
<stop offset="0.4978" stop-color="#DEE3E9"/>
<stop offset="1" stop-color="#B9C4D0"/>
</radialGradient>
<radialGradient id="paint1_radial_122_5261" cx="0" cy="0" r="1" gradientUnits="userSpaceOnUse" gradientTransform="translate(17.2424 4.26723) scale(10.4504 11.1061)">
<stop stop-color="white"/>
<stop offset="0.4978" stop-color="#DEE3E9"/>
<stop offset="1" stop-color="#B9C4D0"/>
</radialGradient>
<radialGradient id="paint2_radial_122_5261" cx="0" cy="0" r="1" gradientUnits="userSpaceOnUse" gradientTransform="translate(9.28894 10.9428) scale(10.6924 11.3633)">
<stop stop-color="white"/>
<stop offset="0.4978" stop-color="#DEE3E9"/>
<stop offset="1" stop-color="#B9C4D0"/>
</radialGradient>
<radialGradient id="paint3_radial_122_5261" cx="0" cy="0" r="1" gradientUnits="userSpaceOnUse" gradientTransform="translate(11.1755 3.8488) scale(6.77229 7.19723)">
<stop stop-color="white"/>
<stop offset="0.4978" stop-color="#DEE3E9"/>
<stop offset="1" stop-color="#B9C4D0"/>
</radialGradient>
</defs>
</svg>
