<svg width="80" height="30" viewBox="0 0 80 30" fill="none" xmlns="http://www.w3.org/2000/svg">
<rect width="80" height="30" rx="5" fill="#FEEDE9"/>
<path d="M40 0H75C77.7614 0 80 2.23858 80 5V25C80 27.7614 77.7614 30 75 30H40V0Z" fill="#1F4DC5"/>
<path d="M17.408 20.16C16.5013 20.16 15.7227 20.0053 15.072 19.696C14.4213 19.376 13.92 18.8907 13.568 18.24C13.216 17.5787 13.0187 16.752 12.976 15.76C12.9653 15.2907 12.96 14.8427 12.96 14.416C12.96 13.9787 12.9653 13.5253 12.976 13.056C13.0187 12.0747 13.2213 11.2587 13.584 10.608C13.9573 9.94667 14.4693 9.456 15.12 9.136C15.7813 8.80533 16.544 8.64 17.408 8.64C18.2827 8.64 19.0453 8.80533 19.696 9.136C20.3573 9.456 20.8747 9.94667 21.248 10.608C21.6213 11.2587 21.824 12.0747 21.856 13.056C21.8773 13.5253 21.888 13.9787 21.888 14.416C21.888 14.8427 21.8773 15.2907 21.856 15.76C21.824 16.752 21.6267 17.5787 21.264 18.24C20.912 18.8907 20.4107 19.376 19.76 19.696C19.1093 20.0053 18.3253 20.16 17.408 20.16ZM17.408 18.8C18.2293 18.8 18.896 18.5547 19.408 18.064C19.9307 17.5733 20.2133 16.7787 20.256 15.68C20.2773 15.2 20.288 14.7733 20.288 14.4C20.288 14.016 20.2773 13.5893 20.256 13.12C20.2347 12.384 20.096 11.7867 19.84 11.328C19.5947 10.8693 19.264 10.5333 18.848 10.32C18.432 10.1067 17.952 10 17.408 10C16.8853 10 16.416 10.1067 16 10.32C15.584 10.5333 15.248 10.8693 14.992 11.328C14.7467 11.7867 14.608 12.384 14.576 13.12C14.5653 13.5893 14.56 14.016 14.56 14.4C14.56 14.7733 14.5653 15.2 14.576 15.68C14.6187 16.7787 14.9013 17.5733 15.424 18.064C15.9467 18.5547 16.608 18.8 17.408 18.8ZM24.5401 20C24.4335 20 24.3428 19.968 24.2681 19.904C24.2041 19.8293 24.1721 19.7387 24.1721 19.632V12.048C24.1721 11.9413 24.2041 11.856 24.2681 11.792C24.3428 11.7173 24.4335 11.68 24.5401 11.68H25.2921C25.3988 11.68 25.4841 11.7173 25.5481 11.792C25.6228 11.856 25.6601 11.9413 25.6601 12.048V12.752C25.9375 12.3893 26.2841 12.096 26.7001 11.872C27.1268 11.6373 27.6708 11.52 28.3321 11.52C29.0255 11.52 29.6121 11.6747 30.0921 11.984C30.5828 12.2827 30.9508 12.704 31.1961 13.248C31.4415 13.7813 31.5641 14.4053 31.5641 15.12V19.632C31.5641 19.7387 31.5321 19.8293 31.4681 19.904C31.4041 19.968 31.3188 20 31.2121 20H30.4121C30.3055 20 30.2148 19.968 30.1401 19.904C30.0761 19.8293 30.0441 19.7387 30.0441 19.632V15.2C30.0441 14.4533 29.8628 13.872 29.5001 13.456C29.1375 13.0293 28.6041 12.816 27.9001 12.816C27.2388 12.816 26.7055 13.0293 26.3001 13.456C25.9055 13.872 25.7081 14.4533 25.7081 15.2V19.632C25.7081 19.7387 25.6708 19.8293 25.5961 19.904C25.5321 19.968 25.4468 20 25.3401 20H24.5401Z" fill="#272722"/>
<path d="M55.408 20.16C54.5013 20.16 53.7227 20.0053 53.072 19.696C52.4213 19.376 51.92 18.8907 51.568 18.24C51.216 17.5787 51.0187 16.752 50.976 15.76C50.9653 15.2907 50.96 14.8427 50.96 14.416C50.96 13.9787 50.9653 13.5253 50.976 13.056C51.0187 12.0747 51.2213 11.2587 51.584 10.608C51.9573 9.94667 52.4693 9.456 53.12 9.136C53.7813 8.80533 54.544 8.64 55.408 8.64C56.2827 8.64 57.0453 8.80533 57.696 9.136C58.3573 9.456 58.8747 9.94667 59.248 10.608C59.6213 11.2587 59.824 12.0747 59.856 13.056C59.8773 13.5253 59.888 13.9787 59.888 14.416C59.888 14.8427 59.8773 15.2907 59.856 15.76C59.824 16.752 59.6267 17.5787 59.264 18.24C58.912 18.8907 58.4107 19.376 57.76 19.696C57.1093 20.0053 56.3253 20.16 55.408 20.16ZM55.408 18.8C56.2293 18.8 56.896 18.5547 57.408 18.064C57.9307 17.5733 58.2133 16.7787 58.256 15.68C58.2773 15.2 58.288 14.7733 58.288 14.4C58.288 14.016 58.2773 13.5893 58.256 13.12C58.2347 12.384 58.096 11.7867 57.84 11.328C57.5947 10.8693 57.264 10.5333 56.848 10.32C56.432 10.1067 55.952 10 55.408 10C54.8853 10 54.416 10.1067 54 10.32C53.584 10.5333 53.248 10.8693 52.992 11.328C52.7467 11.7867 52.608 12.384 52.576 13.12C52.5653 13.5893 52.56 14.016 52.56 14.4C52.56 14.7733 52.5653 15.2 52.576 15.68C52.6187 16.7787 52.9013 17.5733 53.424 18.064C53.9467 18.5547 54.608 18.8 55.408 18.8ZM63.3721 20C63.2655 20 63.1748 19.968 63.1001 19.904C63.0361 19.8293 63.0041 19.7387 63.0041 19.632V12.96H61.6441C61.5375 12.96 61.4468 12.928 61.3721 12.864C61.3081 12.7893 61.2761 12.6987 61.2761 12.592V12.048C61.2761 11.9413 61.3081 11.856 61.3721 11.792C61.4468 11.7173 61.5375 11.68 61.6441 11.68H63.0041V10.88C63.0041 10.336 63.0948 9.86133 63.2761 9.456C63.4575 9.04 63.7455 8.72 64.1401 8.496C64.5455 8.272 65.0841 8.16 65.7561 8.16H66.7161C66.8228 8.16 66.9081 8.19733 66.9721 8.272C67.0361 8.336 67.0681 8.42133 67.0681 8.528V9.072C67.0681 9.17867 67.0361 9.26933 66.9721 9.344C66.9081 9.408 66.8228 9.44 66.7161 9.44H65.7881C65.2868 9.44 64.9455 9.57333 64.7641 9.84C64.5828 10.096 64.4921 10.4693 64.4921 10.96V11.68H67.9161V10.88C67.9161 10.336 68.0015 9.86133 68.1721 9.456C68.3535 9.04 68.6415 8.72 69.0361 8.496C69.4415 8.272 69.9801 8.16 70.6521 8.16H71.6121C71.7188 8.16 71.8041 8.19733 71.8681 8.272C71.9428 8.336 71.9801 8.42133 71.9801 8.528V9.072C71.9801 9.17867 71.9428 9.26933 71.8681 9.344C71.8041 9.408 71.7188 9.44 71.6121 9.44H70.6841C70.1828 9.44 69.8415 9.57333 69.6601 9.84C69.4788 10.096 69.3881 10.4693 69.3881 10.96V11.68H71.4521C71.5588 11.68 71.6441 11.7173 71.7081 11.792C71.7828 11.856 71.8201 11.9413 71.8201 12.048V12.592C71.8201 12.6987 71.7828 12.7893 71.7081 12.864C71.6441 12.928 71.5588 12.96 71.4521 12.96H69.3881V19.632C69.3881 19.7387 69.3561 19.8293 69.2921 19.904C69.2281 19.968 69.1375 20 69.0201 20H68.2841C68.1775 20 68.0868 19.968 68.0121 19.904C67.9481 19.8293 67.9161 19.7387 67.9161 19.632V12.96H64.4921V19.632C64.4921 19.7387 64.4548 19.8293 64.3801 19.904C64.3161 19.968 64.2308 20 64.1241 20H63.3721Z" fill="#E9EEFA"/>
</svg>
